<svg width="591" height="205" viewBox="0 0 591 205" fill="none" xmlns="http://www.w3.org/2000/svg">
<path d="M418.631 115.97C418.851 115.749 418.851 115.528 418.631 115.307C417.751 114.423 415.111 111.771 414.011 110.666C413.791 110.445 413.571 110.445 413.351 110.666C412.471 111.771 409.612 114.423 408.732 115.307C408.512 115.528 408.512 115.749 408.732 115.97C409.612 116.854 412.251 119.727 413.351 120.611C413.571 120.832 413.791 120.832 414.011 120.611C415.111 119.506 417.531 116.854 418.631 115.97Z" fill="#4A4A49"/>
<path d="M93.2736 87.2397C93.2736 87.2397 93.7135 86.7977 93.9335 87.0187C94.1535 87.0187 93.9335 87.6817 93.9335 87.6817C93.4935 91.4388 91.5137 105.362 90.6337 123.485C90.4138 126.358 90.4138 129.452 90.1938 132.325V133.43L90.8537 132.767C93.2736 129.452 97.6733 127.684 102.953 127.684C106.253 127.684 113.952 128.789 115.932 138.734C116.592 142.27 115.712 150.447 108.453 156.414C106.253 158.182 100.093 161.277 93.0536 161.277C87.114 161.498 81.1744 161.056 77.2146 157.74C75.0148 155.972 73.2549 153.541 72.8149 146.69C72.8149 146.027 72.8149 145.364 72.8149 144.701C72.8149 143.817 72.8149 143.596 72.8149 142.933C72.8149 142.491 72.8149 142.27 73.0349 142.491C73.0349 142.491 73.2549 142.712 73.2549 143.154C73.4749 143.596 73.4749 143.817 73.6949 144.259C76.9947 150.668 88.2139 151.773 92.1736 151.552C100.093 151.331 103.393 149.121 105.813 145.585C107.133 143.596 107.793 141.165 107.353 138.955C106.693 135.64 104.493 134.093 100.533 134.093C94.8135 134.093 90.4138 138.734 90.4138 144.701V145.585V147.353C90.4138 147.795 90.4138 148.016 90.1938 148.016C89.9738 148.016 89.7538 148.016 89.5338 147.795L82.4943 143.596C82.2743 143.596 81.8343 143.154 81.6144 142.933C81.3944 142.712 81.3944 142.27 81.3944 141.828C81.3944 135.419 81.6143 128.347 81.8343 123.706C82.2743 114.644 82.9343 105.804 84.0342 97.1849C84.0342 96.5219 84.2542 96.0799 84.4742 95.6379C84.6941 95.4169 85.1341 94.9749 85.3541 94.5329C84.9141 94.3119 93.2736 87.2397 93.2736 87.2397Z" fill="#4A4A49"/>
<path d="M404.334 131.662C405.874 130.336 410.934 126.137 412.913 124.59C413.133 124.369 413.353 124.148 413.353 124.369C413.573 124.369 413.353 124.811 413.353 125.032C413.133 131.662 412.913 138.071 412.913 144.48V145.364V151.111C413.133 153.984 413.573 155.752 414.453 156.415C415.333 157.299 417.313 157.962 420.833 157.52H421.273C421.493 157.52 421.713 157.52 421.713 157.52C421.713 157.741 421.273 157.962 421.053 158.183C418.193 159.509 415.773 160.393 413.573 160.393H412.473C410.494 160.393 408.294 159.288 406.754 157.962L406.314 157.52C406.094 157.299 405.874 157.078 405.654 156.636C404.554 155.089 403.894 153.763 403.894 151.553C403.894 149.343 403.894 136.966 404.114 133.209C404.114 132.988 404.114 132.546 404.114 132.325C404.114 131.883 404.114 131.883 404.334 131.662Z" fill="#4A4A49"/>
<path d="M330.198 150.89C327.998 152.437 325.358 153.321 322.718 152.879C319.418 152.437 317.658 151.111 317.658 149.122C317.658 147.133 319.198 146.028 322.058 145.807C324.258 145.586 326.898 147.133 330.198 150.448L330.418 150.669L330.198 150.89ZM399.713 138.513C397.953 128.568 390.034 127.463 386.734 127.463C381.454 127.463 377.274 129.231 374.855 132.546L374.195 133.209V132.104C374.195 129.231 374.415 126.137 374.635 123.264C375.515 105.142 377.494 91.2182 377.934 87.4612C377.934 87.4612 377.934 87.0191 377.714 86.7981C377.494 86.5771 377.054 87.0191 377.054 87.0191L368.695 94.0913C368.475 94.3123 367.815 94.7543 367.815 95.1963C367.595 95.4174 367.375 96.0804 367.375 96.7434C366.275 105.363 365.615 114.203 365.175 123.264C364.955 127.905 364.735 134.977 364.735 141.387C364.735 141.829 364.735 142.05 364.955 142.492C365.175 142.713 365.615 143.155 365.615 143.155L372.875 147.354C373.095 147.575 373.315 147.575 373.535 147.575C373.755 147.575 373.755 147.354 373.755 146.912V145.144V144.26C373.755 138.292 378.154 133.651 383.874 133.651C387.834 133.651 390.254 135.198 390.914 138.513C391.353 140.724 390.694 143.155 389.374 145.144C386.954 148.68 383.654 151.111 375.735 151.111C371.995 151.111 360.556 150.227 357.256 143.818C357.036 143.376 356.816 143.155 356.816 142.934C356.596 142.713 356.596 142.271 356.376 142.271C356.156 142.271 356.156 142.492 356.156 142.934C356.156 143.155 355.936 143.597 355.936 143.818C355.716 145.807 354.836 148.238 353.296 149.564C351.756 150.89 348.456 150.89 345.817 150.669C344.717 150.448 342.297 150.006 340.097 149.343L339.657 149.122L339.877 148.901C342.077 143.155 342.297 136.745 340.097 133.209C338.117 129.673 334.157 127.463 330.198 127.021C326.018 126.579 320.078 127.242 316.998 129.673C315.239 130.999 314.799 134.093 314.579 136.303C314.579 136.745 314.579 137.187 314.579 137.187C314.799 137.187 315.019 136.966 315.239 136.745C316.778 135.64 319.198 133.872 321.838 133.43C325.138 132.767 327.998 133.43 329.318 134.314C333.057 136.303 333.497 139.839 333.717 140.724C333.937 141.829 333.717 142.934 333.497 144.039V144.702L333.057 144.26C328.438 139.839 325.358 138.513 321.178 139.176C319.198 139.618 316.779 140.724 315.019 142.713C313.919 143.597 311.279 147.575 308.859 148.459C303.799 150.448 282.241 149.564 279.161 147.575C277.401 146.47 277.621 143.597 277.621 142.492V142.271C277.621 141.608 278.061 135.64 278.061 132.325C278.281 129.894 277.841 128.347 276.961 127.463C275.861 126.579 274.321 126.137 273.221 126.137C272.122 126.137 270.582 126.579 268.382 128.347C262.002 133.872 259.142 138.071 258.042 140.06C257.822 140.282 257.602 140.724 257.382 140.724C256.943 140.945 256.943 140.282 257.163 140.06C257.163 135.419 257.602 122.822 257.602 122.38C258.482 104.258 260.462 90.3342 260.902 86.5771V86.3561C260.902 86.1351 260.902 85.6931 260.902 85.6931C260.682 85.4721 260.462 85.6931 260.462 85.9141L251.883 93.2073C251.663 93.4283 251.223 93.8703 251.003 94.3123C250.783 94.5333 250.563 95.1963 250.563 95.8594V96.0804C249.903 102.711 248.803 111.772 248.363 122.38C247.703 139.618 247.923 147.796 247.923 156.636C247.923 158.846 249.023 159.509 249.903 159.73C250.123 159.73 252.103 160.393 252.983 158.625C257.822 149.122 261.562 144.039 268.382 137.187C268.602 136.966 269.042 136.524 269.482 136.745C269.922 136.966 269.922 137.408 269.922 137.85L269.702 140.724C269.702 142.05 269.482 143.155 269.482 145.807C269.482 148.459 269.702 155.089 274.101 157.52C278.721 159.951 301.16 159.509 301.16 159.509C308.419 159.509 309.739 158.183 311.059 156.415C311.719 155.752 312.159 154.647 312.599 153.763C314.139 157.52 317.658 159.067 317.878 159.067C317.878 159.067 319.858 159.951 323.158 159.951C325.578 159.951 328.438 159.288 331.078 157.962C331.957 157.52 333.057 156.857 334.157 155.752L334.377 155.531L334.597 155.752C335.477 156.636 336.797 157.299 338.117 158.183C341.637 160.172 348.016 159.951 348.016 159.951C354.396 159.73 356.596 156.857 357.036 155.089C357.036 154.647 357.256 154.205 357.256 153.763C358.136 155.531 359.016 156.636 360.116 157.741C364.075 160.835 370.015 161.277 375.955 161.277C382.774 161.277 388.934 158.183 391.353 156.415C399.713 150.227 400.373 142.05 399.713 138.513Z" fill="#4A4A49"/>
<path d="M237.583 105.805C234.064 100.501 229.224 96.744 222.404 93.8709C219.105 92.5449 214.925 91.8819 209.865 91.6609C209.865 91.6609 203.926 91.4399 200.626 91.2188C198.646 90.9978 197.326 90.3348 196.226 89.6718C195.786 89.2298 195.566 89.0088 195.126 89.0088C194.686 89.0088 194.686 90.1138 194.686 90.7768C194.246 96.744 192.706 116.634 192.266 121.497C192.046 126.138 192.046 133.21 191.826 139.619C191.826 140.061 191.826 140.282 192.046 140.724C192.266 140.945 192.706 141.387 192.926 141.387L200.186 145.586C200.406 145.807 200.626 145.807 200.846 145.807C201.066 145.807 201.066 145.586 201.066 144.923V143.376V142.492V131.663V130.116C201.066 127.464 201.286 124.149 201.286 121.276C201.506 116.855 201.946 112.214 202.166 107.794C202.166 106.689 202.386 104.7 203.266 103.595C204.366 101.827 205.686 101.385 207.005 101.164C208.325 100.943 212.065 100.501 217.785 102.711C221.964 104.479 225.924 107.131 227.904 110.225C229.444 112.656 230.764 115.75 231.424 118.182C232.084 121.939 232.304 130.116 228.784 136.967C225.704 142.713 220.865 146.691 213.825 148.459C211.625 148.901 208.545 149.343 204.586 149.564C200.846 149.564 185.887 147.796 182.587 140.061C182.587 139.84 182.367 139.398 182.147 139.398C181.707 139.398 181.707 139.84 181.487 140.503C181.047 142.492 180.607 144.702 179.947 145.586C179.067 146.912 177.967 150.227 166.748 150.006C158.829 149.785 155.529 149.785 152.449 148.017C151.129 147.133 150.909 145.586 150.909 144.26C150.909 143.818 151.789 128.79 151.789 127.022C151.789 126.359 152.009 125.917 151.569 125.917C151.349 125.917 150.909 126.138 150.689 126.359C149.149 127.685 146.73 129.674 145.19 131C144.53 131.442 144.31 131.663 144.09 132.105C143.87 132.547 143.87 132.989 143.87 133.431C143.65 138.293 143.21 148.238 143.21 148.238C141.67 149.343 138.59 149.785 137.05 150.006C135.51 150.006 130.011 150.227 126.491 147.796C125.391 147.133 124.511 146.028 124.291 144.923C124.071 143.376 124.291 142.05 124.951 140.503C126.051 138.735 130.891 131.663 130.891 131.663C131.331 130.779 131.331 130.558 131.331 130.337C131.331 129.895 130.891 129.674 130.671 129.232C130.011 128.79 128.911 128.127 127.591 127.243C127.591 127.243 126.711 126.58 126.491 126.58C126.051 126.359 125.611 126.359 125.391 126.801C123.851 128.127 118.791 136.083 119.231 144.702C119.451 149.785 121.431 153.321 123.631 155.531C126.051 157.742 130.011 160.173 136.83 159.731C140.13 159.51 142.99 158.405 145.41 156.194L145.63 155.973L145.85 156.194C146.51 156.858 146.949 157.3 147.829 157.742C152.449 160.173 162.568 160.394 168.068 160.173C179.727 159.952 183.247 156.416 184.347 153.321C185.007 154.647 185.887 155.531 186.767 156.194C191.167 160.173 200.186 160.836 205.246 160.836C212.725 160.836 219.985 159.952 224.164 158.184C228.124 156.637 232.964 154.205 237.363 148.459C241.763 142.713 244.183 134.757 243.963 125.696C243.743 117.961 242.203 112.656 237.583 105.805Z" fill="#4A4A49"/>
<path d="M54.9963 145.585C54.7763 145.364 50.3766 143.154 48.1768 140.723C46.6369 138.955 45.317 137.187 48.1768 134.535C49.0567 133.872 50.3766 133.209 52.3565 132.325C53.2364 136.966 54.9963 145.585 54.9963 145.585ZM74.575 139.618C75.8949 137.85 77.6548 134.314 75.2349 129.01C72.8151 123.706 67.5355 120.833 60.056 121.496C58.2961 113.982 53.0164 91.6601 52.7964 91.4391C52.7964 90.997 52.3565 90.113 51.6965 89.671C51.0366 89.229 50.1566 89.229 49.4967 89.229C48.6167 89.229 46.1969 89.45 45.097 90.555C43.7771 91.6601 43.1171 92.7651 42.4571 94.5331C41.1372 97.6272 38.7174 102.71 35.8576 109.12C33.8777 113.319 31.6779 118.181 29.038 123.706C25.9583 130.336 17.8188 146.248 16.9389 147.796C16.2789 148.901 15.6189 149.785 14.519 150.448C13.4191 151.111 10.5593 151.332 9.01939 150.669C6.59956 149.564 5.71962 148.238 5.05966 146.248C4.61969 145.143 4.83967 143.596 4.83967 143.375C5.05966 140.502 7.03953 138.513 7.25951 138.292C7.4795 138.071 7.4795 138.071 7.4795 137.85C7.4795 137.629 7.25951 137.629 7.03953 137.85C3.95973 138.734 0.43997 142.049 0 146.248C0 146.469 0 146.911 0 147.132C0 151.111 2.63982 155.531 6.59956 157.741C8.79941 159.067 17.1588 162.382 22.2185 157.078C23.9784 155.31 25.7383 152.216 28.1581 147.132C30.5779 142.27 36.5175 130.115 37.3975 127.905C38.4974 125.916 43.997 113.982 46.8568 108.235L47.2968 107.351L50.5966 123.485C43.5571 126.137 40.6973 130.115 39.3773 135.64C37.8375 141.607 43.5571 150.448 57.8561 157.078C59.176 157.741 65.3356 159.951 66.4355 160.172C68.6354 160.393 68.8554 159.509 68.8554 158.846C69.0754 158.183 68.6354 156.194 68.1954 154.868C67.7554 153.1 63.5757 136.966 62.0358 130.115C66.2155 129.894 69.5153 130.557 71.4952 133.209C73.2551 135.419 73.4751 137.629 73.4751 138.955C73.4751 139.839 73.4751 139.839 73.4751 139.839C73.915 140.281 74.135 140.06 74.575 139.618Z" fill="#4A4A49"/>
<path d="M130.67 119.287C131.55 118.403 133.31 116.414 133.97 115.53C134.19 115.309 134.19 115.088 134.41 115.088C134.63 115.088 134.63 115.309 135.07 115.309C136.17 116.193 138.15 117.74 138.81 118.403C139.25 118.845 140.79 120.393 141.01 123.266C141.01 123.929 141.01 124.592 140.79 125.255C140.35 127.465 139.47 129.454 138.81 130.338C138.81 130.559 138.59 130.78 138.37 130.78C138.15 130.78 138.15 130.338 138.15 130.117C138.15 129.896 138.15 129.675 138.15 129.454C137.93 128.128 137.71 126.36 136.39 124.813C135.07 123.487 132.43 121.498 130.89 120.393C130.67 120.172 130.45 120.172 130.45 119.951C130.23 119.729 130.45 119.508 130.67 119.287Z" fill="#4A4A49"/>
<path d="M298.52 137.41C298.74 137.189 298.74 136.968 298.52 136.747C297.64 135.863 295 133.211 293.9 132.327C293.68 132.106 293.46 132.106 293.24 132.327C292.36 133.211 289.5 136.084 288.62 136.968C288.4 137.189 288.4 137.41 288.62 137.631C289.5 138.515 292.14 141.167 293.24 142.272C293.46 142.493 293.68 142.493 293.9 142.272C295 140.946 297.64 138.294 298.52 137.41Z" fill="#4A4A49"/>
<path d="M548.863 73.9803C545.563 70.4442 535.224 75.5274 528.624 83.0416C522.685 89.6717 519.165 99.396 519.165 99.396C520.705 99.175 531.044 94.0918 540.064 87.0197C543.583 84.1466 552.163 77.5164 548.863 73.9803ZM544.243 184.483C533.024 188.682 514.985 191.997 498.486 187.577C494.747 186.693 492.327 185.588 490.127 184.704C509.486 201.722 528.184 209.236 540.064 202.606C555.463 194.207 569.102 179.4 579.001 161.72C569.102 173.212 555.463 180.284 544.243 184.483ZM529.284 122.602C525.765 121.718 521.365 132.989 525.985 134.094C526.425 134.315 527.085 134.315 527.964 134.315C530.164 134.094 532.364 133.652 534.564 132.989C533.904 126.138 532.144 123.265 529.284 122.602ZM500.246 76.1904C505.306 78.8424 504.426 86.1356 506.406 92.3238C508.166 98.733 513.445 99.175 513.445 99.175C513.445 99.175 524.005 78.6214 514.985 62.046C505.966 45.4706 491.007 51.2167 487.267 52.9848C482.208 55.4158 462.849 68.0132 453.169 94.3128C443.49 120.392 457.349 129.453 465.929 130.779C474.508 132.326 487.707 123.486 488.147 119.065C488.367 116.634 486.607 115.308 483.967 114.645C481.328 113.982 474.508 115.529 470.108 110.225C464.609 103.595 474.068 89.2297 479.348 84.1466C484.407 78.8424 492.327 71.9913 500.246 76.1904ZM547.763 146.912C548.863 145.586 552.603 142.05 553.923 140.945C554.143 140.724 554.583 140.724 554.803 140.945C556.123 142.271 559.642 145.586 560.742 146.912C560.962 147.133 560.962 147.575 560.742 147.796C559.422 149.122 555.903 152.658 554.803 153.763C554.583 153.984 554.143 153.984 553.923 153.763C552.603 152.437 549.083 148.901 547.763 147.796C547.543 147.354 547.543 147.133 547.763 146.912ZM512.345 124.591C511.026 125.917 507.506 129.453 506.406 130.558C506.186 130.779 505.746 130.779 505.526 130.558C504.206 129.232 500.686 125.696 499.366 124.591C499.146 124.37 499.146 123.928 499.366 123.707C500.466 122.381 504.206 118.844 505.526 117.739C505.746 117.518 506.186 117.518 506.406 117.739C507.726 119.065 511.246 122.381 512.345 123.707C512.565 123.928 512.565 124.37 512.345 124.591ZM548.643 49.6697C547.323 50.9957 543.803 54.5318 542.703 55.6369C542.483 55.8579 542.043 55.8579 541.823 55.6369C540.504 54.3108 536.984 50.7747 535.664 49.6697C535.444 49.4487 535.444 49.0067 535.664 48.7857C536.764 47.4596 540.504 43.9236 541.823 42.8185C542.043 42.5975 542.483 42.5975 542.703 42.8185C544.023 44.1446 547.543 47.4596 548.643 48.7857C548.863 49.0067 548.863 49.4487 548.643 49.6697ZM541.164 174.538C565.802 165.477 573.501 151.995 579.001 142.713C590.66 122.823 591.1 100.501 590 94.0918V93.8708C589.34 88.3457 587.8 83.0416 586.7 83.0416C581.641 82.8205 574.601 119.286 570.642 139.619C570.202 141.608 569.982 143.818 568.882 145.807C568.002 147.575 567.342 148.238 566.682 148.901C566.022 149.785 564.922 150.448 565.142 148.901C574.381 99.617 580.321 73.3173 585.601 62.488C586.26 61.383 586.921 60.72 587.58 60.278C586.481 57.8469 585.381 55.6369 584.281 53.4268C555.243 0.827452 478.248 -12.4329 435.351 11.4357C416.652 21.823 418.412 71.1072 443.27 121.276C440.85 107.352 444.15 94.7549 450.97 80.3895C460.429 60.941 490.127 32.6523 512.565 41.4925C531.704 48.7857 524.445 79.2845 524.445 79.2845C524.445 79.2845 537.864 61.383 548.423 60.941C553.923 60.72 563.602 64.6981 552.163 83.7046C538.744 105.805 516.085 115.75 508.166 111.109C501.126 107.131 501.126 99.175 500.686 96.9649C500.246 94.7549 499.146 87.9037 492.547 87.2407C486.167 86.7987 474.508 95.8599 475.828 99.838C477.148 103.374 485.727 100.501 489.687 102.932C493.647 105.363 495.187 109.12 493.647 115.75C489.467 135.42 473.188 147.133 461.969 144.26C459.329 143.597 456.689 142.492 454.269 141.166C457.789 146.691 461.309 151.995 465.049 157.078L468.348 151.332C468.348 151.111 468.568 151.111 468.788 151.111C475.388 151.332 483.307 148.68 487.047 145.807C484.187 155.31 480.228 161.499 467.249 160.173C467.469 160.394 467.469 160.615 467.688 160.615C470.108 161.941 472.968 163.046 476.268 164.372C495.627 171.886 513.005 161.941 516.085 159.952C518.505 158.404 528.404 152.437 532.584 144.702C531.044 144.923 529.284 145.144 527.524 144.923C526.205 144.923 525.105 144.702 524.665 144.702C522.685 144.702 512.565 142.934 519.165 127.464C520.265 124.812 524.885 113.982 531.264 116.413C533.244 117.076 537.864 118.844 539.404 126.359C539.624 127.685 539.844 128.79 540.064 130.116C546.003 126.359 550.843 120.392 551.943 113.761C553.043 107.352 551.723 104.258 549.743 103.816C547.323 103.374 542.923 115.529 542.263 115.087C541.604 114.645 542.263 113.098 542.703 111.33C546.883 97.1859 553.043 91.8818 555.023 91.8818C557.002 91.8818 559.862 98.2909 559.862 106.91C559.862 120.613 551.943 136.304 539.404 142.271C538.304 148.68 535.884 154.205 532.804 157.962C524.445 168.571 506.406 179.621 483.527 174.538C481.548 174.096 479.788 173.654 478.028 172.991C480.008 175.201 481.988 177.19 484.187 179.179C485.067 179.4 486.387 179.621 489.247 180.063C499.146 181.831 519.825 182.273 541.164 174.538Z" fill="#C31728"/>
</svg>
