<svg id="Ebene_1" data-name="Ebene 1" xmlns="http://www.w3.org/2000/svg" viewBox="0 0 369.5082 53"><path d="M343.5,20.8c-8-2.2-10-3.4-10-6,0-2.9,2.7-4.5,7.7-4.5a24,24,0,0,1,13.2,4l.4.3,5.9-9-.3-.3c-.2-.2-5.8-5.3-19.2-5.3C330,0,322.9,4.6,321.6,12.4A26.4,26.4,0,0,0,298.2.1c-12.1,0-21.4,6.4-25.1,16.4C269.3,6.4,259.7.2,246.8.2H225.9V41.7L204.6.2h-2.4L183.4,36.9a11.8,11.8,0,0,0-8.1-11v-.5a11.3,11.3,0,0,0,6.6-10.7c0-9.3-7-14.6-19.3-14.6H137.2V51.2L124.8,34.8v-.3a17,17,0,0,0,9.8-16.1C134.6,6.9,126.5.1,112.9.1h-24V41.7L67.5.2H65.1L46.2,36.9a11.8,11.8,0,0,0-8.1-11v-.5a11.3,11.3,0,0,0,6.6-10.7C44.7,5.4,37.7.1,25.4.1H0V52.9H26.1c5.6,0,10.2-1.1,13.6-3.3L38,52.9H51l3.3-7.1H78.5l3.4,7.1h18.6V37.2H113L124.5,53h38.7c5.6,0,10.2-1.1,13.6-3.3L175.1,53h13l3.3-7.1h24.2L219,53h28c12.9,0,22.5-6.3,26.3-16.4,3.7,10,13,16.4,25.1,16.4,15.8,0,26.9-10.9,26.9-26.5a16.2006,16.2006,0,0,0-.1-2.2c2.8,2.7,7.3,4.7,13.7,6.5,8.9,2.5,10.5,4.1,10.5,6.9,0,3.3-2.8,5.1-8,5.1A26.0009,26.0009,0,0,1,328.5,39a29.4,29.4,0,0,1-5.5,9c3,1.9,9.1,4.9,18.6,4.9,12.6,0,20.1-6,20.1-16.2C361.6,28.9,356.3,24.2,343.5,20.8ZM11.4,10.3H25.2c4.8,0,7.5,2.1,7.5,5.8s-2.9,5.8-7.5,5.8H11.4Zm15,32.6h-15V30.6H26.2c4.6,0,7.9,2.5,7.9,6.1S31,42.9,26.4,42.9Zm31.8-5.8,8-17.1h.1L74,36.8l.2.4h-16Zm54.5-9.7H100.3V10.3h12.1c6.7,0,10.3,3,10.3,8.6C122.7,25.9,117.3,27.4,112.7,27.4Zm35.8-17.1h13.8c4.8,0,7.5,2.1,7.5,5.8s-2.9,5.8-7.5,5.8H148.6V10.3Zm15,32.6h-15V30.6h14.8c4.6,0,7.9,2.5,7.9,6.1S168.1,42.9,163.5,42.9Zm31.8-5.8,8-17.1h.1l7.7,16.7.2.4Zm50.8,5.8h-8.8V10.3h8.8c10.5,0,17,6.2,17,16.3S256.6,42.9,246.1,42.9Zm60.5-5.7a33.3978,33.3978,0,0,0-6.2-.6h-.8a74.4883,74.4883,0,0,1-1.2,9.9l-.3,1.3-.3-1.3c0-.1-.6-3.2-1.1-9.6a18.8014,18.8014,0,0,0-6.5,1.8l-.4.2v-.4c-.7-11.7-11.3-25.3-11.4-25.5l-.5-.6.7.2c6.9,1.7,9.4,4.7,9.5,4.8l.7.8-1-.4a4.5992,4.5992,0,0,0-1.9-.4h-.5c6.2,8.4,7,15.4,7.1,16.9a24.287,24.287,0,0,1,3.8-.3h.1q-.3284-6.6448-.3-13.3v-.3l.3.1a6.5,6.5,0,0,0,1.6.2,3.6006,3.6006,0,0,0,2.4-.7,32.2915,32.2915,0,0,1-2.4-4.5,12.6015,12.6015,0,0,1-3.8,4.2l-1.1.7.8-1.1a28.6994,28.6994,0,0,0,3.9-11.8l.1-1.3.4,1.2A40.8,40.8,0,0,0,305,19.8l.1.1-.1.2c-.1.1-1.8,3.5-5,4,0,1,0,5.2-.3,10.1a17.2,17.2,0,0,1,7,2.4l1,.7ZM318.1,13a115.7024,115.7024,0,0,0-11.4,19.3l-.5,1V32.2a29,29,0,0,1,4.7-14.8h-.4a6.8,6.8,0,0,0-2,.4l-1,.4.7-.8c.1-.1,2.9-3.2,9.5-4.8l.7-.2Zm45.4-6.8a3.5,3.5,0,0,1,1.7-1.7,2.4993,2.4993,0,0,1,1.2-.2,4.9984,4.9984,0,0,1,1.2.2,3.5,3.5,0,0,1,1.7,1.7,2.5,2.5,0,0,1,.2,1.2,4.3013,4.3013,0,0,1-.2,1.2,3.5,3.5,0,0,1-1.7,1.7,2.4989,2.4989,0,0,1-1.2.2,5,5,0,0,1-1.2-.2,3.5,3.5,0,0,1-1.7-1.7,2.4989,2.4989,0,0,1-.2-1.2A4.9992,4.9992,0,0,1,363.5,6.2Zm.5,2.3a2.2,2.2,0,0,0,.5.8,5.5011,5.5011,0,0,0,.8.6,3.5017,3.5017,0,0,0,1,.2,3.0012,3.0012,0,0,0,1-.2,1.6,1.6,0,0,0,.8-.6,2.2014,2.2014,0,0,0,.5-.8,3.6022,3.6022,0,0,0,.2-1.1,3.0012,3.0012,0,0,0-.2-1,2.2014,2.2014,0,0,0-.5-.8,5.5011,5.5011,0,0,0-.8-.6,2.6,2.6,0,0,0-2,0,1.6,1.6,0,0,0-.8.6,2.2,2.2,0,0,0-.5.8,3.5017,3.5017,0,0,0-.2,1A4.2976,4.2976,0,0,0,364,8.5Zm2.6-2.9a1.7,1.7,0,0,1,1,.3,1,1,0,0,1,.3.8.8.8,0,0,1-.3.7c-.2.2-.4.2-.7.3l1,1.6h-.6l-1-1.6h-.6V9.3h-.6V5.6Zm-.3,1.6h.4a.4.4,0,0,0,.3-.1.2.2,0,0,0,.2-.2h0a.4.4,0,0,0,.1-.3.4.4,0,0,0-.1-.3l-.2-.2h-1.2V7.3l.5-.1Z" transform="translate(0 0)"/></svg>