<svg xmlns="http://www.w3.org/2000/svg" viewBox="0 0 572.4238 109.273"><defs><style>.cls-1,.cls-2{fill:#1d1d1b;}.cls-2,.cls-3{fill-rule:evenodd;}.cls-3{fill:#fff;}</style></defs><g id="Ebene_1_Kopie" data-name="Ebene 1 Kopie"><path class="cls-1" d="M169.4906,51.3805c2.9226,0,6.767,1.2658,6.767,5.3659,0,2.2009-1.3662,3.9182-3.9079,4.672v.0606a5.2179,5.2179,0,0,1,4.8608,5.1549c0,4.1-3.4624,6.0892-8.3555,6.0892h-8.26V51.3805Zm-1.1119,8.6816c2.4144,0,3.8757-1.0549,3.8757-2.683,0-1.8682-1.4613-2.7426-4.1935-2.7426h-3.4627v5.4256Zm.0316,9.405c3.1772,0,4.7973-1.0246,4.7973-3.1344,0-2.1705-1.5248-3.0147-4.5748-3.0147h-4.0346v6.1491Z" transform="translate(-7.7388 -7.4153)"/><path class="cls-1" d="M221.5,51.3805V54.817H210.6029v5.2451h10.3249v3.4367H210.6029v5.7879h11.4689v3.4364H206.6V51.3805Z" transform="translate(-7.7388 -7.4153)"/><path class="cls-1" d="M265.3753,53.0389l-2.9233,2.9233a4.806,4.806,0,0,0-3.9392-1.6878c-2.2557,0-3.6854,1.0852-3.6854,2.7438,0,1.4462,1.2709,2.23,3.495,2.8938,3.59,1.0548,7.18,2.14,7.18,6.5405s-3.6533,6.8132-8.07,6.8132c-3.1765,0-5.7818-.9047-7.529-2.8938l3.0177-2.7733a5.3479,5.3479,0,0,0,4.4476,2.2307c2.1606,0,3.94-1.2063,3.94-2.9245,0-1.5975-1.1438-2.4414-4.035-3.2855-4.0345-1.1756-6.64-2.4718-6.64-6.33s3.399-6.4511,8.2918-6.4511A9.6175,9.6175,0,0,1,265.3753,53.0389Z" transform="translate(-7.7388 -7.4153)"/><path class="cls-1" d="M310.5851,51.3805V54.817h-6.8942V72.7231H299.688V54.817h-6.8941V51.3805Z" transform="translate(-7.7388 -7.4153)"/><path class="cls-1" d="M352.6816,53.0389l-2.9231,2.9233a4.806,4.806,0,0,0-3.9394-1.6878c-2.2557,0-3.6854,1.0852-3.6854,2.7438,0,1.4462,1.2709,2.23,3.4952,2.8938,3.59,1.0548,7.1794,2.14,7.1794,6.5405s-3.6533,6.8132-8.0693,6.8132c-3.1767,0-5.782-.9047-7.5292-2.8938l3.0179-2.7733a5.3474,5.3474,0,0,0,4.4476,2.2307c2.16,0,3.94-1.2063,3.94-2.9245,0-1.5975-1.1437-2.4414-4.0348-3.2855-4.0345-1.1756-6.64-2.4718-6.64-6.33s3.399-6.4511,8.292-6.4511A9.6173,9.6173,0,0,1,352.6816,53.0389Z" transform="translate(-7.7388 -7.4153)"/><path class="cls-1" d="M397.2879,51.3805V54.817H386.3908v5.2451h10.325v3.4367h-10.325v5.7879H397.86v3.4364H382.3879V51.3805Z" transform="translate(-7.7388 -7.4153)"/><path class="cls-1" d="M445.77,54.2147l-3.1142,2.1695a6.3139,6.3139,0,0,0-4.7335-2.11,7.4418,7.4418,0,0,0-7.72,7.6267c0,4.4014,2.9859,7.9282,7.72,7.9282a6.439,6.439,0,0,0,5.0523-2.5928l3.3031,2.2306a10.2064,10.2064,0,0,1-8.3863,3.7986c-6.9263,0-11.8821-4.4915-11.8821-11.123s4.7015-11.3048,11.8821-11.3048A10.149,10.149,0,0,1,445.77,54.2147Z" transform="translate(-7.7388 -7.4153)"/><path class="cls-1" d="M482.339,51.3805c4.3212,0,8.26,1.4474,8.26,6.1194a5.5848,5.5848,0,0,1-5.21,5.7879l5.9727,9.4353h-4.8289l-5.21-9.0439H478.4v9.0439h-4.0024V51.3805Zm-.6348,9.0437c2.2877,0,4.7014-.3013,4.7014-2.9547,0-2.4416-2.3186-2.833-4.416-2.833H478.4v5.7877Z" transform="translate(-7.7388 -7.4153)"/><path class="cls-1" d="M534.7294,51.3805V54.817H523.8318v5.2451h10.3257v3.4367H523.8318v5.7879h11.4694v3.4364H519.8294V51.3805Z" transform="translate(-7.7388 -7.4153)"/><path class="cls-1" d="M580.1626,51.3805V54.817h-6.8942V72.7231H569.265V54.817h-6.8941V51.3805Z" transform="translate(-7.7388 -7.4153)"/><path class="cls-2" d="M62.8614,7.4153C32.418,7.4153,7.7388,31.877,7.7388,62.0518s24.6792,54.6366,55.1226,54.6366S117.984,92.2268,117.984,62.0518,93.3048,7.4153,62.8614,7.4153Z" transform="translate(-7.7388 -7.4153)"/><path class="cls-3" d="M37.1375,62.0518A13.8,13.8,0,0,1,47.9416,48.6253v4.2313A9.7051,9.7051,0,1,0,59.3407,67.1513h4.5941a13.9119,13.9119,0,0,1-26.7973-5.1ZM62.8614,87.5489H51.0284V78.88a20.3466,20.3466,0,0,0,4.1157-.4183v5.0079h7.7173a9.6893,9.6893,0,1,0,0-19.3778H55.1441v3.6706a9.7937,9.7937,0,0,1-4.0832.8851l-.0325,0V36.5548h11.833a13.8943,13.8943,0,0,1,12.8969,8.6461q-.5286-.0273-1.0639-.0281a20.4,20.4,0,0,0-3.3809.281,9.7867,9.7867,0,0,0-8.4521-4.8194H55.1441V60.0122h7.7173a9.7892,9.7892,0,0,0,7.6926-3.71,9.7953,9.7953,0,0,1,4.1079-.8964,9.9225,9.9225,0,0,1,1.0881.06,13.851,13.851,0,0,1-5.6107,6.5864,13.7469,13.7469,0,0,1-7.2779,25.4971ZM79.8392,74.8444V70.291a9.6736,9.6736,0,0,0-5.1448-17.928,9.7876,9.7876,0,0,0-8.3125,4.5894H61.788a13.8663,13.8663,0,1,1,18.0512,17.892Z" transform="translate(-7.7388 -7.4153)"/></g></svg>