<?xml version="1.0" encoding="UTF-8" standalone="no"?>
<!-- Created with Inkscape (http://www.inkscape.org/) -->

<svg
   xmlns:dc="http://purl.org/dc/elements/1.1/"
   xmlns:cc="http://creativecommons.org/ns#"
   xmlns:rdf="http://www.w3.org/1999/02/22-rdf-syntax-ns#"
   xmlns:svg="http://www.w3.org/2000/svg"
   xmlns="http://www.w3.org/2000/svg"
   version="1.1"
   width="770.11749"
   height="291.19125"
   id="svg2"
   xml:space="preserve"><metadata
     id="metadata8"><rdf:RDF><cc:Work
         rdf:about=""><dc:format>image/svg+xml</dc:format><dc:type
           rdf:resource="http://purl.org/dc/dcmitype/StillImage" /><dc:title></dc:title></cc:Work></rdf:RDF></metadata><defs
     id="defs6"><clipPath
       id="clipPath16"><path
         d="m 0,232.92 616.08,0 L 616.08,0 0,0 0,232.92 z"
         id="path18" /></clipPath></defs><g
     transform="matrix(1.25,0,0,-1.25,0,291.19125)"
     id="g10"><g
       id="g12"><g
         clip-path="url(#clipPath16)"
         id="g14"><path
           d="m 0,0 616.08,0 0,232.92 L 0,232.92 0,0 z"
           id="path20"
           style="fill:#6f757a;fill-opacity:1;fill-rule:nonzero;stroke:none" /></g></g><path
       d="m 240.028,96.557 c -26.573,0 -38.195,19.814 -37.902,44.952 0.298,25.252 15.129,45.146 40.77,45.146 11.118,0 18.695,-3.199 21.145,-4.331 l -3.206,-11.308 c -3.393,1.509 -9.834,3.385 -15.681,3.39 -11.2,0 -24.201,-6.557 -24.352,-32.199 -0.137,-23.382 9.047,-33.396 22.993,-33.396 6.788,0 13.201,2.446 15.643,3.77 l 3.588,-10.369 c -3.771,-1.885 -11.497,-5.655 -22.998,-5.655"
       id="path22"
       style="fill:#fbab18;fill-opacity:1;fill-rule:nonzero;stroke:none" /><path
       d="m 292.525,96.743 c -16.775,0 -29.601,9.43 -29.601,33.932 0,24.505 12.826,33.926 29.601,33.932 16.773,0 29.587,-9.427 29.593,-33.932 -0.006,-24.502 -12.82,-33.924 -29.593,-33.932 m 0.183,58.065 c -8.855,0 -13.003,-7.164 -13.003,-24.133 0,-16.969 3.957,-23.934 12.814,-23.94 8.868,0 12.821,6.979 12.821,23.94 0,16.964 -3.771,24.133 -12.632,24.133"
       id="path24"
       style="fill:#fbab18;fill-opacity:1;fill-rule:nonzero;stroke:none" /><path
       d="m 345.563,163.513 1.049,-7.316 c 5.192,6.902 11.006,8.649 18.213,8.649 16.276,0 19.076,-12.543 19.076,-21.882 l 0,-45.36 -15.74,0 0,40.022 c 0,5.873 0.666,16.548 -9.342,16.548 -11.474,0 -12.543,-15.613 -12.543,-21.217 l 0,-35.353 -15.74,0 0,65.909 15.027,0"
       id="path26"
       style="fill:#fbab18;fill-opacity:1;fill-rule:nonzero;stroke:none" /><path
       d="m 448.558,185.639 0,-87.98 -14.01,0 -0.529,11.336 c -3.202,-5.6 -8.413,-12.67 -18.68,-12.67 -15.344,0 -22.684,15.873 -22.684,34.29 0,24.012 12.143,34.287 23.614,34.287 11.209,0 15.341,-8.542 16.544,-11.209 l 0,31.946 15.745,0 m -27.752,-78.642 c 12.007,0 12.007,20.009 12.007,23.882 0,8.006 -0.927,23.348 -11.599,23.348 -11.748,0 -11.877,-19.346 -11.877,-23.348 0,-10.009 1.465,-23.882 11.469,-23.882"
       id="path28"
       style="fill:#fbab18;fill-opacity:1;fill-rule:nonzero;stroke:none" /><path
       d="m 486.69,96.724 c -16.773,0 -29.597,9.427 -29.597,33.925 0.011,24.508 12.824,33.924 29.597,33.924 16.776,0 29.409,-9.416 29.409,-33.924 0,-24.498 -12.633,-33.925 -29.409,-33.925 m 0,58.057 c -8.859,0 -13.005,-7.172 -13.005,-24.127 0,-16.968 4.146,-23.946 13.005,-23.946 8.856,0 12.817,6.978 12.825,23.941 -0.008,16.96 -3.957,24.126 -12.825,24.132"
       id="path30"
       style="fill:#fbab18;fill-opacity:1;fill-rule:nonzero;stroke:none" /><path
       d="m 538.485,163.536 0.393,-16.407 c 5.207,16.143 13.48,17.478 16.551,17.478 2.535,0 4.935,-0.668 6.271,-1.071 L 558.892,149.8 c -1.198,0.261 -3.065,0.798 -5.061,0.798 -4.408,0 -7.744,-2.67 -9.209,-4.803 -3.203,-4.407 -4.541,-9.34 -4.541,-24.553 l 0,-23.612 -15.74,0 0,65.906 14.144,0"
       id="path32"
       style="fill:#fbab18;fill-opacity:1;fill-rule:nonzero;stroke:none" /><path
       d="m 105.888,93.368 c -26.63,0 -46.696,21.562 -46.696,48.269 0,26.704 20.066,48.481 46.696,48.481 26.63,0 46.693,-21.777 46.693,-48.481 0,-26.707 -20.063,-48.269 -46.693,-48.269 z m 0,101.635 c -29.367,0 -51.491,-23.898 -51.491,-53.264 0,-29.361 22.124,-53.074 51.491,-53.074 29.364,0 51.489,23.713 51.489,53.074 0,29.366 -22.125,53.264 -51.489,53.264"
       id="path34"
       style="fill:#fbab18;fill-opacity:1;fill-rule:nonzero;stroke:none" /><path
       d="m 102.873,150.785 c 1.506,0 25.943,0 25.943,0 l -13.071,-10.542 4.81,-4.628 27.265,21.197 -40.288,0.004 c -5.405,0 -7.394,-0.114 -8.668,-0.494 -1.225,-0.369 -2.818,-1.143 -3.675,-3.021 -0.629,-1.38 -0.661,-3.851 0.233,-5.386 1.237,-2.127 3.321,-4.006 8.684,-9.66 -5.305,3.261 -19.459,12.524 -19.459,12.524 0,0 3.144,-0.003 3.934,-0.003 0,1.508 -0.006,6.039 -0.006,6.039 l -24.985,0 73.542,-47.832 0,8.414 -34.644,31.443 c -1.363,1.26 -0.915,1.945 0.385,1.945"
       id="path36"
       style="fill:#fbab18;fill-opacity:1;fill-rule:nonzero;stroke:none" /><path
       d="m 226.371,48.339 -4.639,13.289 -4.592,-13.289 -3.88,0 -8.293,20.824 5.841,0 4.503,-12.797 4.415,12.397 4.059,0 4.324,-12.532 4.594,12.932 5.84,0 -8.293,-20.824 -3.879,0"
       id="path38"
       style="fill:#ffffff;fill-opacity:1;fill-rule:nonzero;stroke:none" /><path
       d="m 261.024,48.339 -4.638,13.289 -4.594,-13.289 -3.878,0 -8.294,20.824 5.841,0 4.504,-12.797 4.414,12.397 4.058,0 4.325,-12.532 4.593,12.932 5.842,0 -8.294,-20.824 -3.879,0"
       id="path40"
       style="fill:#ffffff;fill-opacity:1;fill-rule:nonzero;stroke:none" /><path
       d="m 295.676,48.339 -4.637,13.289 -4.593,-13.289 -3.879,0 -8.294,20.824 5.841,0 4.504,-12.797 4.415,12.397 4.057,0 4.325,-12.532 4.593,12.932 5.841,0 -8.294,-20.824 -3.879,0"
       id="path42"
       style="fill:#ffffff;fill-opacity:1;fill-rule:nonzero;stroke:none" /><path
       d="m 310.995,47.849 c -1.963,0 -3.523,1.56 -3.523,3.523 0,2.006 1.56,3.568 3.523,3.568 2.006,0 3.567,-1.562 3.567,-3.568 0,-1.963 -1.561,-3.523 -3.567,-3.523"
       id="path44"
       style="fill:#ffffff;fill-opacity:1;fill-rule:nonzero;stroke:none" /><path
       d="m 336.843,51.862 c -2.006,-2.453 -5.127,-4.013 -8.606,-4.013 -6.107,0 -11.101,4.861 -11.101,10.88 0,6.02 4.994,10.924 11.101,10.924 3.479,0 6.6,-1.603 8.606,-4.056 l -4.012,-3.301 c -1.115,1.338 -2.721,2.32 -4.594,2.32 -3.164,0 -5.752,-2.676 -5.752,-5.932 0,-3.253 2.588,-5.884 5.709,-5.884 1.873,0 3.567,0.98 4.592,2.228 l 4.057,-3.166"
       id="path46"
       style="fill:#ffffff;fill-opacity:1;fill-rule:nonzero;stroke:none" /><path
       d="m 354.909,58.684 c 0,3.256 -2.541,5.932 -5.707,5.932 -3.166,0 -5.752,-2.676 -5.752,-5.932 0,-3.253 2.586,-5.884 5.752,-5.884 3.166,0 5.707,2.631 5.707,5.884 z m -5.707,-10.835 c -6.109,0 -11.103,4.861 -11.103,10.88 0,6.02 4.994,10.924 11.103,10.924 6.11,0 11.059,-4.904 11.059,-10.924 0,-6.019 -4.949,-10.88 -11.059,-10.88"
       id="path48"
       style="fill:#ffffff;fill-opacity:1;fill-rule:nonzero;stroke:none" /><path
       d="m 378.024,48.339 0,11.283 c 0,3.521 -1.603,4.994 -4.056,4.994 -2.588,0 -4.504,-1.695 -4.504,-6.154 l 0,-10.123 -5.442,0 0,20.824 5.442,0 0,-3.076 c 1.426,2.453 3.746,3.566 6.467,3.566 4.681,0 7.535,-3.121 7.535,-9.051 l 0,-12.263 -5.442,0"
       id="path50"
       style="fill:#ffffff;fill-opacity:1;fill-rule:nonzero;stroke:none" /><path
       d="m 403.78,58.684 c 0,3.524 -2.586,5.932 -5.752,5.932 -3.076,0 -5.572,-2.498 -5.572,-5.887 0,-3.345 2.406,-5.929 5.617,-5.929 3.301,0 5.707,2.496 5.707,5.884 z m -0.088,-10.345 0,2.765 c -1.56,-2.23 -3.836,-3.255 -6.332,-3.255 -5.216,0 -10.256,4.414 -10.256,10.925 0,6.555 5.172,10.879 10.167,10.879 2.453,0 4.726,-1.023 6.421,-3.164 l 0,12.574 5.44,0 0,-30.724 -5.44,0"
       id="path52"
       style="fill:#ffffff;fill-opacity:1;fill-rule:nonzero;stroke:none" /><path
       d="m 429.708,58.684 c 0,3.256 -2.541,5.932 -5.707,5.932 -3.166,0 -5.752,-2.676 -5.752,-5.932 0,-3.253 2.586,-5.884 5.752,-5.884 3.166,0 5.707,2.631 5.707,5.884 z m -5.707,-10.835 c -6.109,0 -11.104,4.861 -11.104,10.88 0,6.02 4.995,10.924 11.104,10.924 6.109,0 11.059,-4.904 11.059,-10.924 0,-6.019 -4.95,-10.88 -11.059,-10.88"
       id="path54"
       style="fill:#ffffff;fill-opacity:1;fill-rule:nonzero;stroke:none" /><path
       d="m 438.821,48.339 0,20.824 5.442,0 0,-3.477 0.09,0 c 1.335,2.897 2.941,3.967 5.216,3.967 1.426,0 2.674,-0.4 3.434,-0.89 l -1.07,-4.862 c -0.76,0.49 -1.606,0.715 -2.586,0.715 -3.614,0 -5.084,-3.121 -5.084,-8.072 l 0,-8.205 -5.442,0"
       id="path56"
       style="fill:#ffffff;fill-opacity:1;fill-rule:nonzero;stroke:none" /><path
       d="m 455.29,47.849 c -1.961,0 -3.521,1.56 -3.521,3.523 0,2.006 1.56,3.568 3.521,3.568 2.006,0 3.568,-1.562 3.568,-3.568 0,-1.963 -1.562,-3.523 -3.568,-3.523"
       id="path58"
       style="fill:#ffffff;fill-opacity:1;fill-rule:nonzero;stroke:none" /><path
       d="m 481.14,51.862 c -2.006,-2.453 -5.129,-4.013 -8.606,-4.013 -6.109,0 -11.103,4.861 -11.103,10.88 0,6.02 4.994,10.924 11.103,10.924 3.477,0 6.6,-1.603 8.606,-4.056 l -4.014,-3.301 c -1.115,1.338 -2.719,2.32 -4.592,2.32 -3.168,0 -5.752,-2.676 -5.752,-5.932 0,-3.253 2.584,-5.884 5.707,-5.884 1.871,0 3.567,0.98 4.592,2.228 l 4.059,-3.166"
       id="path60"
       style="fill:#ffffff;fill-opacity:1;fill-rule:nonzero;stroke:none" /><path
       d="m 499.204,58.684 c 0,3.256 -2.541,5.932 -5.707,5.932 -3.166,0 -5.752,-2.676 -5.752,-5.932 0,-3.253 2.586,-5.884 5.752,-5.884 3.166,0 5.707,2.631 5.707,5.884 z m -5.707,-10.835 c -6.109,0 -11.103,4.861 -11.103,10.88 0,6.02 4.994,10.924 11.103,10.924 6.107,0 11.059,-4.904 11.059,-10.924 0,-6.019 -4.952,-10.88 -11.059,-10.88"
       id="path62"
       style="fill:#ffffff;fill-opacity:1;fill-rule:nonzero;stroke:none" /><path
       d="m 535.163,48.339 0,11.236 c 0,3.524 -1.471,5.041 -3.746,5.041 -2.318,0 -4.191,-1.56 -4.191,-5.351 l 0,-10.926 -5.53,0 0,11.193 c 0,3.524 -1.383,5.172 -3.701,5.172 -2.363,0 -4.236,-1.738 -4.236,-5.484 l 0,-10.881 -5.44,0 0,20.824 5.44,0 0,-3.076 c 1.383,2.23 3.388,3.566 6.199,3.566 2.809,0 5.26,-1.336 6.643,-4.101 1.785,3.211 4.281,4.101 6.824,4.101 4.949,0 7.178,-3.388 7.178,-9.765 l 0,-11.549 -5.44,0"
       id="path64"
       style="fill:#ffffff;fill-opacity:1;fill-rule:nonzero;stroke:none" /></g></svg>