<svg id="Layer_1" data-name="Layer 1" xmlns="http://www.w3.org/2000/svg" xmlns:xlink="http://www.w3.org/1999/xlink" viewBox="0 0 230.7315 73.8945"><defs><clipPath id="clip-path" transform="translate(-97.2324 -104.7851)"><path d="M170.0767,135.0859a8.4932,8.4932,0,0,0-3.1075-7.0684c-2.0107-1.56-4.7988-2.2475-8.13-2.25-.1573,0-.3179.002-.4771.0044-.0615,0-.126,0-.189.0025a27.69,27.69,0,0,0-1.9209-3.7266c-3.6015-5.834-8.8662-8.3633-14.4506-8.3667q-.5779-.9675-1.1529-1.9941a13.2924,13.2924,0,0,0-11.9809-6.8892,16.0884,16.0884,0,0,0-10.95,4.2114c-3.6646,3.5659-5.2847,8.5781-5.2827,13.8081,0,.5674.0258,1.14.0634,1.7134a23.5815,23.5815,0,0,0-10.3291,4.915c-2.94,2.5176-4.9253,5.8384-4.9336,9.5362a11.6692,11.6692,0,0,0,3.1734,7.7217,11.4764,11.4764,0,0,1,2.833,6.0576,22.03,22.03,0,0,0,1.8364,5.1347A37.1715,37.1715,0,0,0,137.8379,178.68a25.6616,25.6616,0,0,0,16.355-5.3574A20.4437,20.4437,0,0,0,160.9507,162.9c1.46-5.1543,1.7895-7.15,4.2588-12.2382a71.85,71.85,0,0,0,3.8237-9.6026,20.145,20.145,0,0,0,1.0435-5.9736M159.3511,157.07c-.0108.205-.03.4-.044.6015a55.6358,55.6358,0,0,1-5.3012,6.8477q-.4387.4774-.8872.9414a35.5587,35.5587,0,0,0,3.3588-15.5586,38.7093,38.7093,0,0,0-3.5263-16.4468,17.2831,17.2831,0,0,0-9.6065-8.65,36.5278,36.5278,0,0,0-13.3716-2.1552c-3.4209.0009-3.3335-1.6119-.6333-2.9942a28.0924,28.0924,0,0,1,12.0411-3.4614,32.8307,32.8307,0,0,0,5.7338,7.0576,15.8406,15.8406,0,0,0,8.9932,4.0928c2.12,5.2832,3.4175,12.7763,3.4131,22.9717Q159.521,153.5126,159.3511,157.07ZM113.9966,131.99c3.0332,8.9673,3.1225,16.8169,3.3174,23.45a64.7273,64.7273,0,0,0-10.0425-7.9062c-.669-.4209-1.2661-.8438-1.8111-1.2637a22.9182,22.9182,0,0,1,4.3062-10.0142,42.07,42.07,0,0,1,4.0571-4.811C113.8809,131.6269,113.9355,131.809,113.9966,131.99Zm4.9214,20.9985a73.1619,73.1619,0,0,0-2.814-19.9111q-.2446-.8064-.52-1.6245c-.814-2.3941.6724-3.88,5.7627-4.48a74.4955,74.4955,0,0,1,8.6269-.5571,33.027,33.027,0,0,1,11.9805,1.8877,13.4914,13.4914,0,0,1,7.6,6.7793,34.977,34.977,0,0,1,3.1577,14.82c.0176,8.6777-3.0356,17.0215-8.8208,20.8789a9.3734,9.3734,0,0,1-5.2817,1.8672,10.3577,10.3577,0,0,1-5.9678-2.3008c-3.206-2.2676-6.6938-6.1426-10.76-10.3633-.9116-.9453-1.8588-1.91-2.8388-2.8769C118.9917,155.7988,118.96,154.4257,118.918,152.9882Zm4.1342,13.67a56.1174,56.1174,0,0,0,7.4039,6.76,20.6743,20.6743,0,0,0,2.354,1.459,18.1142,18.1142,0,0,1-5.3311-1.3437,11.8074,11.8074,0,0,1-6.5679-5.7793,16.4479,16.4479,0,0,1-1.3911-4.7911C120.7334,164.2226,121.9067,165.4668,123.0522,166.6582Zm31.0684-43.2813a22.9917,22.9917,0,0,1,1.19,2.1626,14.2339,14.2339,0,0,1-7.0864-3.54,29.1623,29.1623,0,0,1-4.7851-5.7119C147.6128,116.7417,151.2358,118.7988,154.1206,123.3769Zm-35.2358-13.168a14.4335,14.4335,0,0,1,9.7832-3.7348,11.5923,11.5923,0,0,1,10.52,6.0337c.2383.4248.48.8413.7178,1.2539-7.0542.6059-14.4981,4.5659-21,9.727-1.646.2232-3.2363.4751-4.7524.7329-.0269-.4712-.0454-.94-.0454-1.4038C114.1108,117.9189,115.6177,113.3886,118.8848,110.2089Zm-17.8824,28.7735c-.0063-2.2788,1.2505-4.6421,3.6177-6.6743A19.7452,19.7452,0,0,1,113,128.2753c.0249.1226.0464.2422.0723.3648a46.8865,46.8865,0,0,0-5.35,6.1572,26.5306,26.5306,0,0,0-4.4434,9.4693A7.9276,7.9276,0,0,1,101.0024,138.9824Zm6.3228,17.7929a18.8962,18.8962,0,0,1-1.8731-5.9335,69.3249,69.3249,0,0,1,12.149,10.1484,21.388,21.388,0,0,0,1.8042,7.5,12.1606,12.1606,0,0,0,2.5713,3.5215A35,35,0,0,1,107.3252,156.7753Zm45.2773,14.6036a21.7013,21.7013,0,0,1-10.5048,4.4668A15.3517,15.3517,0,0,0,146,173.9a19.774,19.774,0,0,0,3.1831-2.7207,43.38,43.38,0,0,0,6.06-5.5312,54.4429,54.4429,0,0,0,3.5034-4.2656A18.0185,18.0185,0,0,1,152.6025,171.3789Zm14.8321-30.8243q-.7075,2.2471-1.5777,4.459c-1.4594,3.711-3.6484,5.916-3.9594-.2549a59.6175,59.6175,0,0,0-3.0679-17.3173h.01c3.1069-.002,5.519.6587,7.0991,1.8964a6.8116,6.8116,0,0,1,2.4648,5.7481A18.377,18.377,0,0,1,167.4346,140.5546Z" fill="none"/></clipPath><linearGradient id="New_Gradient_Swatch_2" x1="0.2094" y1="283.3792" x2="0.7691" y2="283.3792" gradientTransform="matrix(0, 133.513, 133.513, 0, -37798.3821, -26.8568)" gradientUnits="userSpaceOnUse"><stop offset="0" stop-color="#f3954a"/><stop offset="1" stop-color="#ea5297"/></linearGradient></defs><title>VisitFinlandcom</title><g clip-path="url(#clip-path)"><rect width="72.857" height="73.8945" fill="url(#New_Gradient_Swatch_2)"/></g><polyline points="80.438 31.867 83.552 31.867 87.694 43.35 92.026 31.718 95.766 31.716 94.312 32.798 94.018 34.046 88.745 47.063 86.406 47.063 80.438 31.867" fill="#5fc4e1"/><path d="M192.998,136.5009a1.5477,1.5477,0,1,1-1.6318,1.5459,1.5852,1.5852,0,0,1,1.6318-1.5459m-1.267,5.044h2.5761v10.3037H191.731Z" transform="translate(-97.2324 -104.7851)" fill="#5fc4e1"/><path d="M201.9063,144.3994a2.3382,2.3382,0,0,0-2.0186-1.0537c-.6856,0-1.502.3252-1.502,1.0957,0,1.8476,5.5591.3457,5.5591,4.3593,0,2.4463-2.3388,3.3057-4.4433,3.3057a5.0336,5.0336,0,0,1-4.0122-1.59l1.7163-1.6094a3.15,3.15,0,0,0,2.4472,1.2656c.7515,0,1.7154-.3643,1.7154-1.1787,0-2.127-5.5577-.4512-5.5577-4.3789,0-2.2969,2.06-3.3291,4.1416-3.3291a4.463,4.463,0,0,1,3.6714,1.5683l-1.7172,1.545" transform="translate(-97.2324 -104.7851)" fill="#5fc4e1"/><path d="M206.8853,136.5009a1.5476,1.5476,0,1,1-1.63,1.5459,1.5854,1.5854,0,0,1,1.63-1.5459m-1.2657,5.044h2.5752v10.3037H205.62Z" transform="translate(-97.2324 -104.7851)" fill="#5fc4e1"/><path d="M209.4189,143.7343v-2.1894h2.125v-2.9844H214.12v2.9844h2.833v2.1894H214.12v4.5069c0,1.03.3008,1.6757,1.4385,1.6757a2.7086,2.7086,0,0,0,1.3945-.32v2.167a5.4483,5.4483,0,0,1-2.04.3428c-2.7236,0-3.3692-1.2246-3.3692-3.65v-4.7217h-2.125" transform="translate(-97.2324 -104.7851)" fill="#5fc4e1"/><polyline points="122.29 31.867 132.101 31.867 132.101 34.313 124.994 34.313 124.994 38.307 131.692 38.307 131.692 40.752 124.994 40.752 124.994 47.063 122.29 47.063 122.29 31.867" fill="#5fc4e1"/><path d="M231.8428,136.5009a1.5477,1.5477,0,1,1-1.6309,1.5459,1.5852,1.5852,0,0,1,1.6309-1.5459m-1.2686,5.044h2.5791v10.3037h-2.5791Z" transform="translate(-97.2324 -104.7851)" fill="#5fc4e1"/><path d="M235.1709,141.5449h2.4473v1.6543h.0439a3.23,3.23,0,0,1,3.1553-1.9131c2.7685,0,3.7558,1.9551,3.7558,4.0576v6.5049H241.998v-5.2149c0-1.14-.0849-3.0283-1.8906-3.0283a2.3093,2.3093,0,0,0-2.36,2.6172v5.626h-2.5762V141.5449" transform="translate(-97.2324 -104.7851)" fill="#5fc4e1"/><rect x="149.3701" y="30.835" width="2.5752" height="16.2285" fill="#5fc4e1"/><path d="M257.6592,150.4306h-.0635a3.7059,3.7059,0,0,1-3.3076,1.6758c-1.9092,0-3.7549-1.0518-3.7549-3.0918,0-3.3477,3.9063-3.585,6.4824-3.585h.6436v-.2773c0-1.2676-.9863-1.9336-2.3623-1.9336a4.0535,4.0535,0,0,0-2.7461,1.0723l-1.3535-1.3506a6.039,6.039,0,0,1,4.38-1.6543c4.4,0,4.4,3.1787,4.4,4.6377v5.9248h-2.3174v-1.418m-.1494-3.1982h-.5381c-1.416,0-3.8633.1084-3.8633,1.5879,0,.9453.9648,1.3525,1.8027,1.3525,1.7618,0,2.5987-.9228,2.5987-2.36Z" transform="translate(-97.2324 -104.7851)" fill="#5fc4e1"/><path d="M261.9082,141.5449h2.4443v1.6543h.0459a3.2281,3.2281,0,0,1,3.1563-1.9131c2.7676,0,3.7558,1.9551,3.7558,4.0576v6.5049h-2.5771v-5.2149c0-1.14-.0859-3.0283-1.8887-3.0283-1.6953,0-2.36,1.2442-2.36,2.6172v5.626h-2.5762V141.5449" transform="translate(-97.2324 -104.7851)" fill="#5fc4e1"/><path d="M281.4316,150.3027h-.041a3.9726,3.9726,0,0,1-3.541,1.8037c-3.1787,0-5.0879-2.3613-5.0879-5.41s2.0391-5.41,4.9795-5.41a4.2441,4.2441,0,0,1,3.499,1.5683h.0635V135.62H283.88v16.2285h-2.4483v-1.5459m-3.07-.5147a3.092,3.092,0,1,0-3.0254-3.0918A2.9837,2.9837,0,0,0,278.3613,149.788Z" transform="translate(-97.2324 -104.7851)" fill="#5fc4e1"/><path d="M287.6563,148.6953a1.6607,1.6607,0,0,1,1.7,1.6152,1.7011,1.7011,0,1,1-1.7-1.6152" transform="translate(-97.2324 -104.7851)" fill="#5fc4e1"/><path d="M297.83,144.6992a2.8293,2.8293,0,0,0-1.9346-1.02,3.0612,3.0612,0,0,0,0,6.1211,2.4508,2.4508,0,0,0,1.9775-.9561l1.7,1.8262a5.7661,5.7661,0,0,1-3.6777,1.4258,5.3583,5.3583,0,1,1,0-10.71,4.9849,4.9849,0,0,1,3.6992,1.5518l-1.7646,1.7617" transform="translate(-97.2324 -104.7851)" fill="#5fc4e1"/><path d="M305.1514,141.3857a5.3583,5.3583,0,1,1-5.545,5.3545,5.2889,5.2889,0,0,1,5.545-5.3545m0,8.4141a3.0613,3.0613,0,1,0-2.9951-3.06A2.953,2.953,0,0,0,305.1514,149.8Z" transform="translate(-97.2324 -104.7851)" fill="#5fc4e1"/><path d="M312.1523,141.64h2.4239v1.5928h.042a3.2394,3.2394,0,0,1,3.123-1.8467,3.1145,3.1145,0,0,1,3.19,1.8906,3.5454,3.5454,0,0,1,3.3574-1.8906c2.7187,0,3.6758,1.9316,3.6758,4.377v6.0761h-2.55V146.06c0-1.2744-.3828-2.3808-1.8907-2.3808-1.5947,0-2.1894,1.3193-2.1894,2.6357v5.5244h-2.5508v-6.0761c0-1.253-.5107-2.084-1.7441-2.084a2.2877,2.2877,0,0,0-2.337,2.5947v5.5654h-2.55V141.64" transform="translate(-97.2324 -104.7851)" fill="#5fc4e1"/></svg>