<svg id="Ebene_1" data-name="Ebene 1" xmlns="http://www.w3.org/2000/svg" viewBox="0 0 523.1499 141.1498"><defs><style>.cls-1{fill:#201c20;}.cls-2{fill:#1a161b;}.cls-3{fill:#1b171c;}.cls-4{fill:#1c181d;}.cls-5{fill:#fdd85e;}.cls-6{fill:#d60a1e;}.cls-7{fill:#fedc70;}.cls-8{fill:#fcd23c;}.cls-9{fill:#fdd652;}.cls-10{fill:#fedf7f;}.cls-11{fill:#de4730;}.cls-12{fill:#d92521;}.cls-13{fill:#fdcd0b;}.cls-14{fill:#e25a3c;}.cls-15{fill:#e46444;}.cls-16{fill:#e56a49;}.cls-17{fill:#e05136;}.cls-18{fill:#e67351;}.cls-19{fill:#444446;}.cls-20{fill:#424141;}.cls-21{fill:#f5c815;}.cls-22{fill:#656667;}.cls-23{fill:#282429;}.cls-24{fill:#262226;}.cls-25{fill:#262227;}.cls-26{fill:#e98867;}.cls-27{fill:#252126;}.cls-28{fill:#e87f5e;}.cls-29{fill:#f1c41f;}.cls-30{fill:#fdd020;}.cls-31{fill:#28272a;}.cls-32{fill:#4f5052;}.cls-33{fill:#272328;}.cls-34{fill:#323133;}.cls-35{fill:#702e2b;}.cls-36{fill:#2b282c;}.cls-37{fill:#ea8f6f;}.cls-38{fill:#1b1a1b;}.cls-39{fill:#323234;}.cls-40{fill:#222023;}.cls-41{fill:#595a5c;}.cls-42{fill:#242125;}.cls-43{fill:#232524;}.cls-44{fill:#29262a;}.cls-45{fill:#d74b37;}.cls-46{fill:#262327;}.cls-47{fill:#2c282d;}.cls-48{fill:#edac92;}.cls-49{fill:#6d6b6b;}.cls-50{fill:#282529;}.cls-51{fill:#eb9c7d;}.cls-52{fill:#2f2b2f;}.cls-53{fill:#2e2a2f;}.cls-54{fill:#373736;}.cls-55{fill:#c6282d;}.cls-56{fill:#616263;}.cls-57{fill:#e48262;}.cls-58{fill:#eca488;}.cls-59{fill:#715a2b;}.cls-60{fill:#682a24;}.cls-61{fill:#e99b7d;}.cls-62{fill:#757577;}.cls-63{fill:#e47453;}.cls-64{fill:#848486;}.cls-65{fill:#6a4137;}.cls-66{fill:#de5a3d;}.cls-67{fill:#e88e6e;}.cls-68{fill:#69696b;}.cls-69{fill:#e26748;}.cls-70{fill:#866921;}.cls-71{fill:#8c6e2b;}.cls-72{fill:#6b6b6c;}.cls-73{fill:#facd23;}.cls-74{fill:#f7c91b;}.cls-75{fill:#474645;}.cls-76{fill:#7b5f1f;}.cls-77{fill:#7b2927;}.cls-78{fill:#8a2e25;}.cls-79{fill:#73342a;}.cls-80{fill:#f8e8dc;}.cls-81{fill:#713b30;}.cls-82{fill:#7b3b2f;}.cls-83{fill:#7e673a;}.cls-84{fill:#ba9525;}.cls-85{fill:#75544c;}.cls-86{fill:#8d8989;}.cls-87{fill:#8f2527;}.cls-88{fill:#897141;}.cls-89{fill:#e6be42;}.cls-90{fill:#a7101c;}.cls-91{fill:#7e6738;}.cls-92{fill:#9f7e2a;}.cls-93{fill:#825f55;}.cls-94{fill:#7c5a50;}.cls-95{fill:#7e6632;}.cls-96{fill:#7c4034;}.cls-97{fill:#3c393d;}.cls-98{fill:#3a363a;}.cls-99{fill:#782420;}.cls-100{fill:#9c2c26;}.cls-101{fill:#8a754b;}.cls-102{fill:#684e1e;}.cls-103{fill:#8a7342;}.cls-104{fill:#933830;}.cls-105{fill:#7c6024;}.cls-106{fill:#d2d2d2;}.cls-107{fill:#9d7c28;}.cls-108{fill:#876c32;}.cls-109{fill:#d08970;}.cls-110{fill:#c1a75d;}.cls-111{fill:#806939;}.cls-112{fill:#f5f1f1;}.cls-113{fill:#c1a453;}.cls-114{fill:#8c5c57;}.cls-115{fill:#744f45;}.cls-116{fill:#b37966;}.cls-117{fill:#f9d047;}.cls-118{fill:#5d4822;}.cls-119{fill:#8c6053;}.cls-120{fill:#9a776c;}.cls-121{fill:#7e6734;}.cls-122{fill:#7f6838;}.cls-123{fill:#9b3432;}.cls-124{fill:#e1b525;}.cls-125{fill:#755e2f;}.cls-126{fill:#ceae4a;}.cls-127{fill:#c37762;}.cls-128{fill:#9d8b66;}.cls-129{fill:#d6bb6e;}.cls-130{fill:#d2aa1e;}.cls-131{fill:#ba9d4c;}.cls-132{fill:#c78974;}.cls-133{fill:#9f823a;}.cls-134{fill:#fcd554;}.cls-135{fill:#e2bb46;}.cls-136{fill:#80662d;}.cls-137{fill:#9b6959;}.cls-138{fill:#ccbc9b;}.cls-139{fill:#bc9d4c;}.cls-140{fill:#a6852f;}.cls-141{fill:#d6817f;}.cls-142{fill:#c30d1d;}.cls-143{fill:#ca5a5c;}.cls-144{fill:#777477;}.cls-145{fill:#4e4b4f;}.cls-146{fill:#6c483f;}.cls-147{fill:#8d8b8e;}.cls-148{fill:#715825;}.cls-149{fill:#5b4622;}.cls-150{fill:#947a41;}.cls-151{fill:#a99a80;}.cls-152{fill:#98751e;}.cls-153{fill:#f8f8f8;}.cls-154{fill:#9b6a60;}.cls-155{fill:#7f642b;}.cls-156{fill:#826932;}.cls-157{fill:#c0961c;}.cls-158{fill:#5b4621;}.cls-159{fill:#a58a4c;}.cls-160{fill:#5e221e;}.cls-161{fill:#846624;}.cls-162{fill:#b99425;}.cls-163{fill:#a0833b;}.cls-164{fill:#cca42d;}.cls-165{fill:#694e1b;}.cls-166{fill:#353236;}.cls-167{fill:#b29a63;}.cls-168{fill:#eb9595;}.cls-169{fill:#64433a;}.cls-170{fill:#8f7846;}.cls-171{fill:#b9765f;}.cls-172{fill:#e68482;}.cls-173{fill:#e0b942;}.cls-174{fill:#886e36;}.cls-175{fill:#906f1d;}.cls-176{fill:#d7807a;}.cls-177{fill:#af8920;}.cls-178{fill:#c65b50;}.cls-179{fill:#a88833;}.cls-180{fill:#bd9728;}.cls-181{fill:#d3b24b;}.cls-182{fill:#896c23;}.cls-183{fill:#a47f1d;}.cls-184{fill:#bd9b35;}.cls-185{fill:#c3a03e;}.cls-186{fill:#b9b7b7;}.cls-187{fill:#cb1421;}.cls-188{fill:#caaa4c;}.cls-189{fill:#d1b564;}.cls-190{fill:#e1cb8b;}.cls-191{fill:#a29170;}.cls-192{fill:#e4d08f;}.cls-193{fill:#f8f1da;}.cls-194{fill:#644d23;}.cls-195{fill:#f2bab7;}.cls-196{fill:#b8a47b;}.cls-197{fill:#753b33;}.cls-198{fill:#97825a;}.cls-199{fill:#785e25;}.cls-200{fill:#6a542b;}.cls-201{fill:#413f3e;}.cls-202{fill:#bc948e;}.cls-203{fill:#423f43;}.cls-204{fill:#d9bbb5;}.cls-205{fill:#a85843;}.cls-206{fill:#f4f4f4;}.cls-207{fill:#444145;}.cls-208{fill:#edd7d4;}.cls-209{fill:#e1c2bf;}.cls-210{fill:#5c4722;}.cls-211{fill:#474347;}.cls-212{fill:#c6a23a;}.cls-213{fill:#e9d8a6;}.cls-214{fill:#bc9a3d;}.cls-215{fill:#b79a50;}.cls-216{fill:#aa8526;}.cls-217{fill:#f9f9f9;}.cls-218{fill:#9d7b24;}.cls-219{fill:#484646;}.cls-220{fill:#6d6b6c;}.cls-221{fill:#989797;}.cls-222{fill:#bb2928;}.cls-223{fill:#bfbfbf;}.cls-224{fill:#e7e6e6;}.cls-225{fill:#b79125;}.cls-226{fill:#c03837;}.cls-227{fill:#95731b;}.cls-228{fill:#ae6f5b;}.cls-229{fill:#5d4722;}.cls-230{fill:#c47960;}.cls-231{fill:#face2e;}.cls-232{fill:#dc3526;}.cls-233{fill:#e77958;}.cls-234{fill:#3c3c3e;}.cls-235{fill:#3e3b3f;}.cls-236{fill:#565356;}.cls-237{fill:#ea9677;}.cls-238{fill:#6f6d70;}.cls-239{fill:#3f3b40;}.cls-240{fill:#fefefe;}.cls-241{fill:#5a4622;}.cls-242{fill:#5a4621;}.cls-243{fill:#97751e;}</style></defs><path class="cls-1" d="M17.5933,95.1087H36.53c-2.4848,3.62-5.9369.9942-8.6395,2.7654-.728,3.8508-1.3222,8.1-2.3733,12.2323-.9872,3.8814-.5516,8.2631-3.703,11.5205.0822-8.0947,2.3605-15.8133,3.4236-24.06-2.4643-.7723-5.1054-.1352-7.6446-.4581Z" transform="translate(-17.5933 -7)"/><path class="cls-2" d="M211.5875,46.1a10.9184,10.9184,0,0,1,7.5762-4.27c4.9236-.7132,8.743.8213,11.2264,5.6815,3.0935-4.03,6.811-6.19,11.724-5.8111,5.23.4029,7.7366,2.6889,8.7111,7.88a49.0813,49.0813,0,0,1,.4174,8.9583c.0208,5.4769.0059,10.954.0059,16.4839-2.7553,1.3549-5.3982.393-8.2454.8808-1.5421-8.98,1.0918-18.0386-1.5787-26.3953-5.5412-.6826-8.291.98-9.6583,5.5826a28.0393,28.0393,0,0,0-.9248,7.9029c-.0181,4.1093.3384,8.2433-.28,12.4865a36.8239,36.8239,0,0,1-8.0393.1642c0-6.0149.0031-11.7815-.0019-17.5481a42.4236,42.4236,0,0,0-.07-4.9879c-.4946-4.1242-3.8269-5.5261-7.2038-3.0489a10.371,10.371,0,0,0-3.8859,6.7311c-.8931,4.4658-.3067,8.9618-.476,13.44-.0623,1.6465-.01,3.2972-.01,5.02a19.2969,19.2969,0,0,1-8.23.2229V42.7116c2.456-.9088,5.0253-.4986,7.7782-.2636v2.5957Q209.9516,46.7335,211.5875,46.1Z" transform="translate(-17.5933 -7)"/><path class="cls-2" d="M140.4005,31.6687c.3939,2.8177-.9251,5.1143-.8965,8.058a49.38,49.38,0,0,0-10.3169-2.0249c-6.2161-.3316-11.762,1.0382-14.9148,6.8961a17.7489,17.7489,0,0,0,.3035,18.0916,11.1406,11.1406,0,0,0,8.5558,5.4122,23.605,23.605,0,0,0,8.7795-.3749c.8191-5.05-.0716-10.2023.5281-15.4466a39.41,39.41,0,0,1,8.136-.1962v21.55c-8.2166,2.9248-16.644,3.9435-25.146.9762-7.7021-2.6881-11.682-8.7221-12.6251-16.5231C100.6406,40.19,112.5065,29.89,126.7446,29.859A41.9586,41.9586,0,0,1,140.4005,31.6687Z" transform="translate(-17.5933 -7)"/><path class="cls-2" d="M347.4568,42.371h9.1888c-1.7543,4.7335-3.3932,9.2025-5.0661,13.6586q-3.9332,10.4775-7.907,20.94c-.7056,1.86-1.38,3.7385-2.2124,5.542-3.9273,8.505-7.8256,10.5445-17.7438,9.1614-.6521-2.1672.0131-4.4251-.0208-6.08.38-1.38.9544-.9591,1.3675-.9013,7.3992,1.0346,12.2085-4.9488,9.6325-12.0743-3.604-9.9688-7.27-19.9151-11.0008-30.12,3.18-.5169,6.1119-.2331,9.3026-.1975a194.02,194.02,0,0,1,7.1859,21.1671C342.7438,56.04,345.105,49.1917,347.4568,42.371Z" transform="translate(-17.5933 -7)"/><path class="cls-3" d="M300.0711,75.3893c-2.8563.6281-5.311.3043-8.4839.3413-.01-5.5517-.0233-10.96-.028-16.3679-.0048-5.4871-.0011-10.9742-.0011-16.5892,2.49-1.0931,4.9553-.3247,7.2822-.5577,1.4,1.3357.3134,3.0185,1.1359,4.5666a13.3323,13.3323,0,0,1,9.8359-5.1625c6.2979-.409,10.3969,2.8151,10.6275,9.1539.2956,8.1274.0718,16.2738.0718,24.5291-2.7845.9108-5.3773.2467-8.6473.5106,0-3.5128.0051-6.6111-.0013-9.71-.0086-4.1619.0109-8.3244-.0565-12.4854-.03-1.8542-.18-3.8136-2.397-4.4464a5.5539,5.5539,0,0,0-5.5684,1.3228,10.8408,10.8408,0,0,0-3.4661,8.0109c-.0926,4.6594-.0812,9.3208-.13,13.9813C300.2361,73.3088,300.149,74.13,300.0711,75.3893Z" transform="translate(-17.5933 -7)"/><path class="cls-4" d="M189.4175,46.8135c1.6674-3.8352,4.8392-5.0907,8.9053-5.2881a16.3675,16.3675,0,0,1,.3106,2.0576c.0375,1.97.0138,3.9419.0138,6.1836-2.7347.3707-5.3919-.0337-7.0829,2.2988a12.5268,12.5268,0,0,0-2.1859,7.5211c-.0481,5.136-.014,10.2729-.014,15.4426-2.903,1.2512-5.52.57-8.4248.7216-.7846-5.5834-.2658-11.0176-.3614-16.42-.0969-5.4779-.0214-10.9589-.0214-16.5706,2.5-1.0617,4.9588-.3234,7.2883-.5439,1.2437,1.2754.5641,2.6309.6179,3.8788a.6728.6728,0,0,0,.2725,1.0946C189.0328,47.3451,189.2761,47.1893,189.4175,46.8135Z" transform="translate(-17.5933 -7)"/><path class="cls-5" d="M527.5335,88.9884c1.4243-4.7155,4.3573-8.7868,5.3039-13.7767a50.8931,50.8931,0,0,0,.0526-18.6559,28.4935,28.4935,0,0,1-.2049-3.4545.82.82,0,0,1,1.055-.2114,4.121,4.121,0,0,1,.7864.9584,9.2685,9.2685,0,0,1,.8143,1.7254,7.3966,7.3966,0,0,1,.2884,1.2842c.11.8976.1494,1.7981.1975,2.7006a16.8344,16.8344,0,0,0,.7568,4.2023,18.0193,18.0193,0,0,1-.0215,6.9106c-2.3669,8.4041-3.63,17.1449-7.2211,25.1762-2.6591,5.9472-6.7626,10.9292-11.4059,15.4623a9.3919,9.3919,0,0,1-3.1021,3.0913,28.591,28.591,0,0,1-6.66,4.3621,12.2138,12.2138,0,0,1-2.2671.4693,71.5133,71.5133,0,0,0-8.3081,1.4647c-14.166,2.5547-26.5963-1.2568-37.3638-10.624-1.6565-1.441-3.7758-2.9794-2.8439-5.8292,1.1564-.9736,2.5257-.53,3.82-.57,6.2377,5.3041,12.9138,9.7826,21.1631,11.3625a37.4944,37.4944,0,0,0,38.8394-16.5534C523.2585,95.2714,525.272,92.0512,527.5335,88.9884Z" transform="translate(-17.5933 -7)"/><path class="cls-6" d="M465.5932,11.0176c17.8787.0828,34.0335,5.2839,47.8,16.8232,6.6841,5.6025,11.89,12.4763,14.2245,21.1413.72,3.6715,1.8587,7.2879,1.4624,11.1-1.8731.7363-1.9785.7779-2.7885-1.2733a78.4755,78.4755,0,0,0-8.86-16.5864c-5.7639-8.16-13.507-13.9591-21.92-19.0219a7.6818,7.6818,0,0,1-2.3847-1.4481,29.3334,29.3334,0,0,0-9.5843-4.82c-.4091-.1758-.8194-.3507-1.2315-.52-1.05-.4376-2.2332-.2136-3.2845-.6532-2.1612-.7457-4.44-1.0653-6.5956-1.8294a23.7889,23.7889,0,0,0-4.8436-.8515,3.4113,3.4113,0,0,1-2.0687-.718A.9509.9509,0,0,1,465.5932,11.0176Z" transform="translate(-17.5933 -7)"/><path class="cls-7" d="M527.5335,88.9884a2.7751,2.7751,0,0,1-.9907,2.6738,8.8632,8.8632,0,0,0-2.3053,3.1977c-4.4521,10.5642-12.5414,17.295-23.2843,20.3952-8.9163,2.573-17.9884,3.1963-26.7429-1.6573-2.2442-1.2442-4.5919-2.4937-6.9715-3.5523a10.1659,10.1659,0,0,1-5.6621-5.9149c3.4616-1.16,6.6959.2448,9.4032,1.79,16.1361,9.21,30.7533,6.1036,44.5964-4.8645C520.1234,97.59,523.5316,92.995,527.5335,88.9884Z" transform="translate(-17.5933 -7)"/><path class="cls-8" d="M443.3907,107.0409a3.39,3.39,0,0,1,3.111-2.9767c3.5709-1.3676,6.3482-.37,8.7617,2.5621,7.58,9.21,17.4281,14.132,29.2641,15.33,2.2312.2258,4.7263.2956,6.2827,2.4746-2.1861,2.7865-5.5748,1.7755-8.3644,2.6548a75.8729,75.8729,0,0,1-13.2544-.5734c-7.6263-4.8649-15.9092-8.9076-21.2349-16.7085C446.8535,108.1878,444.93,107.9322,443.3907,107.0409Z" transform="translate(-17.5933 -7)"/><path class="cls-9" d="M490.7952,124.2114a113.2794,113.2794,0,0,1-21.9878-4.6391c-3.2369-.96-5.8056-3.66-8.2973-6.0622-3.1853-3.0707-6.3152-6.1988-9.615-9.4459h-4.3934c.6863-1.2637,1.8935-.9691,2.9919-1,2.61-1.28,4.98.3386,7.4608.6167q.3192.2145.6377.43c1.7688,5.0262,6.0664,7.5767,10.2618,10.025a43.8664,43.8664,0,0,0,26.421,5.94,17.1152,17.1152,0,0,0,5.2317-1.11c2.4049-1.0349,4.8153-.8659,7.2735-.7739.17.8141-.3364,1.2425-.925,1.6245a39.3141,39.3141,0,0,1-3.5964,1.93c-2.4832.3393-4.4445,2.2356-7,2.3538-1.0806.1083-2.1516.3091-3.2347.4252A1.9438,1.9438,0,0,1,490.7952,124.2114Z" transform="translate(-17.5933 -7)"/><path class="cls-10" d="M515.5763,101.0562a34.6853,34.6853,0,0,1-20.103,11.1858c-5.5486,1.0722-10.61-.2776-15.8834-1.072-3.5759-.5387-6.4228-2.5314-9.28-4.2942a21.8126,21.8126,0,0,0-8.7329-2.7452l-3.9846-.02-.0006-.0006q-.4917-.3522-.3215-.6951.1685-.34.3359-.3406c8.6692-.371,17.1182,1.5324,25.398,3.4624,11.3257,2.64,21.4939,1.0755,31.1308-5.1551A4.3984,4.3984,0,0,1,515.5763,101.0562Z" transform="translate(-17.5933 -7)"/><path class="cls-11" d="M498.57,35.0493c1.6881-1.91,1.1424-3.9367.3154-5.9789a1.8548,1.8548,0,0,1,1.3792-.3653c.2163.1237.4311.2485.6484.3716a4.5686,4.5686,0,0,1,.6892,1.32,7.5111,7.5111,0,0,0,2.7393,4.5424c12.9783,11.0256,18.9262,25.452,20.1937,42.1148-1.5074,2.9149-2.3279,6.5648-6.7616,6.3708a1.5236,1.5236,0,0,1-.5294-1.36c2.7663-6.47.4235-12.7-1.2091-18.8289-2.5419-9.5421-8.0919-17.2933-15.4243-23.839C499.3891,38.307,497.1857,37.4552,498.57,35.0493Z" transform="translate(-17.5933 -7)"/><path class="cls-12" d="M499.5773,29.0469q-.3466-.0017-.6922.0235l-3.37-4.4538a1.9237,1.9237,0,0,1,.032-2.4764c5.9457,3.4812,11.8478,6.9279,16.7062,12.0253A66,66,0,0,1,528.1046,60.847c.0366.1207.2662.183.4057.2726a1.6072,1.6072,0,0,1,.5593,1.2823,17.8089,17.8089,0,0,1-.886,6.5284,3.8851,3.8851,0,0,1-.5085,1.384,1.6174,1.6174,0,0,1-1.3886-.24c-1.73-3.4413-2.4166-7.2416-3.7065-10.8349-3.6045-10.0419-8.7847-19.0133-17.5621-25.49a13.5711,13.5711,0,0,1-4.43-4.6355l0,0A.6411.6411,0,0,0,499.5773,29.0469Z" transform="translate(-17.5933 -7)"/><path class="cls-13" d="M441.6119,122.2622a14.5032,14.5032,0,0,1,.7453-13.239c1.2339-1.2725,2.6652-1.58,3.8216-.133a58.1405,58.1405,0,0,0,14.6185,13.2c.7742.4843,1.4969,1.4061.51,2.4673a4.0515,4.0515,0,0,1-3.0392.3184c-5.04-.8463-10.0454-1.9522-15.1963-1.9033A4.8386,4.8386,0,0,1,441.6119,122.2622Z" transform="translate(-17.5933 -7)"/><path class="cls-14" d="M517.5962,82.11q-.003.4981-.0022.9962c.2224,2.3476-1.7742,2.0114-3.0619,2.5337a1.6549,1.6549,0,0,1-1.2411-.7773c-.559-3.1228.4268-6.1771.304-9.3393-.5325-13.7081-7.2619-24.0176-17.0136-32.8731-1.5624-1.4188-4.3747-2.28-2.9763-5.3869.9638-.4551,1.8042-1.2519,2.9942-1.08,12.3513,8.8192,19.3239,20.9021,21.5845,35.7879C518.6981,75.3581,519.4,78.8259,517.5962,82.11Z" transform="translate(-17.5933 -7)"/><path class="cls-15" d="M493.6051,37.2634a3.4474,3.4474,0,0,0,1.9853,3.24c9.28,5.91,13.7374,15.2893,17.9379,24.8358a12.9487,12.9487,0,0,1,1.0978,6.2824c-.2746,3.5366.7815,7.0691.0305,10.6484a19.0841,19.0841,0,0,1-1.0717,2.7385.9418.9418,0,0,1-1.3766-.1138c-1.4478-2.4748-.8653-5.2045-.89-7.8291-.1156-12.457-5.69-22.2457-14.4092-30.7106-2.351-2.2825-6.3116-3.3628-6.4732-7.5649A3.3261,3.3261,0,0,1,493.6051,37.2634Z" transform="translate(-17.5933 -7)"/><path class="cls-16" d="M490.4362,38.79c1.5746,2.8172,4.5074,4.2316,6.7883,6.2685,9.7893,8.742,15.3662,19.2971,15.3686,32.5726q.0007,3.7244-.0029,7.4487c-1.3843,1.36-2.9567,1.1122-4.5641.5374a1.1279,1.1279,0,0,1-.6524-1.2816c4.3143-7.4229,1.084-14.4756-1.38-21.3846-2.6936-7.5527-8.371-13.0129-14.253-18.1917-1.4822-1.305-3.3955-2.3591-2.2368-4.8575Z" transform="translate(-17.5933 -7)"/><path class="cls-17" d="M517.5962,82.11a52.6406,52.6406,0,0,0-3.9012-22.5793c-2.9974-7.74-7.4142-14.6012-14.3707-19.51-1.35-.9529-2.8118-1.8525-2.725-3.8375l1.97-1.1339c.076.6454-.0071,1.3625.6145,1.8026a46.2018,46.2018,0,0,1,13.1232,14.5642,54.8169,54.8169,0,0,1,6.4206,17.32c.6938,3.5388.5184,7.1557,1.3361,11.1749A4.4035,4.4035,0,0,1,517.5962,82.11Z" transform="translate(-17.5933 -7)"/><path class="cls-18" d="M489.5039,39.9021a3.4688,3.4688,0,0,0,1.5006,2.9524c7.033,5.1372,12.781,11.38,16.2137,19.4975a41.0172,41.0172,0,0,1,3.3956,18.678c-.1232,2.02-.9959,3.0683-3.0345,3.0923-.1473-.2007-.2946-.4014-.4446-.6011.5295-14.9832-4.7755-27.3177-16.6408-36.6807-1.1733-.9259-2.3108-1.8978-2.4707-3.5423.086-.741-.0058-1.5316.5948-2.1279A1.4081,1.4081,0,0,1,489.5039,39.9021Z" transform="translate(-17.5933 -7)"/><path class="cls-19" d="M443.4674,18.0438c3.6079-1.5747,7.382-.9593,11.1181-.8438,1.3678,2.4185-.6319,3.6792-1.93,4.9325A123.4317,123.4317,0,0,1,440.2884,32.7c-1.3518.9979-1.8,1.6037-.46,2.808a2.0273,2.0273,0,0,1-1.4828,1.4431c-2.7272.2885-5.4917-.0183-8.197.5435-2.684-2.54.0017-3.7593,1.4121-5.0181,4.7918-4.2768,9.7025-8.4209,14.7249-12.2217-.4661-1.1269-1.2084-1.0833-1.7814-1.3428A2.46,2.46,0,0,1,443.4674,18.0438Z" transform="translate(-17.5933 -7)"/><path class="cls-20" d="M443.6515,39.8241c2.2968,1.6106.77,2.7528-.5119,3.8567-2.7683,2.384-5.624,4.6687-8.3511,7.0982-8.7337,7.7809-16.8809,16.046-21.6859,26.99-.789,1.7971-1.5873,3.59-2.3813,5.3851a.9736.9736,0,0,1-1.2756.05c-.0139-4.1519,1.73-7.7937,3.3325-11.4708.1918-.392.4059-.7787.6316-1.1512.107-.18.22-.3649.326-.5465.2344-.3363.4779-.6746.7158-1.0107a8.6152,8.6152,0,0,1,.5736-1.0662,11.2081,11.2081,0,0,1,.7141-.96c.1151-.1618.2424-.3154.3562-.4782.3272-.51.6357-1.0309.946-1.5566a7.73,7.73,0,0,1,.74-1.0341c2.04-2.0092,3.434-4.5471,5.4218-6.5984,4.9058-5.317,10.4559-9.938,15.8546-14.7211A12.23,12.23,0,0,1,443.6515,39.8241Z" transform="translate(-17.5933 -7)"/><path class="cls-21" d="M500.8122,12.0166a.8593.8593,0,0,1,.7981.1795c.5717.536,1.45.3653,2.03.8808l-.03-.0187c.5287.6756,1.4436.5255,2.0793.9726l-.0473-.0383c.4776.7639,1.4183.5921,2.0618,1.0207l-.0478-.0409c.4517.7921,1.41.604,2.0386,1.0533l-.0476-.0384c.4508.7674,1.4181.5714,2.0092,1.077l-.0344-.0265a14.1555,14.1555,0,0,0,3.0625,2.0022l-.0429-.0352c3.7989,3.1513,7.13,6.834,11.1071,9.7826l.9265,1.0811a2.5434,2.5434,0,0,0,.9992,1.2146,24.1726,24.1726,0,0,1,4.9658,7.9447,7.693,7.693,0,0,1,.7064,1.0469,25.2891,25.2891,0,0,1,3.26,7.9036,2.0924,2.0924,0,0,1,.29,2.0313,1.4159,1.4159,0,0,1-1.2983.334c-2.42-2.9943-2.7881-7.52-6.8971-9.2586-.5378-.8034-1.2643-1.5181-1.22-2.5952a7.4852,7.4852,0,0,0-2.0069-3.3237l.0373.0483a10.7,10.7,0,0,0-2.3257-3.0941,26.0264,26.0264,0,0,0-6.6885-7.2842c-.4985-.4283-.9759-.8807-1.4525-1.3327a31.9047,31.9047,0,0,0-5.179-3.94c-3.2019-2.6072-7.5322-3.3067-10.5395-6.2463a1.8928,1.8928,0,0,1,.1454-1.38A1.2939,1.2939,0,0,1,500.8122,12.0166Z" transform="translate(-17.5933 -7)"/><path class="cls-22" d="M443.6515,39.8241c-1.1473,2.5737-3.7584,3.7-5.76,5.2437-5.1468,3.9677-9.2043,9.0659-14.29,13.0533-1.166-.1944-2.4293-.2919-2.0331-2.0418l-.0083.0152a2.8361,2.8361,0,0,0,.9612-1.1873q.6822-.9171,1.3644-1.8341a1.4456,1.4456,0,0,1,.7581-.8l.102-.1221a3.0111,3.0111,0,0,1,.8707-.9551c3.0757-4.3806,7.5627-7.1724,11.63-10.4506.6944-.56,2.9145-.7993,1.3353-2.6631a.8792.8792,0,0,1,.2331-1.3378c1.0372-.3315,2.0586-.5532,2.9066.421C441.1631,38.9241,442.9339,38.9915,443.6515,39.8241Z" transform="translate(-17.5933 -7)"/><path class="cls-23" d="M132.3287,117.4433c4.532-4.9289,4.7875-11.9013,10.02-15.6747.0737-.0531.489.3673.7426.57-4.2891,10.38-8.74,17.812-12.1529,19.6938-1.9588-6.5259-2.7048-13.0834-3.8037-20.4162,4.1893,1.786,3.0811,4.948,3.6332,7.3055C131.3929,111.5918,131.7691,114.3206,132.3287,117.4433Z" transform="translate(-17.5933 -7)"/><path class="cls-24" d="M240.9668,103.1338c-1.8454,1.7147-3.8119.5678-5.871,1.29a71.4348,71.4348,0,0,0-2.5174,13.7547c1.3123,2.32,3.2706.922,4.8627,1.6.1494,2.7285-1.9071,2.1535-3.3408,2.2345-2.0312.1148-3.65-.6843-4.1117-2.812a8.0573,8.0573,0,0,1,.1466-2.946c.6572-3.8929,1.3747-7.7756,2.0545-11.5761-1.1781-1.0312-2.8313.0327-3.8242-1.2469.5255-2.4893,2.9222-.6814,4.0319-1.76,1.9146-1.7368-.1477-5.7479,3.8326-6.8284.5878,2.5746-1.1051,4.5522-.5038,6.7219C237.0962,102.8645,239.3143,101.1353,240.9668,103.1338Z" transform="translate(-17.5933 -7)"/><path class="cls-25" d="M297.8177,104.5867c-.8108,4.6981-2.3489,9.3943-2.22,13.6442,1.5074,2.4094,3.6653.3622,5.0538,2.1764-1.4618,2.2856-3.61,1.8349-5.5512,1.2682-2.1123-.6166-2.5844-2.4513-2.2587-4.416.65-3.9194,1.4082-7.8208,2.1153-11.7307.054-.2982.0577-.6054.0842-.9033-1.0856-1.0026-2.6669.0126-3.8577-1.0277.1558-.381.2453-1.0835.5057-1.1539,1.2388-.3351,2.5241-.4982,3.4885-.6687,2.0138-1.93.0644-5.8224,4.2394-7.0055-.0219,2.6756-1.2068,4.67-.7563,6.7453,1.42,1.35,3.6471-.4026,5.1366,1.5142C302.345,105.0867,300.1076,103.5907,297.8177,104.5867Z" transform="translate(-17.5933 -7)"/><path class="cls-26" d="M485.5882,46.0961a1.3636,1.3636,0,0,1,.9136-1.1805c6.16,4.777,11.5528,10.2074,15.305,17.165a35.2448,35.2448,0,0,1,3.8506,13.6914c.3235,3.5015-1.029,4.1125-4.1693,2.4l.0027.0407c-.4289-1.0971-1.31-2.0121-1.3236-3.2779-.7033-8.7608-5.1366-15.5022-11.3134-21.41C486.8387,51.5968,483.76,49.84,485.5882,46.0961Z" transform="translate(-17.5933 -7)"/><path class="cls-27" d="M84.5392,104.7592c-1.3646-1.1909-3.0448.1064-3.9312-1.4578.6931-2.3579,3.0073-.4523,4.1864-1.5693,1.6583-1.8474.0048-5.3389,3.3163-6.7768,1.25,2.3563-.1755,4.4934-.2955,6.5457,1.7464,1.1758,3.7949-.0963,5.5006,1.1548-1.1852,2.809-3.9237.6667-5.9587,2.056a80.6043,80.6043,0,0,0-2.3685,13.2206c1.3828,2.5816,3.611.834,4.756,2.272-2.1695,2.4107-2.3705,2.4284-6.8652.5469C81.4524,115.3175,84.2408,110.1694,84.5392,104.7592Z" transform="translate(-17.5933 -7)"/><path class="cls-28" d="M501.4881,78.1721l2.3359.7752c1.346-1.2492.94-2.907.6908-4.1959-1.9522-10.0852-6.12-18.901-14.7482-25.13-1.548-1.1176-3.3157-2.3539-3.2648-4.706.0622-.78.2149-1.508,1.0543-1.8432q.246.2982.4925.5961c3.2844,4.0857,7.8309,6.81,11.0288,11.1507a43.3392,43.3392,0,0,1,8.386,23.2667c.1462,2.0091-.2243,3.68-2.754,3.7421a5.0621,5.0621,0,0,1-1.431-.623A3.7626,3.7626,0,0,1,501.4881,78.1721Z" transform="translate(-17.5933 -7)"/><path class="cls-29" d="M441.4547,132.1315c-2.5895-3.937-2.5895-3.937.3535-7.078,4.9736,8.7291,12.3868,14.395,21.7267,17.7328,3.0847,1.1024,6.3916,1.5524,9.29,3.1845a1.426,1.426,0,0,1-1.3188.6124,7.4485,7.4485,0,0,1-4.3916-.9688,6.7959,6.7959,0,0,1-2.9831-.4728l-.3447-.042c-.6619-.5372-1.5983-.4353-2.2608-.9709l.0812.0515c-.7892-1.0385-2.2316-.1977-3.0786-1.07l.0739.0467a1.7988,1.7988,0,0,0-1.2262-.603,3.7468,3.7468,0,0,1-.8468-.3992l.0447.0244c-.5036-.6953-1.44-.5251-2.043-1.0222l.03.0175c-.4928-.6963-1.4279-.5155-2.0186-1.0178l.0452.0183c-.51-.6855-1.465-.5119-2.046-1.06l.0569.049a10.8022,10.8022,0,0,0-1.3-.895,8.9908,8.9908,0,0,0-1.7863-1.1106l.0721.0189a3.7051,3.7051,0,0,0-1.0824-1.0278l.0531.0472a15.5532,15.5532,0,0,0-1.9259-1.5247,5.6784,5.6784,0,0,1-1.1152-.5145l.061.0218a3.6053,3.6053,0,0,0-1.071-1.0337l.0553.047A3.431,3.431,0,0,0,441.4547,132.1315Z" transform="translate(-17.5933 -7)"/><path class="cls-30" d="M461.5744,124.1735c-4.0713-3.5222-9.0631-5.8311-12.643-10.0689-1.5819-1.8726-2.4689-4.3549-4.7048-5.6678l-1.8694.5864c.1244-.7755.2049-1.574,1.0335-1.9823l2.4853-.8994a29.1217,29.1217,0,0,1,4.8761,5.2242c2.7348,3.9039,6.62,6.5558,10.7893,8.8454a25.9861,25.9861,0,0,1,7.027,4.9942C466.0375,126.2145,463.5433,126.9745,461.5744,124.1735Z" transform="translate(-17.5933 -7)"/><path class="cls-31" d="M413.4925,37.8982c-.3061-1.072-1.6759-.779-2.13-1.66a2.6325,2.6325,0,0,1,1.176-1.6917c6.0369-3.2276,10.9223-7.9175,15.8673-12.5319.7377-1.0394,1.8558-.972,2.9379-1.0094.7023-.39,1.5818-.27,2.2423-.7795a.8275.8275,0,0,1,.9084-.1575,2.0457,2.0457,0,0,1,2.1206-.1851c.7333,1.7714-.4475,2.9326-1.5374,3.8324-5.8592,4.8377-11.2266,10.3014-17.7635,14.2751C416.2212,38.6542,414.6759,40.7046,413.4925,37.8982Z" transform="translate(-17.5933 -7)"/><path class="cls-32" d="M439.6039,35.1218h-3.64c4.4439-3.8185,8.07-6.9051,11.6618-10.03,2.6663-2.32,5.923-4.1306,6.96-7.8916l3.024.0374c.61.51,1.67.2215,2.2794,1.7392-3.427,6.1431-11.0028,8.7408-14.8193,14.8876C443.3351,34.661,441.8057,36.3614,439.6039,35.1218Z" transform="translate(-17.5933 -7)"/><path class="cls-33" d="M213.853,121.6853a2.035,2.035,0,0,1,.3065-2.2771c1.4452.0176,3.1819.7758,4.9437.0512,2.9-1.1924,3.5693-3.5176,1.3611-5.732-.9276-.93-2.1452-1.5693-3.0837-2.4907-3.0182-2.9634-2.21-7.3642,1.7337-8.8194,2.1266-.7847,4.4444-1.1159,6.5935.09-.0151,1.6282-.9939,1.5519-2.0408,1.5137-1.9783-.0722-4.2072-.4043-5.11,1.9806-1.0079,2.6623,1.1758,3.8491,2.8284,5.1773,2.0079,1.6137,3.8982,3.3022,2.8757,6.2368-.9805,2.8139-3.3,4.0622-6.0458,4.5228A7.2638,7.2638,0,0,1,213.853,121.6853Z" transform="translate(-17.5933 -7)"/><path class="cls-34" d="M413.4925,37.8982c.2576.7666.6274,1.0014,1.3738.445,3.7946-2.8284,7.9761-5.2554,11.3191-8.5387,3.3861-3.3255,7.883-5.4539,10.3981-9.68q-.5172-.2825-.34-.5556c.116-.18.2325-.2706.3511-.2706l1.8214-.2536a1.6015,1.6015,0,0,1,2.3855.4808c-.3809,2.7284-2.6365,4.2674-4.6483,5.877-4.4113,3.5294-8.6,7.3343-13.1865,10.647a7.6089,7.6089,0,0,0-3.0483,3.8463,11.4455,11.4455,0,0,1-9.33,3.213C410.9929,41.0578,412.3144,39.5179,413.4925,37.8982Z" transform="translate(-17.5933 -7)"/><path class="cls-35" d="M465.6066,12.0719l1.9514.0576c1.5146,1.1812,3.5161-.1769,5.0382.9658,2.3262.689,4.7907.8967,6.995,2.01.8061.9481,2.1767.14,3.0206.9711l.0166.0031a.8357.8357,0,0,1-.0893,1.2062c-6.3038-1.1051-12.4878-2.7788-18.91-3.355-8.0958-.7263-16.0821-.032-24.0828.9467a1.6686,1.6686,0,0,1-1.072-.827c3.547-1.7094,7.3988-1.9938,11.2245-2.4,4.2113-.0683,8.4231.0085,12.6348-.0427A5.0973,5.0973,0,0,1,465.6066,12.0719Z" transform="translate(-17.5933 -7)"/><path class="cls-23" d="M40.599,110.1218c-1.97,3.5965-1.9982,7.8847-4.095,11.4272-.0825.1392-.6055.0177-1.5571.0177,1.3948-9.441,3.24-18.7133,5.2267-27.9581.1449-.6742,1.0655-.616,2.0538-.4454.199,4.0509-1.5874,7.8991-1.7007,11.94a3.6793,3.6793,0,0,1-.45,2.15,9.5078,9.5078,0,0,1-.7928,1.3026c-.48.45-.6109-.2539-.2852.2816.2673.44.5306.2418.2044-.2461a4.0436,4.0436,0,0,0,.6089-.7985c.3088-.4276.52-.9491,1.1206-1.0667.1874.0241.3711.0506.5582.0769.14.1289.2763.258.4145.3882a1.4838,1.4838,0,0,1-.2273,1.0739,1,1,0,0,1-.4027.8329A2.5414,2.5414,0,0,1,40.599,110.1218Z" transform="translate(-17.5933 -7)"/><path class="cls-36" d="M168.2642,93.2132c-3.1841,22.0052-4.4347,27.1025-6.95,28.3868-1.1377-1.29-.0488-2.533.1619-3.74,1.3078-7.4911,2.7378-14.9609,4.0654-22.4487C165.791,94.0044,165.929,92.7181,168.2642,93.2132Z" transform="translate(-17.5933 -7)"/><path class="cls-37" d="M485.5882,46.0961c-.3608,2.0482.8334,3.3115,2.1185,4.6816,2.9057,3.0976,6.3478,5.6686,8.5935,9.4281a57.0936,57.0936,0,0,1,5.1657,11.92c.32.9915.5971,2.3339-.8679,2.9765a5.971,5.971,0,0,1-1.9669-1.4983c-.4278-.4453-.6226-1.0736-1.1378-1.4511l.0065.0526a4.3814,4.3814,0,0,1-.5786-1.8723,7.8206,7.8206,0,0,0-1.6291-5.4189,11.34,11.34,0,0,1-.6951-1.1521c-2.3916-4.88-6.5506-8.1173-10.6154-11.4466-.8577-1.0123-1.306-2.08-.4438-3.32C484.1728,47.9948,484.4378,46.7325,485.5882,46.0961Z" transform="translate(-17.5933 -7)"/><path class="cls-38" d="M412.5979,35.1125a1.5952,1.5952,0,0,1-1.2359,1.1253,32.4165,32.4165,0,0,0-11.4861,5.1133c-1.0428.6772-1.81,1.9532-3.3338,1.7079l.0955.0817a35.6914,35.6914,0,0,1,10.6489-10.1434,1.9345,1.9345,0,0,0,1.2579-.9841l-.05.04a10.3116,10.3116,0,0,0,1.13-.8626l.064-.0364c.4338-.6558,1.4832-.404,1.8053-1.2245l-.0711.0639c.52-.0986.7989-.5465,1.1939-.8261l.05-.0223c.478-.641,1.437-.4247,1.9114-1.0721l-.026.0136a3.7919,3.7919,0,0,1,1.02-.6888l.9374-.3319c2.746.2648,1.5364,1.91.9065,3.0308C416.2589,32.1552,414.3435,33.5712,412.5979,35.1125Z" transform="translate(-17.5933 -7)"/><path class="cls-39" d="M419.6023,39.1135c-.9326-.457-1.2556-1.09-.33-1.8167,5.3913-4.2337,10.8475-8.3862,16.1868-12.6842A65.1369,65.1369,0,0,0,440.3461,19.8c-.6045-.7811-1.2979-.6719-1.93-.755,1.5029-1.2465,3.309-.9627,5.0513-1.0007l1.0169.2221c.5,2.4973-1.619,3.3067-2.9637,4.6307-5.8517,5.7617-12.57,10.5321-18.4994,16.21C421.8829,39.9253,420.7421,40.159,419.6023,39.1135Z" transform="translate(-17.5933 -7)"/><path class="cls-40" d="M412.5979,35.1125c-.0027-2.7464,2.5751-3.6344,3.9178-5.41.7018-.9277,1.8172-1.7566-.0065-2.6365a6.4807,6.4807,0,0,1,4.0554-1.9685c.5467-.5858,1.4618-.3525,2.0216-.9093a.5107.5107,0,0,1,.6748-.2032,3.7551,3.7551,0,0,0,1.3188-.6825.8546.8546,0,0,1,.9245-.2286c.5907-.5343,1.4846-.3328,2.0794-.857a.685.685,0,0,1,.8216-.203c.4566.1587,1.0631.534.6813.9344a101.4617,101.4617,0,0,1-14.556,12.0577C414.0889,35.3237,413.2515,35.09,412.5979,35.1125Z" transform="translate(-17.5933 -7)"/><path class="cls-41" d="M444.5933,33.1108c-.1262-1.9926,1.3728-2.8637,2.6619-3.9A122.6072,122.6072,0,0,0,459.3725,18.813l-1.763-1.5756a9.7654,9.7654,0,0,1,5.9945.8292c.4734,3.1521-2.3016,4.0577-3.9716,5.716-2.2858,2.27-5.5931,3.5344-6.7669,6.9-1.2439,1.8536-3.3942,1.7422-5.1885,2.4031a8.5,8.5,0,0,0-1.9165.4644A1.3236,1.3236,0,0,1,444.5933,33.1108Z" transform="translate(-17.5933 -7)"/><path class="cls-42" d="M41.6647,105.1517c1.6673-1.3129,3.0091-3.0821,5.405-3.2918,3.2716-.2864,5.4759,1.2688,5.0812,4.4756-.6393,5.193-1.2264,10.4555-3.0773,15.3542-1.7961-.0209-1.8009-1.03-1.6209-2.0683q.85-4.9015,1.7711-9.7907c.3362-1.7963.67-3.5784-.2484-5.2763-3.1742-1.4281-4.6642.9071-6.4362,2.5409a.5919.5919,0,0,1-.95.0067l.0149.0134a1.5115,1.5115,0,0,1-.5708-1.0054A1.3924,1.3924,0,0,1,41.6647,105.1517Z" transform="translate(-17.5933 -7)"/><path class="cls-43" d="M419.6023,39.1135c1.0549-.16,2.3841.5021,2.9908-.9991a5.8924,5.8924,0,0,1,1.7963-.9169,15.0116,15.0116,0,0,1,2.6133-.8557,3.0165,3.0165,0,0,1,2.6161.6864c2.8574-1.58,5.961-.7133,8.9584-.9013q.5307.319.391.69-.144.384-.3074.3842-.0463.44-.08.881c-6.2483-.4765-11.97,1.5776-17.7374,3.561-3.5208,1.2109-6.8345,3.1757-10.6277,3.389a1.5976,1.5976,0,0,1,.3728-1.9238C413.3888,41.3163,417.1823,41.7644,419.6023,39.1135Z" transform="translate(-17.5933 -7)"/><path class="cls-44" d="M341.6,104.1181c1.06-1.7645,2.7867-2.242,4.6612-2.299,2.6122-.0794,4.2966,1.1584,4.2619,3.7646-.0708,5.3112-1.3868,10.4618-2.8,15.5611-.087.314-.7854.4585-1.6726.9373-.7694-6.1441,2.8028-11.7208,1.5094-17.31-2.05-1.4155-3.453-.2208-4.9335.3583l-.3838-.0782a1.6066,1.6066,0,0,1-.554-.5511Z" transform="translate(-17.5933 -7)"/><path class="cls-45" d="M420.4845,121.3053a38.7384,38.7384,0,0,1-3.8531-27.1843,2.78,2.78,0,0,1,3.4812,1.2039,3.5892,3.5892,0,0,1-.1636,3.13c-.48,5.3621-.8085,10.7219.2025,16.0643a49.47,49.47,0,0,1,1.1874,5.458A2.2355,2.2355,0,0,1,420.4845,121.3053Z" transform="translate(-17.5933 -7)"/><path class="cls-46" d="M103.5892,102.33a2.3962,2.3962,0,0,1,2.0211-.3474,1.3706,1.3706,0,0,1-.0335,1.9513l-.4293.2231-.4833-.0218a2.8968,2.8968,0,0,1-1.053.6328l-2.2652,2.3526a4.2586,4.2586,0,0,1-.7441,1.0114c-2.2823,4.3-3.2019,9.1237-4.7382,14.601-1.334-3.11.0537-15.3118,1.64-19.6328a1.2019,1.2019,0,0,1,1.9029-.7732c.7552.8732.0384,1.8621.1985,2.78.329,1.0013.6584.0308.9877,0l.1684.0514a4.7806,4.7806,0,0,1,.8312-1.0528l-.001.0013c.3452-.323.6807-.6557.999-1.0055l-.004.0029A4.35,4.35,0,0,1,103.5892,102.33Z" transform="translate(-17.5933 -7)"/><path class="cls-47" d="M267.6313,105.0287c-.1014-2.1989-1.6337-3.0991-3.7176-3.21-2.7608-.147-4.693,1.3328-6.4294,3.2178a2.76,2.76,0,0,0-1.1905,1.1612,6.0787,6.0787,0,0,1,.1119-2.2708c.3151-2.1931-.7819-2.1359-2.4979-1.37-.9086,6.3155-2.7461,12.5846-3.234,19.1821,1.9986.0711,2.5836-.912,2.693-2.1194.381-4.2033,2.3233-7.8311,4.0827-11.5333,1.9408-1.8449,3.2489-4.8652,7.2594-3.628,1.4451,5.8082-2.0014,11.36-1.7314,17.0182,1.02.3715,1.8989.2176,2.04-.3694C266.2866,115.8148,267.8861,110.5538,267.6313,105.0287Z" transform="translate(-17.5933 -7)"/><path class="cls-48" d="M442.4622,61.0318a36.3092,36.3092,0,0,1,20.2269-4.7984.963.963,0,0,1-.1126,1.1785,10.56,10.56,0,0,1-1.15.6515,40.1513,40.1513,0,0,0-6.066,2.63,57.6993,57.6993,0,0,0-6.9119,2.95,4.3184,4.3184,0,0,1-5.9866-2.611Z" transform="translate(-17.5933 -7)"/><path class="cls-49" d="M413.65,71.2274q-1.9742,5.9437-3.9481,11.8874c.5518.5316.2208,1.42.7866,1.946l-1.9525,8.0165c-2.6245-.8071-1.1762-2.6708-1.085-4.1824a51.9382,51.9382,0,0,1,10.0415-27.03c1.0761,1.0514.8039,2.1518.1187,3.2673l.0082-.0119c-.6413.5012-.4447,1.4423-1.0347,1.97l-.01.0135c-.3429.3331-.6525.6965-.9625,1.06a5.2432,5.2432,0,0,1-.0926.9593q-.4546.5045-.9209.9982l.0065-.0071A3.8094,3.8094,0,0,0,413.65,71.2274Z" transform="translate(-17.5933 -7)"/><path class="cls-50" d="M340.2657,108.0476c-2.7944,4.1925-3.3021,9.3687-5.5431,14.7-1.3023-4.093-.4773-9.9966,2.3891-20.5158a2.3169,2.3169,0,0,1,2.1506.39c-.2764,1.39-.92,2.9369-.5555,4.5484l-.1024-.1a1.1132,1.1132,0,0,1,.8253-.2646C340.1574,106.9172,340.1764,107.5061,340.2657,108.0476Z" transform="translate(-17.5933 -7)"/><path class="cls-51" d="M483.5378,48.9957c-.1586,1.2107.6759,2.0844,1.0561,3.1122a46.0792,46.0792,0,0,1,10.9988,12.001v0c.3205,1.4056-.69,1.5405-1.6456,1.73-1.7823-.058-2.5314-1.9726-4.1547-2.3184-1.3044-.8179-2.0933-2.2505-3.5008-2.95a1.3892,1.3892,0,0,1-.9428-1.5217c.2717-1.8667-1.3158-2.39-2.3659-3.3274-1.1243-1.0038-3.0486-1.5121-2.45-3.6757l0,.0266a3.9075,3.9075,0,0,0,1.0319-1.0433A3.6788,3.6788,0,0,1,483.5378,48.9957Z" transform="translate(-17.5933 -7)"/><path class="cls-52" d="M247.51,102.3378c-.6865,6.2092-2.1172,12.4006-3.4187,18.6073-.12.5708-.9195.9019-2.2206.6729a129.4929,129.4929,0,0,1,3.5123-18.97C245.5313,102.0629,246.4183,101.9671,247.51,102.3378Z" transform="translate(-17.5933 -7)"/><path class="cls-53" d="M310.3319,102.171c-1.0592,10.8594-2.8273,17.8445-5.5758,20.1212a142.3237,142.3237,0,0,1,3.4691-19.6283C308.3746,101.99,309.2956,102.06,310.3319,102.171Z" transform="translate(-17.5933 -7)"/><path class="cls-54" d="M438.6608,37.2014l-.0836-1.0745a1.223,1.223,0,0,0,1.0267-1.0051c1.7716-.4014,3.6021-.6562,4.9894-2.011q.4958-.0069.99-.0464.5306-.4548,1.0319-.9416a8.8205,8.8205,0,0,0,5.9835-2.0115c1.2461-1.5377,3.106-1.6722,4.8253-2.1275.6131-.1531,1.232-.2952,1.8424-.4619a10.9163,10.9163,0,0,1,1.793-.37,10.2776,10.2776,0,0,0,2.32-.5669,7.3308,7.3308,0,0,1,1.2045-.3619,10.3045,10.3045,0,0,1,2.6227-.1555c1.07.2709,2.438.1792,2.3493,1.8874l-1.8747.1926c-.8966.776-2.14.1521-3.0777.7625l-1.8007.2936c-.68.4153-1.5513.283-2.2057.7712-4.7132,1.5756-9.4309,3.1382-14.1374,4.7337-1.699.5759-3.55.888-4.74,2.4572Z" transform="translate(-17.5933 -7)"/><path class="cls-55" d="M420.4845,121.3053l.1331-1.2271c.6768-.6155,1.3458.019,2.0188.0126a67.3421,67.3421,0,0,0,12.0779,16.6163.734.734,0,0,1-.1023,1.2554C428.4868,133.6111,423.474,128.3162,420.4845,121.3053Z" transform="translate(-17.5933 -7)"/><path class="cls-56" d="M458.5336,29.0594c-2.0984-.3268-3.8291,1.42-5.9349,1.0519l-1.8248-.2773c4.04-4.4814,9.67-6.822,12.83-11.7674l.993.0781c2.2147,1.4083.9257,2.78-.1038,4.0636-1.6481,2.0548-3.8145,3.6261-5.4345,5.71A1.838,1.838,0,0,1,458.5336,29.0594Z" transform="translate(-17.5933 -7)"/><path class="cls-57" d="M426.47,72.9377c.6716-2.6074,2.94-3.6413,4.9032-4.9768,2.7516-.0612,2.3365,2.5748,3.3878,3.9676-.0932,2.8836-2.8211,3.7977-4.2562,5.6865a3.2273,3.2273,0,0,1-1.489.2667C426.145,77.2748,426.6621,74.9239,426.47,72.9377Z" transform="translate(-17.5933 -7)"/><path class="cls-58" d="M480.533,52.0461c1.4874,2.8954,5.2422,3.1454,6.8855,5.7082-.0759,1.3678-.99,1.255-1.7791,1.3335-.1787-.0048-.3574-.01-.5372-.0123a4.6413,4.6413,0,0,1-1.06-.2164,5.5374,5.5374,0,0,1-1.0069-.4439,4.3311,4.3311,0,0,0-1.6563-.3584c-1.4259-.1517-2.6362-1.046-4.0722-1.1552a4.6575,4.6575,0,0,0-3.6668.0654l-1.5917-.1178c.5936-2.4294,2.9079-1.7369,4.2608-2.5046C477.6889,53.5613,478.6939,51.9811,480.533,52.0461Z" transform="translate(-17.5933 -7)"/><path class="cls-59" d="M494.6892,123.1489c2.8319.2309,4.8876-2.2512,7.67-2.1946,1.0608-.4588,1.2952.075,1.2028,1.0014a55.3519,55.3519,0,0,1-21.9823,5.9582.79.79,0,0,1-.2235-.7129c.055-.2457.1145-.3685.1775-.3691q.54-.2906,1.0627-.6129c2.8009-.3922,5.6652-.5253,8.1992-2.0076a1.1044,1.1044,0,0,0,.7937-.0947C492.4422,123.2169,493.8236,124.0089,494.6892,123.1489Z" transform="translate(-17.5933 -7)"/><path class="cls-60" d="M514.5822,85.09c.9731-.7081,2.3543-.7968,3.0118-1.984,3.4029-.5958,4.6438-3.3527,5.9957-5.9985,1.0009-1.6361.7755-3.7922,2.2122-5.246.4773-.7126,1.2434-1.1536,1.7407-1.85a3.8968,3.8968,0,0,1,.058-.8983.8818.8818,0,0,1,1.3393.1,23.7159,23.7159,0,0,1-8.2455,14.75c-1.3332,1.1685-2.8354,2.3193-4.8107,2.3059C514.6358,86.7749,514.4131,86.149,514.5822,85.09Z" transform="translate(-17.5933 -7)"/><path class="cls-61" d="M442.4622,61.0318c1.9654-.4228,2.2357,2.5267,4.1979,2.11.3779,1.6559-1.1528,1.7594-1.9779,2.4378-2.0389,1.0556-3.6675,2.87-6.0549,3.29-3.54-.3638-2.1753-2.8392-2.0544-4.7808A12.61,12.61,0,0,1,442.4622,61.0318Z" transform="translate(-17.5933 -7)"/><path class="cls-62" d="M468.6687,19.0185c1.3859.09,2.883-.2559,3.97,1.0092.8631,1.75-1,2.503-1.3944,3.8383.2126.87,1.93.7351,1.4881,2.1028-1.6447,2.0269-3.7171.2-5.5387.625-1.2065.1413-2.4974-.3644-3.6128.4729l.0274.0864a1.9464,1.9464,0,0,1-2.0619.1788C461.7835,22.73,466.01,21.5454,468.6687,19.0185Z" transform="translate(-17.5933 -7)"/><path class="cls-63" d="M426.47,72.9377c1.1549.4757,1.1531,1.4848,1.1319,2.4894-.0282,1.3324.7872,1.6664,1.9115,1.6555-.3147,3.095-2.1452,5.0918-4.736,6.54-2.5572-.4418-2.4612-2.6811-3.0264-4.4733a12.9636,12.9636,0,0,1,3.6821-5.1037,2.0067,2.0067,0,0,0,1.0765-1.0536Z" transform="translate(-17.5933 -7)"/><path class="cls-64" d="M472.6336,25.1377h-3.673c.6032-2.4386,3.1028-3.1077,3.6785-5.11a7.5639,7.5639,0,0,1,6.1284,2.9034C477.4567,25.7067,475.58,26.9092,472.6336,25.1377Z" transform="translate(-17.5933 -7)"/><path class="cls-65" d="M438.6165,68.1193c2.1548-.6263,3.506-2.7316,5.7792-3.14,1.1314-.481,1.2959.125,1.1784,1.0481A77.0913,77.0913,0,0,0,430.566,79.0424a1.6627,1.6627,0,0,1-.0757-2.1813c.9538-1.9012,3.1831-2.747,3.9644-4.7909.0572-.2137.1143-.4273.167-.6429a5.2787,5.2787,0,0,1,.7534-1.0888C436.2035,69.2323,437.5792,68.9243,438.6165,68.1193Z" transform="translate(-17.5933 -7)"/><path class="cls-66" d="M419.5586,95.1c-1.1647.2384-1.9508-.6547-2.9272-.9792-.4284-2.163.5283-4.0661,1.133-6.0352.4345-.5971.274-1.4394.82-1.9907l-.0035.0042c1.68-.4378,2.8852.8456,4.3476,1.1992.6148,1.2381-.1943,2.1883-.6479,3.2123C421.2664,91.9779,421.8613,94.3992,419.5586,95.1Z" transform="translate(-17.5933 -7)"/><path class="cls-67" d="M438.6165,68.1193a6.6748,6.6748,0,0,1-3.0781,2.9765,4.3223,4.3223,0,0,1-.98.8888l-.1042.0856c-1.16.0223-1.8984-.3978-1.857-1.7035.0321-1.0151-.0146-2.0128-1.2248-2.4058a6.887,6.887,0,0,1,3.3188-2.8135c.4416-.6907,1.4409-.3866,1.8921-1.06l-.0109.0023c1.7409.9148.9163,2.1418.4149,3.3458C437.3009,68.1765,437.9943,68.0644,438.6165,68.1193Z" transform="translate(-17.5933 -7)"/><path class="cls-68" d="M468.6687,19.0185a3.2975,3.2975,0,0,1-1.9655,3.082,13.1411,13.1411,0,0,0-5.1021,5.0459q.522.3393.3262.64c-.1256.194-.25.2914-.3758.2914l-1.9414.0942a.614.614,0,0,1-1.0079-.0587c-1.0647-.398-.5856-.92-.0977-1.4106,1.9949-2.0071,3.9244-4.0886,6.03-5.9728,1.1134-.9964.3542-1.7232.0625-2.5855l2.0223.1711c.6375.3738,1.4367.2929,2.0516.73Z" transform="translate(-17.5933 -7)"/><path class="cls-69" d="M422.5856,87.1051c-1.8529,1.7272-2.6528-.7385-4.0048-1.0058.3249-2.65,1.7618-4.7933,3.17-6.9495,2.2689.3846,1.16,3.2634,2.9534,3.9994a1.7875,1.7875,0,0,1,.3186,1.9927C424.3623,85.9835,424.359,87.6442,422.5856,87.1051Z" transform="translate(-17.5933 -7)"/><path class="cls-70" d="M482.596,126.219a1.1454,1.1454,0,0,1-1.03.9153c-2.2366.96-4.5858.2317-6.8713.4588a8.5487,8.5487,0,0,1-3.4364-.3615l-4.6718-.24c-.9658-.72-2.2524-.13-3.2325-.7917-2.0053-.1671-4.1522.513-5.9341-.9912.1486-.6.7591-.672,1.1448-1.001l3.0094-.0343c2.1347,1.6768,4.6684.6492,6.994,1.0318,2.566,1.5264,5.406.6648,8.1162.8967C478.6441,126.27,480.6248,126.1889,482.596,126.219Z" transform="translate(-17.5933 -7)"/><path class="cls-71" d="M499.6252,12.9516c3.6283,2.1043,7.631,3.5462,10.9524,6.1931.1676.9243.0015,1.492-1.1153,1.0438l-11.8713-6.134c-.6029-.5915-1.52-.406-2.1713-.8787l-.4283.0108-.3863-.1853a1.5147,1.5147,0,0,1-.5685-1.0316,1.8588,1.8588,0,0,1,.4837-1.0776,5.1614,5.1614,0,0,1,2.832.6074c.3721.0825.746.164,1.12.24C498.9926,12.013,499.15,12.6338,499.6252,12.9516Z" transform="translate(-17.5933 -7)"/><path class="cls-72" d="M417.6114,65.132q-.0592-1.6337-.1187-3.2673a13.6235,13.6235,0,0,1,4.0748-5.7854c.1644,1.1917,1.8664.8522,2.0331,2.0418C421.793,60.6193,420.4845,63.544,417.6114,65.132Z" transform="translate(-17.5933 -7)"/><path class="cls-73" d="M528.7012,41.0849c.8487-.3377,1.54-.9589,2.5255.0892,2.4011,2.5528,4.2661,5.2893,4.3689,8.931-1.0209.5051-1.7717-.0427-2.5131-.6378-.8936-1.05-1.3878-2.3786-2.348-3.3855Z" transform="translate(-17.5933 -7)"/><path class="cls-74" d="M525.75,28.7873c-.2233.6671-.6273,1.3333-1.3012.6089-3.2442-3.4871-7.1949-6.31-9.8059-10.3915C519.0083,21.5123,523.0792,24.3547,525.75,28.7873Z" transform="translate(-17.5933 -7)"/><path class="cls-75" d="M472.6336,25.1377c2.5106.56,4.29-.9129,6.1339-2.2066,1.561,2.4766-.42,3.2482-2.0669,3.696a24.4123,24.4123,0,0,1-7.1443,1.3276c-.69-1.3782-2.0051-.6484-3.0293-.9q-.4282-.3569-.2429-.65.1744-.2771.3389-.2773C468.62,25.7589,470.8745,26.9519,472.6336,25.1377Z" transform="translate(-17.5933 -7)"/><path class="cls-76" d="M458.565,124.2078a1.4032,1.4032,0,0,1-1.1448,1.001c-3.7121.3465-7.1947-1.23-10.8576-1.2956a3.1035,3.1035,0,0,0-2.9558.0541l-1.0074.0788a1.0792,1.0792,0,0,1,0-1.7231C448.1153,121.306,453.2463,123.5519,458.565,124.2078Z" transform="translate(-17.5933 -7)"/><path class="cls-77" d="M482.5391,17.2855l.0893-1.2062c4.472-.0722,7.5395,2.8751,10.947,5.0915.1128.8829-.1116,1.3938-1.1322,1.0265Z" transform="translate(-17.5933 -7)"/><path class="cls-78" d="M419.5859,115.1028a31.1252,31.1252,0,0,1-.053-17.0914c.9894,1.2365.3669,2.69.5449,4.0358.1932,3.0124-.4059,6.0573.3646,9.0471l.2685,2.7462a1.56,1.56,0,0,1,.0887,1.3387A.8749.8749,0,0,1,419.5859,115.1028Z" transform="translate(-17.5933 -7)"/><path class="cls-79" d="M419.591,102.1094q-.0291-2.049-.0581-4.098.0129-1.4556.0257-2.9112l2.0817-4.9739c1.0564-.1,1.5622.2538,1.1358,1.3769l-2.3845,10.6047Q419.9925,102.78,419.591,102.1094Z" transform="translate(-17.5933 -7)"/><path class="cls-80" d="M469.6341,8.2063c-1.43,1.7009-3.3566.7577-5.0447.858a47.6981,47.6981,0,0,1-8.3068-.2776c3.1455-.6368,6.1034-2.18,9.4333-1.6043C466.8373,8.23,468.5675,6.9487,469.6341,8.2063Z" transform="translate(-17.5933 -7)"/><path class="cls-81" d="M424.502,84.97l.2021-1.821c2.0942-1.6328,3.2562-4.0046,4.809-6.0666l.9772-.2215q.038,1.0907.0758,2.1813l-.033.0448q-.464.5241-.9282,1.0478l.0138-.0165a3.4088,3.4088,0,0,0-.9617,1.1728l-3.1807,4.7993C424.5913,86.2043,424.0034,86.06,424.502,84.97Z" transform="translate(-17.5933 -7)"/><path class="cls-82" d="M514.5822,85.09a1.619,1.619,0,0,0,1.3015,1.1786c-3.37,1.2366-6.701,2.1323-9.5585-1.0971a.8776.8776,0,0,1,1.3075-.1035l4.9575.0118.9947-.0714Z" transform="translate(-17.5933 -7)"/><path class="cls-83" d="M514.5259,114.0354l2.1443-2.69a31.748,31.748,0,0,1,2.6427-2.3024,1.7243,1.7243,0,0,1,1.13-.29,2.22,2.22,0,0,1,.943.7247c.0613.192.1206.3853.18.5786a18.1148,18.1148,0,0,1-6.0115,4.9161,5.2766,5.2766,0,0,0-.8918-.4535Q514.5932,114.2776,514.5259,114.0354Z" transform="translate(-17.5933 -7)"/><path class="cls-84" d="M516.5871,24.1218a19.3118,19.3118,0,0,1,7.0421,7.9849c-.3148.4322-.616.4015-.9053-.0269l-6.9486-7.0238A1.4247,1.4247,0,0,1,516.5871,24.1218Z" transform="translate(-17.5933 -7)"/><path class="cls-85" d="M448.4477,63.03a14.02,14.02,0,0,1,6.8976-3.065c1.0569-.4735,1.3012.0566,1.22.9882a27.5182,27.5182,0,0,1-7,3.0006C449.1216,63.7325,448.5523,63.6626,448.4477,63.03Z" transform="translate(-17.5933 -7)"/><path class="cls-86" d="M407.4512,88.8949c.6144,1.3286-.8,3.1834,1.085,4.1824.3769,2.1172-.6059,4.0137-.9757,6.01-.3091.4679-.5952.4787-.8545-.043C406.6414,95.638,405.9738,92.1877,407.4512,88.8949Z" transform="translate(-17.5933 -7)"/><path class="cls-87" d="M528.6273,62.1147l-.117-.9951c.8395-4.1294-1.3094-8.0391-.8924-12.1375,2.1949,4.1445,2.327,8.6009,1.9856,13.1289Q529.118,62.7877,528.6273,62.1147Z" transform="translate(-17.5933 -7)"/><path class="cls-88" d="M491.6467,11.96a11.4354,11.4354,0,0,1-5.1654-1.7837c.4718-.9405,1.3734-1.0436,2.2665-1.1634a9.64,9.64,0,0,1,4.8156.718,1.3868,1.3868,0,0,1,.4039,1.2045C493.4961,11.96,492.3293,11.4112,491.6467,11.96Z" transform="translate(-17.5933 -7)"/><path class="cls-89" d="M474.59,146.0358l13.0058.1859q.1473.3258.2943.6529a1.3866,1.3866,0,0,1-1.1519.7047c-.7325.0154-1.4641.0144-2.1975.0128q-3.3894.002-6.7766.0011a11.7481,11.7481,0,0,1-3.0858-.2005A.8947.8947,0,0,1,474.59,146.0358Z" transform="translate(-17.5933 -7)"/><path class="cls-90" d="M462.6261,12.0512c-4.309-.1339-8.6435.5557-12.927-.401a48.1944,48.1944,0,0,1,12.8345-.6766q.4311.3247.3286.6954Q462.7568,12.0512,462.6261,12.0512Z" transform="translate(-17.5933 -7)"/><path class="cls-91" d="M529.4932,101.0845a15.0735,15.0735,0,0,1-4.0253,4.9655c-.2036-.0861-.4072-.1721-.6124-.2564a1.9458,1.9458,0,0,1-.6464-1.118c.0465-.2148.0959-.4307.1425-.6463.8631-1.5163,1.6183-3.1177,3.1518-4.1263a1.9263,1.9263,0,0,1,1.2911.0519A9.5788,9.5788,0,0,1,529.4932,101.0845Z" transform="translate(-17.5933 -7)"/><path class="cls-92" d="M509.4623,20.1885a1.3318,1.3318,0,0,0,1.1153-1.0438c1.7368,1.2405,3.9757,1.8585,4.9745,4.0136l-.122.4279-.3134.3168-.4261.13Z" transform="translate(-17.5933 -7)"/><path class="cls-93" d="M477.5462,56.2126c1.7365-.243,3.1186,1.3012,4.8734.9662a1.3484,1.3484,0,0,1,.6568,1.0752,1.3135,1.3135,0,0,1-.5663,1.1206c-2.1082-.475-4.2464-.8669-6.0508-2.1837C476.584,56.6008,477.1819,56.5365,477.5462,56.2126Z" transform="translate(-17.5933 -7)"/><path class="cls-94" d="M456.5657,60.9535a1.5006,1.5006,0,0,0-1.22-.9882c1.814-1.5911,4.1283-1.997,6.3291-2.6721a1.757,1.757,0,0,1,1.04.8853C460.91,59.6471,458.6559,60.1187,456.5657,60.9535Z" transform="translate(-17.5933 -7)"/><path class="cls-95" d="M508.4141,118.0086l6.1118-3.9732.2.2257a1.204,1.204,0,0,1-.0395,1.2937,5.5569,5.5569,0,0,1-2.3148,1.8594,1.439,1.439,0,0,0-.5378.4584l-2.2613,1.0989C509.118,118.7331,508.5318,118.6527,508.4141,118.0086Z" transform="translate(-17.5933 -7)"/><path class="cls-96" d="M424.502,84.97a1.3476,1.3476,0,0,0,.9743,1.12l-2.7,5.4126a1.6557,1.6557,0,0,0-1.1358-1.3769c.2251-1.0352,1.1492-1.8517.9453-3.0212Z" transform="translate(-17.5933 -7)"/><path class="cls-5" d="M457.6059,103.0743l-.0144,1.0357c-2.8032.4555-5.3073-1.4042-8.0979-1.046C452.2,101.0486,454.9022,102.7365,457.6059,103.0743Z" transform="translate(-17.5933 -7)"/><path class="cls-97" d="M249.3823,95.9648c-.3588,1.7332-1.0365,2.7164-2.7175,2.0869a1.2894,1.2894,0,0,1-.6986-1.9968C246.83,94.6244,247.9421,94.4873,249.3823,95.9648Z" transform="translate(-17.5933 -7)"/><path class="cls-98" d="M312.2433,96.5677c-.36.9726-.8746,1.8013-2.0814,1.6715a1.4882,1.4882,0,0,1-1.4783-1.6107,1.7258,1.7258,0,0,1,1.9987-1.67C311.6476,95.0174,312.0257,95.7409,312.2433,96.5677Z" transform="translate(-17.5933 -7)"/><path class="cls-99" d="M528.6273,62.1147q.4881-.0074.9762-.0037c.0331,2.3912.6261,4.8347-.6636,7.1022l-1.3393-.1C527.3606,66.6952,529.0471,64.56,528.6273,62.1147Z" transform="translate(-17.5933 -7)"/><path class="cls-100" d="M419.5859,115.1028q.4764.0053.9526-.01a1.5888,1.5888,0,0,1,.8825,1.009q.6076,1.9943,1.2154,3.9886c-.6826,1.5529-1.3452-.12-2.0188-.0126C420.58,118.3562,419.1467,116.9237,419.5859,115.1028Z" transform="translate(-17.5933 -7)"/><path class="cls-101" d="M480.6263,8.9874l-7.974-1.0118c-.3675-.1629-.4892-.3253-.3676-.4888a.4882.4882,0,0,1,.3677-.2441,18.9756,18.9756,0,0,1,5.9629-.0138c.6257.5515,1.5281.2632,2.1866.7193A.8338.8338,0,0,1,480.6263,8.9874Z" transform="translate(-17.5933 -7)"/><path class="cls-102" d="M480.6263,8.9874a2.1415,2.1415,0,0,1,.0489-.8283,1.6686,1.6686,0,0,1,2.1283-.1708l2.785.25c.8879.7029,2.097.1,3.0008.7379l.1585.0366c-.3771,1.125-1.3922,1.0071-2.2665,1.1634l-1.8757-.2965c-.68-.3514-1.501-.2507-2.16-.6694Z" transform="translate(-17.5933 -7)"/><path class="cls-103" d="M539.4483,81.068c-.3893,1.7753-.4591,3.665-1.8236,5.0909a1.8763,1.8763,0,0,1-1.4358-1.3549c.0781-1.8437-.0262-3.758,1.826-4.95C538.9191,79.7543,539.1289,80.4758,539.4483,81.068Z" transform="translate(-17.5933 -7)"/><path class="cls-104" d="M419.591,102.1094q.4-.0033.8006-.0015.0254,4.4932.0508,8.9864C418.5151,108.2551,420.0651,105.0863,419.591,102.1094Z" transform="translate(-17.5933 -7)"/><path class="cls-105" d="M540.5208,72.1143a18.1436,18.1436,0,0,1-.31,6.211,2.01,2.01,0,0,0-.2914.6776l-.3207.1082a.8746.8746,0,0,1-1.3071.035,3.7653,3.7653,0,0,1-.4474-2.87,13.1609,13.1609,0,0,1,1.4036-4.0908A.98.98,0,0,1,540.5208,72.1143Z" transform="translate(-17.5933 -7)"/><path class="cls-106" d="M407.6072,101.1188c1.33,2.0682,1.1361,4.2581.462,6.5114-.1764-2.2628-1.6787-4.2073-1.427-6.5506C406.9822,100.6418,407.3029,100.6771,407.6072,101.1188Z" transform="translate(-17.5933 -7)"/><path class="cls-107" d="M540.5208,72.1143q-.4353-.0041-.87.0171c-2.1507-2.6786-1.5783-5.5775-.6918-8.504a1.041,1.041,0,0,1,1.49-.47A41.7141,41.7141,0,0,1,540.5208,72.1143Z" transform="translate(-17.5933 -7)"/><path class="cls-108" d="M477.6545,147.2179l7.8664.0314c.3686.1334.4957.2783.384.4366-.1149.1629-.2306.2452-.35.2452a39.0019,39.0019,0,0,1-7.9186.0339c-.3576-.1748-.4734-.3432-.35-.507A.4891.4891,0,0,1,477.6545,147.2179Z" transform="translate(-17.5933 -7)"/><path class="cls-109" d="M498.5731,73.0986a2.9974,2.9974,0,0,1,2.0249,2.0037c.3177,1.031,1.302,1.8707.8928,3.11-1.8777-1.2484-2.6675-3.29-3.74-5.1261C498.03,72.7541,498.3036,72.7737,498.5731,73.0986Z" transform="translate(-17.5933 -7)"/><path class="cls-110" d="M538.6765,54.9949c1.6212,1.77.7406,4.2054,1.64,6.1675-.25.8386-.6741,1.3891-1.6646,1.01-1.6984-1.7666-1.3565-3.8527-.9373-5.9541A2.5145,2.5145,0,0,1,538.6765,54.9949Z" transform="translate(-17.5933 -7)"/><path class="cls-111" d="M532.32,97.0333a6.3544,6.3544,0,0,1-2.2012,3.1546,1.2041,1.2041,0,0,1-1.3947.0415l-.2091-.2043c-.4684-2.1573.5194-3.4685,2.4559-4.2308A1.3231,1.3231,0,0,1,532.32,97.0333Z" transform="translate(-17.5933 -7)"/><path class="cls-112" d="M412.2193,26.58c-.7229,1.9631-3.1495,1.5386-4.0476,3.2132C409.0678,27.3014,409.0678,27.3014,412.2193,26.58Z" transform="translate(-17.5933 -7)"/><path class="cls-113" d="M504.3452,142.967a13.349,13.349,0,0,1,5.2709-1.7547q.5066.2972.3218.5638c-.1186.1723-.2374.259-.3579.259-.915,1.54-2.775,1.0653-4.026,1.8888C505.1167,143.6483,504.5083,143.5889,504.3452,142.967Z" transform="translate(-17.5933 -7)"/><path class="cls-114" d="M437.6832,15.1753c-1.8324,1.3274-4.0443,1.3047-6.1321,1.7238l.0132-.6686c1.4627-1.2865,3.3031-1.5778,5.1161-1.9413A1.787,1.787,0,0,1,437.6832,15.1753Z" transform="translate(-17.5933 -7)"/><path class="cls-115" d="M448.4477,63.03a1.3136,1.3136,0,0,1,1.1179.9238l-3.9915,2.0735a1.4593,1.4593,0,0,0-1.1784-1.0481q1.1322-.9187,2.2644-1.8376Z" transform="translate(-17.5933 -7)"/><path class="cls-116" d="M489.6067,63.1018c1.8391-.3446,2.51,1.5779,3.9385,2.03a1.359,1.359,0,0,1,.593,1.4762,1.0033,1.0033,0,0,1-.8055.6934l-4.7178-4.1948C488.9436,62.7021,489.2741,62.6811,489.6067,63.1018Z" transform="translate(-17.5933 -7)"/><path class="cls-2" d="M340.2657,108.0476l-.836-1.2424a3.7941,3.7941,0,0,1,2.17-2.6871l.15.2383a1.9023,1.9023,0,0,1,.6164.6124l.26.162Z" transform="translate(-17.5933 -7)"/><path class="cls-117" d="M530.7345,46.0818c2.08-.0564,2.0379,1.895,2.8623,3.0264a.7185.7185,0,0,1,.3452.7072q-.0726.4041-.19.4043c-1.1377.4736-1.5809-.3516-2.0624-1.1052C531.2943,48.1278,530.393,47.3006,530.7345,46.0818Z" transform="translate(-17.5933 -7)"/><path class="cls-118" d="M474.6623,127.1373l6.904-.003q.02.39.013.78a24.3337,24.3337,0,0,1-6.9579-.0224q-.5038-.2794-.3179-.5217A.4783.4783,0,0,1,474.6623,127.1373Z" transform="translate(-17.5933 -7)"/><path class="cls-119" d="M482.51,59.3746q.053-.6621.1058-1.3241a.6554.6554,0,0,1,.97-.0277,2.18,2.18,0,0,0,.8923.132c.41.2623.7339.6308,1.13.91l.0312.0233a1.2277,1.2277,0,0,0,.951,1.031.8872.8872,0,0,1-.121,1.4032A12.0443,12.0443,0,0,1,482.51,59.3746Z" transform="translate(-17.5933 -7)"/><path class="cls-120" d="M462.5372,57.043q.0827-.4035.1519-.81a12.8873,12.8873,0,0,1,4.9224.0151c-1.4579,1.117-2.5564,1.8592-4.0629,1.7689C463.2321,57.6712,462.57,57.6835,462.5372,57.043Z" transform="translate(-17.5933 -7)"/><path class="cls-121" d="M534.5547,93.0989a5.6149,5.6149,0,0,1-1.8885,3.1288,2.9955,2.9955,0,0,1-1.4048-1.31A2.8078,2.8078,0,0,1,533.2,91.8242C533.9711,91.908,534.2506,92.5165,534.5547,93.0989Z" transform="translate(-17.5933 -7)"/><path class="cls-122" d="M503.5616,121.9557a1.5139,1.5139,0,0,0-1.2028-1.0014,6.8711,6.8711,0,0,1,3.3081-1.6031c.4984.16,1.0761.2155,1.1794.8958C506.0051,121.3042,504.72,121.5082,503.5616,121.9557Z" transform="translate(-17.5933 -7)"/><path class="cls-123" d="M492.4432,22.1973a1.3534,1.3534,0,0,0,1.1322-1.0265l1.9717.9694q-.016,1.2381-.032,2.4764A6.95,6.95,0,0,1,492.4432,22.1973Z" transform="translate(-17.5933 -7)"/><path class="cls-124" d="M493.5854,11.0605l-.022-1.33c1.3485.4516,2.975-.0714,4.0986,1.1689q.4677.3921.2907.7567-.1731.3574-.3382.3577c-1.161.3042-1.9949-.7007-3.0637-.7657A.6511.6511,0,0,1,493.5854,11.0605Z" transform="translate(-17.5933 -7)"/><path class="cls-125" d="M506.8463,120.247a1.4745,1.4745,0,0,1-1.1794-.8958q.5567-.5795,1.1132-1.1588l1.634-.1838a1.3883,1.3883,0,0,1,1.1587.9629C508.7479,119.5761,507.9951,120.3348,506.8463,120.247Z" transform="translate(-17.5933 -7)"/><path class="cls-126" d="M536.5258,50.125l.0813-2.1468c1.3021,1.4769,1.5235,3.33,1.7982,5.1648a1.2535,1.2535,0,0,1-1.2924-.0015C536.1837,52.2794,535.6042,51.3477,536.5258,50.125Z" transform="translate(-17.5933 -7)"/><path class="cls-127" d="M503.2784,81.205l1.3116-.096c.9668.871,2.7637,1.1985,2.0679,3.1587a1.2129,1.2129,0,0,1-1.3033-.1021A4.4577,4.4577,0,0,1,503.2784,81.205Z" transform="translate(-17.5933 -7)"/><path class="cls-128" d="M477.6545,147.2179a1.9232,1.9232,0,0,0-.018.7471c-1.7882.09-3.6336.5666-5.2095-.7734a1.51,1.51,0,0,1,2.1249-.1394Z" transform="translate(-17.5933 -7)"/><path class="cls-129" d="M513.6462,140.332c-.7561,1.0828-1.9811,1.2765-3.1152,1.6428q-.3674-.3478-.2233-.67.1408-.3162.2719-.3163c.71-1.1335,1.9264-1.285,3.0678-1.5819q.4382.3091.2916.6177T513.6462,140.332Z" transform="translate(-17.5933 -7)"/><path class="cls-130" d="M522.7239,32.08q.4521.0311.9053.0269a2.6278,2.6278,0,0,1,1.8821,3.1076A6.2542,6.2542,0,0,1,522.7239,32.08Z" transform="translate(-17.5933 -7)"/><path class="cls-131" d="M504.3452,142.967a1.5134,1.5134,0,0,1,1.2088.9569l-3.0519.9118c-.4549-.2053-1.0388-.2465-1.143-.8981A4.0906,4.0906,0,0,1,504.3452,142.967Z" transform="translate(-17.5933 -7)"/><path class="cls-132" d="M497.58,70.1142l-.08,2.0913a5.9564,5.9564,0,0,1-2.81-3.1289,1.7688,1.7688,0,0,1,1.1128-.4775A1.942,1.942,0,0,1,497.58,70.1142Z" transform="translate(-17.5933 -7)"/><path class="cls-133" d="M495.6436,145.1282l3.0747-.5111a.8086.8086,0,0,1,.9426.5369c-.9889,1.6009-2.6259.8246-3.98,1.0852a.6643.6643,0,0,1-.2988-.7315Q495.5078,145.1282,495.6436,145.1282Z" transform="translate(-17.5933 -7)"/><path class="cls-134" d="M531.69,49.1145l1.8885,1a1.97,1.97,0,0,1,.7153,1.8407,2.2205,2.2205,0,0,1-.7072,1.1576q-.4508-.0006-.9012-.0117C532.619,51.706,531.3773,50.6042,531.69,49.1145Z" transform="translate(-17.5933 -7)"/><path class="cls-135" d="M495.6436,145.1282l.0371,1.111.0028-.0405a3.5279,3.5279,0,0,1-2.0064.3935c-.6955.0019-1.391.0036-2.087-.0094a1.3084,1.3084,0,0,1-1.1555-.6038C492.0042,144.6748,493.89,145.3078,495.6436,145.1282Z" transform="translate(-17.5933 -7)"/><path class="cls-136" d="M534.5547,93.0989a1.1932,1.1932,0,0,1-.9833-1.05,2.6466,2.6466,0,0,1,.9456-3.16,1.4771,1.4771,0,0,1,1.32.2482,2.3588,2.3588,0,0,1-.1264,1.3817C535.8644,91.6205,535.0952,92.3085,534.5547,93.0989Z" transform="translate(-17.5933 -7)"/><path class="cls-137" d="M486.4694,61.522l.121-1.4032a5.4149,5.4149,0,0,1,3.0163,2.983l-.496-.0119-.4958.0165A4.0023,4.0023,0,0,1,486.4694,61.522Z" transform="translate(-17.5933 -7)"/><path class="cls-138" d="M469.6341,8.2063c-1.2564-.5313-2.9791.7217-3.9182-1.0239l4.9224.0594q.4476.2541.2963.5043c-.1.1658-.2.249-.3013.249Z" transform="translate(-17.5933 -7)"/><path class="cls-139" d="M467.5,145.2387a8.68,8.68,0,0,0,4.15.85q.4386.3549.2844.7-.1524.3421-.3022.3423c-1.4172-.0352-2.9453.425-4.071-.9119q-.4629-.2993-.3358-.6352Q467.355,145.2388,467.5,145.2387Z" transform="translate(-17.5933 -7)"/><path class="cls-2" d="M41.6647,105.1517a2.3338,2.3338,0,0,1-.1168.8819,5.587,5.587,0,0,1-.88,1.0967l-1.0089.8875.0468.0363" transform="translate(-17.5933 -7)"/><path class="cls-140" d="M499.6609,145.154l-.9426-.5369a4.5713,4.5713,0,0,1,2.6408-.6795l1.143.8981Z" transform="translate(-17.5933 -7)"/><path class="cls-141" d="M439.4821,140.3044a2.4167,2.4167,0,0,1,2.1163,1.7353.5491.5491,0,0,1,.2689.5818q-.0838.3193-.19.3194a2.4987,2.4987,0,0,1-2.0953-1.4825.7269.7269,0,0,1-.3276-.7467Q439.3544,140.3045,439.4821,140.3044Z" transform="translate(-17.5933 -7)"/><path class="cls-142" d="M462.6261,12.0512q-.0462-.5388-.0925-1.0776c1.0322-.8441,2.0414-.0848,3.06.044l.0134,1.0543Z" transform="translate(-17.5933 -7)"/><path class="cls-143" d="M438.6454,140.9414a2.6376,2.6376,0,0,1-2.0969-1.5482q-.1866-.486-.4052-.96c.1353-.109.2722-.2171.4091-.3252A2.9138,2.9138,0,0,1,438.6118,140q.399.3.2809.6185Q438.7735,140.9414,438.6454,140.9414Z" transform="translate(-17.5933 -7)"/><path class="cls-144" d="M211.5875,46.1c-.0857.8874-.6809,1.3161-1.5044,1.632a1.7465,1.7465,0,0,1,.3395-2.6886C210.7068,45.5107,210.8728,46.1079,211.5875,46.1Z" transform="translate(-17.5933 -7)"/><path class="cls-145" d="M189.4175,46.8135c.0853.9309-.4518,1.4592-1.3449,1.9821-.6619-1.0712-.8455-1.9532.39-2.7007Z" transform="translate(-17.5933 -7)"/><path class="cls-74" d="M514.6853,19.04a2.539,2.539,0,0,1-3.0625-2.0022A3.6064,3.6064,0,0,1,514.6853,19.04Z" transform="translate(-17.5933 -7)"/><path class="cls-146" d="M477.5462,56.2126a1.3656,1.3656,0,0,1-1.0869.9783l-2.82-.2239C474.6261,55.0812,476.21,56.2888,477.5462,56.2126Z" transform="translate(-17.5933 -7)"/><path class="cls-147" d="M100.5924,105.1077l-1.2939,2.5776c-1.142-1.1082-.6866-1.885.3062-2.5778Z" transform="translate(-17.5933 -7)"/><path class="cls-148" d="M536.746,85.1422c.54.1254.739.5455.8787,1.0167-.0311.7821.0508,1.6129-.8689,2.0109a.8631.8631,0,0,1-1.1427.2257c-.1261-.1829-.2521-.3663-.38-.5492-.014-.2221-.0263-.4446-.0429-.6678A2.6871,2.6871,0,0,1,536.746,85.1422Z" transform="translate(-17.5933 -7)"/><path class="cls-149" d="M524.4368,107.06a1.1152,1.1152,0,0,1-.9671,1.0106,1.412,1.412,0,0,1-1.87.2973c-.7367-1.547.4145-2.0433,1.45-2.6056A1.403,1.403,0,0,1,524.4368,107.06Z" transform="translate(-17.5933 -7)"/><path class="cls-150" d="M482.8035,7.9883l-2.1283.1708c-.79-.0821-1.6833.0664-2.06-.93C480.0661,7.18,481.5694,6.8417,482.8035,7.9883Z" transform="translate(-17.5933 -7)"/><path class="cls-149" d="M521.6832,108.1326l1.7865-.062a3.3727,3.3727,0,0,1-1.9039,1.9854l-.1144-.2694a1.1507,1.1507,0,0,1-.6511-.6165l-.26-.0737C520.3993,108.1562,520.6763,107.7117,521.6832,108.1326Z" transform="translate(-17.5933 -7)"/><path class="cls-130" d="M525.474,35.166c1.7846.4343,2.2512,1.6644,2.0069,3.3237A4.498,4.498,0,0,1,525.474,35.166Z" transform="translate(-17.5933 -7)"/><path class="cls-151" d="M490.6772,147.2c-.83,1.1106-1.9746.9419-3.1206.7664q-.4522-.2956-.2777-.5486c.1106-.161.2207-.242.3316-.242l-.039-.1288a2.6532,2.6532,0,0,1,1.9466-.4134A1.3633,1.3633,0,0,1,490.6772,147.2Z" transform="translate(-17.5933 -7)"/><path class="cls-152" d="M516.5871,24.1218a.9818.9818,0,0,1-.8118.9342l-1.0847-1.0227L514.8,23.95q.3615-.3765.7243-.7521l.028-.04A1.2554,1.2554,0,0,1,516.5871,24.1218Z" transform="translate(-17.5933 -7)"/><path class="cls-153" d="M187.85,118.12a2.9633,2.9633,0,0,1,1.6887-1.9917c-.1918.7418-.153,1.61-1.0685,1.9562A3.1787,3.1787,0,0,1,187.85,118.12Z" transform="translate(-17.5933 -7)"/><path class="cls-154" d="M426.65,18.1276c.6712-1.2822,1.8727-.9967,2.9744-1.0063l-.0767-.0808c-.5108,1.703-1.9345.7769-2.9507,1.0246Z" transform="translate(-17.5933 -7)"/><path class="cls-75" d="M464.6039,28.91c.7677-1.2962,1.9972-.7285,3.0777-.7625C466.8192,29.0616,465.7085,28.9736,464.6039,28.91Z" transform="translate(-17.5933 -7)"/><path class="cls-155" d="M443.6068,123.9673c.9628-1.2442,1.9483-1.2528,2.9558-.0541Z" transform="translate(-17.5933 -7)"/><path class="cls-156" d="M463.3543,126.2c1.1315.0434,2.4418-.6433,3.2325.7917A3.3329,3.3329,0,0,1,463.3543,126.2Z" transform="translate(-17.5933 -7)"/><path class="cls-101" d="M488.5893,8.9758c-1.0929.1306-2.26.5628-3.0008-.7379C486.6747,8.1342,487.8313,7.7444,488.5893,8.9758Z" transform="translate(-17.5933 -7)"/><path class="cls-156" d="M474.6623,127.1373a5.2375,5.2375,0,0,0-.0409.7542,3.6493,3.6493,0,0,1-3.3628-.66Z" transform="translate(-17.5933 -7)"/><path class="cls-157" d="M444.56,134.1642a2.5419,2.5419,0,0,1,1.9952,2.0322,1.84,1.84,0,0,1-1.9645-1.0826q-.3687-.3049-.26-.6254Q444.4414,134.1642,444.56,134.1642Z" transform="translate(-17.5933 -7)"/><path class="cls-158" d="M524.4368,107.06a.9078.9078,0,0,1-.82-.8612c-.4227-1.0059.0253-1.2827.9627-1.15l.0726.2662a1.0143,1.0143,0,0,1,.5831.6265l.2328.1082A1.3526,1.3526,0,0,1,524.4368,107.06Z" transform="translate(-17.5933 -7)"/><path class="cls-159" d="M447.5123,137.1581c.9064-.0779,1.7614-.05,2.1089,1.0236l.0195.6573A2.5974,2.5974,0,0,1,447.5123,137.1581Z" transform="translate(-17.5933 -7)"/><path class="cls-160" d="M437.6832,15.1753l-1.0028-.8861,1.7942-.239,1.072.827Z" transform="translate(-17.5933 -7)"/><path class="cls-161" d="M458.5284,143.11c1.1043.1319,2.4528-.4385,3.0786,1.07C460.4458,144.2118,459.2584,144.319,458.5284,143.11Z" transform="translate(-17.5933 -7)"/><path class="cls-162" d="M537.5748,53.1065q.4155.0117.8305.0365l.2712,1.8519q-.08.5363-.1591,1.0724C536.3705,55.6637,536.8145,54.4355,537.5748,53.1065Z" transform="translate(-17.5933 -7)"/><path class="cls-163" d="M467.5,145.2387a3.5837,3.5837,0,0,1,.061.98c-1.239-.0539-2.5393.0871-3.4294-1.0775Z" transform="translate(-17.5933 -7)"/><path class="cls-164" d="M471.6317,147.131q.0088-.5211.0178-1.0421l1.1753-.1181,1.7648.065-.0377,1.0164-2.1249.1394-.4028.0375Z" transform="translate(-17.5933 -7)"/><path class="cls-74" d="M497.6145,12.0137q.0238-.5572.0476-1.1144c1.1166.1846,2.3658-.0044,3.15,1.1173l-1.199.0964a.72.72,0,0,1-1.1081.0595A2.3836,2.3836,0,0,1,497.6145,12.0137Z" transform="translate(-17.5933 -7)"/><path class="cls-165" d="M493.5854,11.0605a2.967,2.967,0,0,1,.9654.1875q.0363.437.0465.8752a1.4133,1.4133,0,0,1-2.0186,0l-.4812.0042-.4508-.1683C491.9692,10.9617,492.8456,11.1583,493.5854,11.0605Z" transform="translate(-17.5933 -7)"/><path class="cls-166" d="M105.5768,103.9341l.0335-1.9513a.777.777,0,0,1,.92.7306C106.5718,103.3478,106.3937,103.9188,105.5768,103.9341Z" transform="translate(-17.5933 -7)"/><path class="cls-61" d="M436.5838,64.087c-.2558,1.0224-1.0853,1.0212-1.8921,1.06C434.9807,64.1843,435.7656,64.106,436.5838,64.087Z" transform="translate(-17.5933 -7)"/><path class="cls-167" d="M539.5489,62.1478q.3837-.4926.7673-.9854l.1335,1.9947a7.6883,7.6883,0,0,0-.8742-.0808.5951.5951,0,0,1-.22-.6132Q539.4484,62.1478,539.5489,62.1478Z" transform="translate(-17.5933 -7)"/><path class="cls-168" d="M450.5877,147.0666c-.8187-.011-1.7762.2516-1.9672-.9975l-.0576.0634c.83-.0111,1.7462-.1975,1.986.9832Z" transform="translate(-17.5933 -7)"/><path class="cls-169" d="M462.5372,57.043c.5053.15.9358.3781,1.0114.9744a1.3094,1.3094,0,0,1-.8345.1611c-.4836-.1342-.93-.3116-1.04-.8853A2.4674,2.4674,0,0,1,462.5372,57.043Z" transform="translate(-17.5933 -7)"/><path class="cls-170" d="M482.4451,9.21c.842-.17,1.6772-.3182,2.16.6694A1.8883,1.8883,0,0,1,482.4451,9.21Z" transform="translate(-17.5933 -7)"/><path class="cls-171" d="M495.59,69.1017q-.45-.0124-.9-.0251c-.4767-.1583-.8451-.4074-.8232-.9832a1.2032,1.2032,0,0,1,1.09-.3855C495.5452,68.0005,495.9747,68.3662,495.59,69.1017Z" transform="translate(-17.5933 -7)"/><path class="cls-172" d="M448.6205,146.0691c-.8321.0032-1.818.3138-1.9932-.9967l-.0581.0657c.8448-.03,1.7558-.1927,1.9937.9944Z" transform="translate(-17.5933 -7)"/><path class="cls-173" d="M489.7008,147.0043l-2.1293.0425q.0255-.4122.0239-.8251l2.011-.1234q.4384.26.3343.5757Q489.8323,147.0042,489.7008,147.0043Z" transform="translate(-17.5933 -7)"/><path class="cls-174" d="M492.5787,12.1236l2.0186,0q-.0032.439.0078.8781A2.0339,2.0339,0,0,1,492.5787,12.1236Z" transform="translate(-17.5933 -7)"/><path class="cls-175" d="M461.5258,144.1287c.9045-.0277,1.8145-.0683,2.2608.9709C462.9118,145.0581,461.9154,145.3,461.5258,144.1287Z" transform="translate(-17.5933 -7)"/><path class="cls-176" d="M446.6273,145.0724c-.8549.03-1.8324.303-2.0112-1.0116l-.0641.0684c.874-.0668,1.7719-.1813,2.0172,1.0089Z" transform="translate(-17.5933 -7)"/><path class="cls-74" d="M503.6407,13.0769c-.8145.0239-1.6635.1273-2.03-.8808A1.8,1.8,0,0,1,503.6407,13.0769Z" transform="translate(-17.5933 -7)"/><path class="cls-177" d="M489.7008,147.0043a2.5493,2.5493,0,0,1-.0944-.906,1.535,1.535,0,0,1,.8282-.1193l1.189.2856q.4617.2661.2961.51c-.1069.1584-.214.238-.3229.238a1.5266,1.5266,0,0,1-.92.1873A3.2827,3.2827,0,0,0,489.7008,147.0043Z" transform="translate(-17.5933 -7)"/><path class="cls-178" d="M444.6161,144.0608c-.8729.0947-1.7032.1042-1.9817-.99l-.0826.0824c.8478-.0454,1.8131-.3315,2,.9764Z" transform="translate(-17.5933 -7)"/><path class="cls-174" d="M495.42,13.1758c.8659-.0583,1.7766-.2274,2.1713.8787A2.3087,2.3087,0,0,1,495.42,13.1758Z" transform="translate(-17.5933 -7)"/><path class="cls-179" d="M454.531,141.1568c.8937-.0845,1.7974-.1886,2.043,1.0222C455.6931,142.2378,454.7884,142.3441,454.531,141.1568Z" transform="translate(-17.5933 -7)"/><path class="cls-180" d="M452.5425,140.1565c.8877-.0867,1.791-.2046,2.0186,1.0178C453.6682,141.2715,452.8258,141.2685,452.5425,140.1565Z" transform="translate(-17.5933 -7)"/><path class="cls-74" d="M505.69,14.0308c-.8788.0728-1.7858.206-2.0793-.9726C504.4489,13.0729,505.2787,13.1046,505.69,14.0308Z" transform="translate(-17.5933 -7)"/><path class="cls-181" d="M513.6462,140.332q-.0165-.463.0012-.9259l1.9773-.2715-.0638-.0714C515.5275,140.3989,514.3843,140.06,513.6462,140.332Z" transform="translate(-17.5933 -7)"/><path class="cls-182" d="M491.5968,147.0125a5.0091,5.0091,0,0,1,.0268-.7479l1.8752-.0743c.3828.1569.5152.3251.3994.5061-.1187.1857-.2388.2792-.3625.2792Z" transform="translate(-17.5933 -7)"/><path class="cls-183" d="M450.5417,139.1147c.8665-.0027,1.8019-.1385,2.046,1.06A1.8054,1.8054,0,0,1,450.5417,139.1147Z" transform="translate(-17.5933 -7)"/><path class="cls-184" d="M517.5557,138.061c-.12,1.4179-1.1924.9418-1.9948,1.0022l.0638.0714c.3092-1.0384,1.1423-1.034,1.99-1Z" transform="translate(-17.5933 -7)"/><path class="cls-74" d="M507.7048,15.0132c-.8975.0844-1.8291.2379-2.0618-1.0207C506.4784,14.0334,507.32,14.0623,507.7048,15.0132Z" transform="translate(-17.5933 -7)"/><path class="cls-28" d="M488.618,41.17l-.0219,1.9407q-.4075.6924-.9217.075l-.1183-.1136C487.6028,42.2668,487.7384,41.5108,488.618,41.17Z" transform="translate(-17.5933 -7)"/><path class="cls-185" d="M517.6149,138.1345c.3642-.932,1.1462-1.0327,1.9942-1.0019l-.0551-.0682c-.1327,1.4017-1.2.9285-1.9983.9966Z" transform="translate(-17.5933 -7)"/><path class="cls-186" d="M407.6073,101.1188a9.0909,9.0909,0,0,1-.9651-.0392l.0638-2.0356a3.2089,3.2089,0,0,0,.8546.043Z" transform="translate(-17.5933 -7)"/><path class="cls-187" d="M434.612,137.9625l.1023-1.2554a3.3543,3.3543,0,0,1,1.8381,1.401l-.441.0306-.4115.268-.463-.1635-.3759.0008Z" transform="translate(-17.5933 -7)"/><path class="cls-188" d="M521.5507,136.0739c-.1649,1.3394-1.1949.9349-1.9967.99l.0551.0682c.3812-.9028,1.1466-1.0323,1.9964-.992Z" transform="translate(-17.5933 -7)"/><path class="cls-189" d="M523.5513,135.0937c-.2108,1.2576-1.19.9467-2.0006.98l.0548.0667c.3357-.9889,1.139-1.04,1.9912-.9924Z" transform="translate(-17.5933 -7)"/><path class="cls-190" d="M523.5967,135.1482c.2451-1.1839,1.1579-1.0415,2.0131-1.0136l-.0434-.0487c-.2538,1.1714-1.1629,1.0327-2.0151,1.0078Z" transform="translate(-17.5933 -7)"/><path class="cls-191" d="M493.5357,146.9756a1.4127,1.4127,0,0,0-.0369-.7853l2.1847.0084C495.2562,147.2556,494.4042,147.1386,493.5357,146.9756Z" transform="translate(-17.5933 -7)"/><path class="cls-192" d="M525.61,134.1346c.2309-1.1994,1.1847-.948,1.9912-.9923l-.0411-.04c-.3367.9921-1.1638.9906-1.9935.9838Z" transform="translate(-17.5933 -7)"/><path class="cls-193" d="M528.589,132.13c.2943-.9356.8626-.99,1.7642-.7267-.58.8049-1.2059.6721-1.7818.7095Z" transform="translate(-17.5933 -7)"/><path class="cls-194" d="M531.7259,95.1405a1.362,1.362,0,0,1,.94,1.0872.9344.9344,0,0,1-.3467.8056l-.8787-1.1227A.5259.5259,0,0,1,531.7259,95.1405Z" transform="translate(-17.5933 -7)"/><path class="cls-195" d="M450.5489,147.1157c.5958.0244,1.238-.1189,1.694.493-.8675.7812-1.32.3071-1.6552-.5421Z" transform="translate(-17.5933 -7)"/><path class="cls-40" d="M411.4941,29.93c-.0562,1.2124-.9671,1.1649-1.8053,1.2245A2.0847,2.0847,0,0,1,411.4941,29.93Z" transform="translate(-17.5933 -7)"/><path class="cls-196" d="M470.6333,7.9951a3.0675,3.0675,0,0,1,.005-.7533l2.0141.0009a1.72,1.72,0,0,0,0,.7329Z" transform="translate(-17.5933 -7)"/><path class="cls-75" d="M460.5975,29.9747c.4608-1.042,1.3394-.8891,2.2057-.7712A2.153,2.153,0,0,1,460.5975,29.9747Z" transform="translate(-17.5933 -7)"/><path class="cls-74" d="M509.6956,16.0256c-.8958.0674-1.8384.2254-2.0386-1.0533C508.4944,15.0178,509.3226,15.0814,509.6956,16.0256Z" transform="translate(-17.5933 -7)"/><path class="cls-197" d="M431.5643,16.2305q-.0192.334-.0132.6686l-2.0038.1414.0767.0808C429.9643,16.1567,430.7281,16.1148,431.5643,16.2305Z" transform="translate(-17.5933 -7)"/><path class="cls-198" d="M487.6105,147.1756q-.0113.3963-.0539.7906l-2.0015-.0351a2.1218,2.1218,0,0,0-.0342-.6818Z" transform="translate(-17.5933 -7)"/><path class="cls-199" d="M538.6707,79.1115q.4638-.0015.9277,0-.075.9785-.15,1.9569a1.2561,1.2561,0,0,1-.9336-1.0491A.6052.6052,0,0,1,538.6707,79.1115Z" transform="translate(-17.5933 -7)"/><path class="cls-74" d="M511.6572,17.0642c-.8778.0292-1.8126.1647-2.0092-1.077C510.48,16.0433,511.28,16.1594,511.6572,17.0642Z" transform="translate(-17.5933 -7)"/><path class="cls-155" d="M442.599,122.323q0,.8616,0,1.7231c-1.36-.0241-.9461-1.03-.9875-1.7839A1.718,1.718,0,0,1,442.599,122.323Z" transform="translate(-17.5933 -7)"/><path class="cls-200" d="M535.7276,88.1165l1.0282.0533c-.0824.9015-.1036,1.83-1.0455,2.3491l-.2133-1.5772A.5187.5187,0,0,1,535.7276,88.1165Z" transform="translate(-17.5933 -7)"/><path class="cls-201" d="M410.4887,85.0608c-1.0728-.321-.87-1.1578-.7866-1.946l1.0192.039Q410.6051,84.1074,410.4887,85.0608Z" transform="translate(-17.5933 -7)"/><path class="cls-40" d="M414.578,28.0734c-.2509,1.0459-1.09,1.0427-1.9114,1.0721A1.9755,1.9755,0,0,1,414.578,28.0734Z" transform="translate(-17.5933 -7)"/><path class="cls-104" d="M421.421,116.1022a1.1813,1.1813,0,0,1-.8825-1.009q.0863-.6264.1724-1.2527A2.3678,2.3678,0,0,1,421.421,116.1022Z" transform="translate(-17.5933 -7)"/><path class="cls-202" d="M424.6452,19.1139c.2356-1.2077,1.1755-.9842,2.0044-.9863l-.053-.0625c-.1761,1.31-1.1808.96-1.9937.9948Z" transform="translate(-17.5933 -7)"/><path class="cls-62" d="M468.6709,19.0457c-.7976.0765-1.6109.197-2.0516-.73A1.6774,1.6774,0,0,1,468.6709,19.0457Z" transform="translate(-17.5933 -7)"/><path class="cls-203" d="M120.73,117.51c-.0874-.8723-.4-1.8065.65-2.3659A2.7746,2.7746,0,0,1,120.73,117.51Z" transform="translate(-17.5933 -7)"/><path class="cls-204" d="M424.6029,19.06c-.3537.8421-.8117,1.3408-1.6927.5342.4806-.592,1.1268-.4646,1.735-.48Z" transform="translate(-17.5933 -7)"/><path class="cls-205" d="M505.3546,84.1656l1.24-.1019q.5343-.6722.9944.0527l-.01.0059q.012.4738.0534.946l-1.3075.1035C505.75,85.0788,505.5267,84.6471,505.3546,84.1656Z" transform="translate(-17.5933 -7)"/><path class="cls-39" d="M436.5947,19.2981q.0007.4132-.0112.8262l-2.09-.0565A2.0348,2.0348,0,0,1,436.5947,19.2981Z" transform="translate(-17.5933 -7)"/><path class="cls-69" d="M418.5843,86.0951c.02.7843.11,1.5978-.82,1.9907A1.7016,1.7016,0,0,1,418.5843,86.0951Z" transform="translate(-17.5933 -7)"/><path class="cls-39" d="M433.5855,20.2253c-.4617,1.0818-1.3671.8872-2.2423.7795A2.07,2.07,0,0,1,433.5855,20.2253Z" transform="translate(-17.5933 -7)"/><path class="cls-31" d="M427.5837,22.2172c-.399.9994-1.2513.8987-2.0794.857A1.9529,1.9529,0,0,1,427.5837,22.2172Z" transform="translate(-17.5933 -7)"/><path class="cls-31" d="M422.5862,24.1885c-.3619.9968-1.202.93-2.0216.9093A1.978,1.978,0,0,1,422.5862,24.1885Z" transform="translate(-17.5933 -7)"/><path class="cls-206" d="M118.4774,118.8769a.7934.7934,0,0,1-.6751.3061l-1.2257-.0838a4.8076,4.8076,0,0,1,.0964-.838,2.87,2.87,0,0,1,.9061-.1573c.2424-.45.4814-.4719.7165.0057Q118.3931,118.4917,118.4774,118.8769Z" transform="translate(-17.5933 -7)"/><path class="cls-5" d="M511.8341,117.8726l.14-.3938.3982-.0646Q512.3556,117.9463,511.8341,117.8726Z" transform="translate(-17.5933 -7)"/><path class="cls-207" d="M281.6446,118.249a1.0968,1.0968,0,0,1,.895-1.1339C282.5485,117.7356,282.1031,117.9974,281.6446,118.249Z" transform="translate(-17.5933 -7)"/><path class="cls-31" d="M424.58,23.3028a1.0961,1.0961,0,0,1-1.3188.6825A1.1312,1.1312,0,0,1,424.58,23.3028Z" transform="translate(-17.5933 -7)"/><path class="cls-206" d="M115.585,120.1046a1.1872,1.1872,0,0,1,.9992-1.014A1.0978,1.0978,0,0,1,115.585,120.1046Z" transform="translate(-17.5933 -7)"/><polygon class="cls-208" points="401.525 14.382 401.646 14.707 401.336 14.672 401.525 14.382"/><polygon class="cls-209" points="403.475 13.848 403.339 13.507 403.676 13.542 403.475 13.848"/><path class="cls-40" d="M415.5718,27.3982a.9545.9545,0,0,1-1.02.6888C414.7308,27.6188,415.0012,27.2864,415.5718,27.3982Z" transform="translate(-17.5933 -7)"/><path class="cls-206" d="M114.4416,121.0507a1.3157,1.3157,0,0,1,1.1478-.95A1.0822,1.0822,0,0,1,114.4416,121.0507Z" transform="translate(-17.5933 -7)"/><polygon class="cls-203" points="98.991 112.091 98.991 112.091 98.983 112.099 98.991 112.091"/><path class="cls-203" d="M119.7187,121.2652l-.0154.004-.0009.0016Z" transform="translate(-17.5933 -7)"/><path class="cls-203" d="M119.7024,121.2708c.6769-.1047.8222-.551.736-1.1459A.9968.9968,0,0,0,119.7024,121.2708Z" transform="translate(-17.5933 -7)"/><path class="cls-207" d="M278.5825,121.005a1.0139,1.0139,0,0,1,1.1173-.8175A.9818.9818,0,0,1,278.5825,121.005Z" transform="translate(-17.5933 -7)"/><path class="cls-210" d="M514.6867,115.5548q.02-.6468.0395-1.2937c.5181-.045.73.2672.8281.711Z" transform="translate(-17.5933 -7)"/><path class="cls-211" d="M40.599,110.1218a.8615.8615,0,0,1,.6768-1.0242C41.3434,109.6327,41.0048,109.8994,40.599,110.1218Z" transform="translate(-17.5933 -7)"/><path class="cls-40" d="M412.6169,29.1678a1.05,1.05,0,0,1-1.1939.8261A1.0433,1.0433,0,0,1,412.6169,29.1678Z" transform="translate(-17.5933 -7)"/><path class="cls-166" d="M100.6019,108.1322a.927.927,0,0,1,.7441-1.0114C101.3779,107.6639,101.032,107.9291,100.6019,108.1322Z" transform="translate(-17.5933 -7)"/><path class="cls-211" d="M41.5888,107.102q.4755.001.9507-.0066a1.1592,1.1592,0,0,1-.8613,1.1688Q41.6338,107.6836,41.5888,107.102Z" transform="translate(-17.5933 -7)"/><path class="cls-212" d="M441.4547,132.1315a1.1021,1.1021,0,0,1,1.1046,1.0608A1.3253,1.3253,0,0,1,441.4547,132.1315Z" transform="translate(-17.5933 -7)"/><path class="cls-213" d="M527.601,133.1423a1.031,1.031,0,0,1,.988-1.012l-.0176-.0172a1.0517,1.0517,0,0,1-1.0115.989Z" transform="translate(-17.5933 -7)"/><path class="cls-214" d="M442.504,133.1453a1.0658,1.0658,0,0,1,1.071,1.0337A1.18,1.18,0,0,1,442.504,133.1453Z" transform="translate(-17.5933 -7)"/><path class="cls-74" d="M527.6752,31.083a1.0861,1.0861,0,0,1-.9992-1.2146A1.4871,1.4871,0,0,1,527.6752,31.083Z" transform="translate(-17.5933 -7)"/><path class="cls-215" d="M444.56,134.1642a9.0917,9.0917,0,0,1,.0307.95,1.0943,1.0943,0,0,1-1.0761-.9568Q444.0367,134.1608,444.56,134.1642Z" transform="translate(-17.5933 -7)"/><path class="cls-40" d="M409.6248,31.1909a1.11,1.11,0,0,1-1.13.8626A1.0516,1.0516,0,0,1,409.6248,31.1909Z" transform="translate(-17.5933 -7)"/><path class="cls-40" d="M408.5444,32.0132a1.0662,1.0662,0,0,1-1.2579.9841A1.3531,1.3531,0,0,1,408.5444,32.0132Z" transform="translate(-17.5933 -7)"/><path class="cls-216" d="M446.502,136.1492a1.0489,1.0489,0,0,1,1.0824,1.0278C446.9638,137.108,446.4935,136.8807,446.502,136.1492Z" transform="translate(-17.5933 -7)"/><path class="cls-217" d="M274.6262,105.1241a1.3447,1.3447,0,0,1-.9651,1.1667A1.087,1.087,0,0,1,274.6262,105.1241Z" transform="translate(-17.5933 -7)"/><path class="cls-73" d="M533.3474,40.0746a.94.94,0,0,1-.7064-1.0469C533.1,39.2256,533.4537,39.4951,533.3474,40.0746Z" transform="translate(-17.5933 -7)"/><path class="cls-187" d="M435.2369,138.2432a3.5313,3.5313,0,0,1,.8745-.1045l.4371,1.2545A1.9208,1.9208,0,0,1,435.2369,138.2432Z" transform="translate(-17.5933 -7)"/><path class="cls-218" d="M449.6407,138.839q.0014-.329-.0195-.6573a.9406.9406,0,0,1,.9774.982Z" transform="translate(-17.5933 -7)"/><path class="cls-219" d="M396.5421,43.059c.228.8765-.2353,1.0759-.98,1l.084.0761c-.0334-.6946.2744-1.0495.9916-.9951Z" transform="translate(-17.5933 -7)"/><path class="cls-220" d="M394.6518,45.1179a.8581.8581,0,0,1,.9946-.9831l-.0833-.0759c.0989.7531-.2639,1.0489-.9824.9927Z" transform="translate(-17.5933 -7)"/><path class="cls-221" d="M393.6411,46.1046a.9645.9645,0,0,1,1.0107-.9867l-.0711-.0663c.0234.68-.3254.996-.9856,1.0074Z" transform="translate(-17.5933 -7)"/><path class="cls-217" d="M275.4153,105.0351q-.4038.0478-.8058.1077a1.1,1.1,0,0,1,1.0193-1.0182Q275.5273,104.5811,275.4153,105.0351Z" transform="translate(-17.5933 -7)"/><path class="cls-222" d="M438.6454,140.9414a4.72,4.72,0,0,0-.0336-.9415,1.5916,1.5916,0,0,1,.87.3045l.1,1.154Z" transform="translate(-17.5933 -7)"/><path class="cls-223" d="M393.5951,46.059l-.401.8049c-.7127-.76.1744-.5789.447-.7593Z" transform="translate(-17.5933 -7)"/><path class="cls-224" d="M390.5981,50.1126l.4126-.7208c.6278.6921-.1747.5376-.4214.712Z" transform="translate(-17.5933 -7)"/><path class="cls-224" d="M390.5893,50.1038l-.4136.7193c-.6272-.6934.177-.5358.4224-.71Z" transform="translate(-17.5933 -7)"/><path class="cls-72" d="M425.6156,51.1961l-.8707.9551A.8886.8886,0,0,1,425.6156,51.1961Z" transform="translate(-17.5933 -7)"/><path class="cls-225" d="M510.58,140.988q-.0009.4946-.0486.9868l-.47.1171-.481-.0568q.019-.4113.0361-.8228Z" transform="translate(-17.5933 -7)"/><path class="cls-226" d="M441.6777,142.9409a5.1174,5.1174,0,0,0-.0793-.9012c.5961.1326,1.1372.3124.9534,1.1131l.0826-.0824-.4929.0429Z" transform="translate(-17.5933 -7)"/><path class="cls-179" d="M456.5293,142.1546l1.0991-.0119a.4992.4992,0,0,1,.1893.56q-.1081.272-.2115.272C456.9913,143.0375,456.5627,142.8554,456.5293,142.1546Z" transform="translate(-17.5933 -7)"/><path class="cls-227" d="M457.6062,142.9751a7.0293,7.0293,0,0,1,.0222-.8324.9987.9987,0,0,1,.9739,1.0141Z" transform="translate(-17.5933 -7)"/><path class="cls-58" d="M481.5645,51.0294a1.0662,1.0662,0,0,1-1.0319,1.0433A1.2694,1.2694,0,0,1,481.5645,51.0294Z" transform="translate(-17.5933 -7)"/><path class="cls-166" d="M103.6112,104.7682a.9032.9032,0,0,1,1.053-.6328Z" transform="translate(-17.5933 -7)"/><path class="cls-166" d="M101.592,104.1063a1.0722,1.0722,0,0,1-.8312,1.0528C100.7207,104.5577,101.0735,104.2666,101.592,104.1063Z" transform="translate(-17.5933 -7)"/><path class="cls-72" d="M424.6429,52.2733l-.7581.8C423.8485,52.5326,424.1618,52.3234,424.6429,52.2733Z" transform="translate(-17.5933 -7)"/><path class="cls-217" d="M276.83,103.1982a1.3881,1.3881,0,0,1-1.2217.9435A1.0873,1.0873,0,0,1,276.83,103.1982Z" transform="translate(-17.5933 -7)"/><path class="cls-166" d="M102.59,103.1021a1.13,1.13,0,0,1-.999,1.0055A1.0121,1.0121,0,0,1,102.59,103.1021Z" transform="translate(-17.5933 -7)"/><path class="cls-72" d="M422.52,54.9072a1.0861,1.0861,0,0,1-.9612,1.1873A1.349,1.349,0,0,1,422.52,54.9072Z" transform="translate(-17.5933 -7)"/><path class="cls-166" d="M103.5892,102.33a.9707.9707,0,0,1-1.0032.7748C102.7356,102.6074,102.9858,102.24,103.5892,102.33Z" transform="translate(-17.5933 -7)"/><path class="cls-228" d="M494.53,68.1056q-.3316-.0114-.6634-.0122a1.25,1.25,0,0,1-.5339-.7922l.2712-.185C494.4993,66.8967,494.8451,67.1918,494.53,68.1056Z" transform="translate(-17.5933 -7)"/><path class="cls-229" d="M528.7236,100.2294l1.3947-.0415-.6251.8966C529.0206,100.994,528.7108,100.7568,528.7236,100.2294Z" transform="translate(-17.5933 -7)"/><path class="cls-230" d="M498.5731,73.0986q-.4113-.0046-.8226-.012a1.0675,1.0675,0,0,1-.2572-.9337A1.058,1.058,0,0,1,498.5731,73.0986Z" transform="translate(-17.5933 -7)"/><path class="cls-57" d="M426.5093,72.9925a.9962.9962,0,0,1-1.0765,1.0536A1.2962,1.2962,0,0,1,426.5093,72.9925Z" transform="translate(-17.5933 -7)"/><polygon class="cls-117" points="522.326 72.003 522.242 71.56 522.617 71.325 522.691 71.739 522.326 72.003"/><path class="cls-65" d="M429.6049,80.135a1.1682,1.1682,0,0,1,.9282-1.0478A1.1855,1.1855,0,0,1,429.6049,80.135Z" transform="translate(-17.5933 -7)"/><path class="cls-65" d="M428.657,81.2913a1.1053,1.1053,0,0,1,.9617-1.1728A1.4581,1.4581,0,0,1,428.657,81.2913Z" transform="translate(-17.5933 -7)"/><path class="cls-2" d="M284.2362,64.0335c-.0882-4.6494.265-9.301-.37-13.95-.5688-4.1618-2.9473-6.7755-6.7961-7.6695a30.966,30.966,0,0,0-18.6516,1.4221c.467,2.3068-.0655,4.4874,1.1867,6.5882,3.4108-.9812,6.4964-2.32,9.8675-2.1807,4.5054.1859,5.8206,1.6864,5.763,6.7113-2.5587.3945-5.1916.6354-7.7409,1.2331-3.5954.8429-6.9778,2.2109-9.2566,5.3858a9.8347,9.8347,0,0,0-1.0406,9.9364c1.4324,3.505,4.4889,4.5929,8.0772,4.7311a11.9351,11.9351,0,0,0,9.8209-3.9368,3.6754,3.6754,0,0,1,1.0965-.6039c.6048,1.24-.53,2.7352,1.2362,4.0936,1.9842-.4862,4.472.7071,6.8219-.7076C284.25,71.3364,284.3053,67.6838,284.2362,64.0335Zm-14.6191,5.51c-1.99.4279-3.65-.0467-4.681-1.8458a3.75,3.75,0,0,1,1.8116-5.07,11.8033,11.8033,0,0,1,8.5645-1.2793C274.8516,66.3661,273.13,68.7876,269.6171,69.5433Z" transform="translate(-17.5933 -7)"/><path class="cls-2" d="M174.9448,60.0085a12.3135,12.3135,0,0,0,.3435-5.7606c-.9918-7.5788-4.9238-11.629-11.9963-12.47-7.46-.8869-13.3143,2.3983-16.0273,9.091a23.07,23.07,0,0,0-.286,16.5973,11.3682,11.3682,0,0,0,6.5441,7.1778c6.8,2.71,13.5429,1.9679,20.46-.5023-.2021-2.1976-.3664-3.9847-.5842-6.3546-4.319,1.186-8.2092,2.0863-12.25,1.4683-4.7963-.7335-6.802-3.6981-5.88-8.8119C161.805,59.9891,168.4256,60.7886,174.9448,60.0085Zm-19.92-5.848c1.1126-4.6657,2.839-6.28,6.3739-6.1144,3.3434.1571,4.6178,1.6831,4.9278,6.1144Z" transform="translate(-17.5933 -7)"/><path class="cls-134" d="M531.7259,95.1405a1.5276,1.5276,0,0,0-.2851.77c-1.549.9636-2.0735,2.6558-2.9263,4.1145-1.819,1.2773-2.6962,3.2923-3.9351,5.024a1.4257,1.4257,0,0,0-.9627,1.15,2.7454,2.7454,0,0,0-1.9335,1.9338,1.4142,1.4142,0,0,0-1.1427.9638c-1.4758.43-2.211,2.1346-3.87,2.2487.06-1.3316,1.1524-1.9589,1.9522-2.7426a43.3987,43.3987,0,0,0,13.1252-25.1373c.64-4.2172,2.523-8.2457,3.841-12.36,3.0953,5.3358.7168,10.6749.01,16.013l.0047-.0073c-.6716.5147-.343,1.5164-.994,2.0411.1454,1.1417-.7538,1.9093-1.0376,2.8973A5.5125,5.5125,0,0,0,531.7259,95.1405Z" transform="translate(-17.5933 -7)"/><path class="cls-117" d="M535.5983,87.1182l-.01-16.013,0-7.9945c-.5973-1.1261-.8766-2.2273.251-3.219,2.4476.5157,3.0739,2.627,3.1239,4.5006.1052,3.9395.6184,7.9227-.3094,11.8452l.0171,2.874a1.8367,1.8367,0,0,0-.156.9074c-1.48,1.4-.7971,3.5474-1.7687,5.1233C536.4737,85.8648,536.5092,86.7663,535.5983,87.1182Z" transform="translate(-17.5933 -7)"/><path class="cls-231" d="M538.6536,76.2375c-.02-3.2953-.0609-6.5907-.0545-9.886.0052-2.5788-.545-4.8632-3.0012-6.2463a1.3694,1.3694,0,0,1-.48-1.0746c-.1306-.9826.3154-2.0664-.5123-2.9277q-.0069-.4963-.0244-.9926a1.65,1.65,0,0,1-.4559-.9667c-.0459-.7125.0884-1.4719-.5274-2.0374q-.01-.9958-.02-1.9915l.0186-1.0065,1.9988.9969q.4652.0021.93.02c-.1057,1.154.7007,1.9872,1.049,2.9815.1721,1.0321-.4765,2.3255.9426,2.9608.4547,2.008-.8183,4.3092,1.0315,6.08a7.8194,7.8194,0,0,0,.0266.9285l.0754,9.0551C539.267,73.4876,540.0822,75.135,538.6536,76.2375Z" transform="translate(-17.5933 -7)"/><path class="cls-134" d="M535.5905,59.1085q.0054.4983.0074.9967-.005,1.5029-.01,3.0055c-1.7874-.9757-.6853-2.665-.99-4.0069C534.9315,58.6428,535.262,58.6672,535.5905,59.1085Z" transform="translate(-17.5933 -7)"/><path class="cls-117" d="M535.5905,59.1085q-.496.0017-.9919-.0047l.007-3.0009C536.1,56.7227,535.4435,58.0472,535.5905,59.1085Z" transform="translate(-17.5933 -7)"/><path class="cls-117" d="M533.5979,52.1062c1.0412.3167.9847,1.1755.99,2.004a.6357.6357,0,0,1-.9846-.01q-.0073-.4935-.0166-.987Q533.5921,52.61,533.5979,52.1062Z" transform="translate(-17.5933 -7)"/><path class="cls-134" d="M533.6029,54.1q.4922.0091.9846.01l-.0063,1A1.1487,1.1487,0,0,1,533.6029,54.1Z" transform="translate(-17.5933 -7)"/><path class="cls-142" d="M472.5962,13.0953c-1.6824-.3065-3.6323.7831-5.0382-.9658C469.2349,12.4644,471.2146,11.22,472.5962,13.0953Z" transform="translate(-17.5933 -7)"/><path class="cls-77" d="M482.6118,16.0762c-1.0773-.1046-2.3986.55-3.0206-.9711C480.6664,15.2161,481.95,14.6781,482.6118,16.0762Z" transform="translate(-17.5933 -7)"/><path class="cls-8" d="M494.6892,123.1489c-.7627,1.19-1.9824.9158-3.1.9678C492.2362,122.5571,493.5906,123.2628,494.6892,123.1489Z" transform="translate(-17.5933 -7)"/><path class="cls-232" d="M526.5906,72.114c-1.0734,1.6207-1.328,3.7334-3.0009,4.9938A80.4267,80.4267,0,0,0,516.69,52.7252c-2.9286-6.3847-7.3045-11.2239-11.9908-16.075-1.1035-1.1424-2.5241-1.4161-4.1117-2.2247V29.114c10.4763,5.7358,16.9472,15.004,21.6643,25.5133a45.5747,45.5747,0,0,1,4.3561,15.5181A1.3358,1.3358,0,0,1,526.5906,72.114Z" transform="translate(-17.5933 -7)"/><path class="cls-232" d="M499.5773,29.0469c.4007-.94.7329-.847,1.01.0672Z" transform="translate(-17.5933 -7)"/><path class="cls-99" d="M526.5906,72.114l.0177-1.9686a6.4,6.4,0,0,0,.9343-.1335C527.5921,70.8787,527.7132,71.778,526.5906,72.114Z" transform="translate(-17.5933 -7)"/><path class="cls-3" d="M321.232,102.1641a9.0068,9.0068,0,0,0-5.1924,3.595,14.12,14.12,0,0,0-2.7918,9.298c.0773,5.5493,4.0612,8.2822,9.4188,6.52,4.8482-1.5945,7.9277-6.1068,8.0966-11.8636C331.2208,102.5751,326.6572,101.0716,321.232,102.1641Zm6.9866,7.7132c-.4133,3.33-1.1884,6.5728-4.2047,8.6287-1.8462,1.2583-3.836,1.9774-6.0341.7345-2.0368-1.1516-2.2732-3.084-2.2912-5.3574.3748-3.1431,1.2567-6.29,4.0244-8.5394,1.8087-1.47,4.9439-1.8521,6.5135-.7557C328.0562,105.8661,328.4728,107.83,328.2186,109.8773Z" transform="translate(-17.5933 -7)"/><path class="cls-2" d="M71.0716,105.0326c-.583-2.2867-2.2781-3.0364-4.468-3.1748a8.7132,8.7132,0,0,0-8.3607,4.3324,17.1519,17.1519,0,0,0-2.6231,9.4281c-.01,3.4641,1.2222,5.3641,3.87,6.1928a8.2878,8.2878,0,0,0,8.7695-2.5026c-3.2432-.46-6.7666,2.197-9.44-1.1506a9.0117,9.0117,0,0,1,.0449-5.3638c1.0866-.18,2.0457-.4172,3.0165-.485a13.8211,13.8211,0,0,0,7.0281-2.1654A4.5359,4.5359,0,0,0,71.0716,105.0326Zm-3.875,3.6106a9.7652,9.7652,0,0,1-7.6034,1.2745c1.3194-4.3949,3.1209-6.11,6.1524-5.9844,1.2614.0523,2.3567.4158,2.7251,1.7259A2.5289,2.5289,0,0,1,67.1966,108.6432Z" transform="translate(-17.5933 -7)"/><path class="cls-2" d="M212.3174,104.9853c-.6295-2.1806-2.351-3.0239-4.5693-3.1312a8.4687,8.4687,0,0,0-7.4648,3.1951,16.8836,16.8836,0,0,0-3.4414,11.66c.08,1.829.6662,3.6964,2.5989,4.5073a8.9754,8.9754,0,0,0,9.8507-1.2907c-9.9607-.0894-10.4515-.45-9.0572-7.22,1.4-.1826,2.8683-.3673,4.3347-.567a12.2064,12.2064,0,0,0,5.547-2.0267C211.8546,108.8721,212.9505,107.178,212.3174,104.9853Zm-11.6136,4.7627c2.0036-5.526,3.343-6.336,8.3843-5.071C209.6864,109.2111,207.3078,110.65,200.7038,109.748Z" transform="translate(-17.5933 -7)"/><path class="cls-2" d="M158.5,104.7763c-.5768-1.9912-2.1885-2.7412-4.1785-2.89a8.5051,8.5051,0,0,0-7.8436,3.3471c-2.944,3.7738-3.491,8.1084-3.0121,12.6872a3.9562,3.9562,0,0,0,2.9691,3.5993,10.7384,10.7384,0,0,0,9.67-1.3534c-1.6-1.6556-2.6675-.6934-3.7239-.5217-5.53.8989-7.0736-.76-6.065-6.5607,1.12-.9069,2.51-.7346,3.8009-.8537A13.2005,13.2005,0,0,0,156.6059,110,4.4808,4.4808,0,0,0,158.5,104.7763Zm-11.5876,5.0579c2.2033-5.4868,2.971-6.0064,8.4543-5.4775C156.168,109.1445,153.8832,110.5439,146.9124,109.8342Z" transform="translate(-17.5933 -7)"/><path class="cls-233" d="M507.5891,84.1164a6.7324,6.7324,0,0,1-.9944-.0527L504.59,81.109c1.9006.0808,2.0427-1.1347,2.014-2.6033a39.0733,39.0733,0,0,0-7.1734-21.9942c-2.5221-3.6186-5.2664-7.0681-9.2107-9.4088-1.2741-.7561-2.8405-1.8788-2.5455-3.9167a4.493,4.493,0,0,1,.9217-.075,5.1176,5.1176,0,0,0,2.2141,2.5807,39.4682,39.4682,0,0,1,16.1629,23.6039C508.0847,73.9938,509.6838,79.0971,507.5891,84.1164Z" transform="translate(-17.5933 -7)"/><path class="cls-234" d="M429.6188,37.0282l-3.0221.0841c-.5341.6072-1.4807.3594-2.0127.971l-1.9909.0311c1.8683-3.3261,5.4591-4.6665,8.1231-7.0688,4.65-4.1929,9.185-8.5129,13.7681-12.78h4.8419c-2.4909,4.0937-6.52,6.0964-9.8335,8.8313-3.0533,2.52-5.6669,5.55-9.0379,7.7A2.3078,2.3078,0,0,0,429.6188,37.0282Z" transform="translate(-17.5933 -7)"/><path class="cls-72" d="M416.5849,67.09c.0247-.8249-.0313-1.6922,1.0347-1.97C417.5791,65.9367,417.58,66.7753,416.5849,67.09Z" transform="translate(-17.5933 -7)"/><path class="cls-72" d="M415.6124,68.1634a1.1437,1.1437,0,0,1,.9625-1.0595A1.2545,1.2545,0,0,1,415.6124,68.1634Z" transform="translate(-17.5933 -7)"/><path class="cls-72" d="M414.5989,70.1209a1.0534,1.0534,0,0,1,.9209-.9982A1.0452,1.0452,0,0,1,414.5989,70.1209Z" transform="translate(-17.5933 -7)"/><path class="cls-72" d="M413.65,71.2274a1.0811,1.0811,0,0,1,.9552-1.1136A1.4056,1.4056,0,0,1,413.65,71.2274Z" transform="translate(-17.5933 -7)"/><path class="cls-124" d="M498.5051,12.1725l1.1081-.0595a8.2026,8.2026,0,0,0,.012.8386A1.0618,1.0618,0,0,1,498.5051,12.1725Z" transform="translate(-17.5933 -7)"/><path class="cls-2" d="M116.8208,101.9935a8.8046,8.8046,0,0,0-6.2275,2.7013c-4.0047,3.992-4.6831,9.0148-3.8749,14.2794.34,2.2162,2.1019,3.3493,4.4185,3.0426a21.5953,21.5953,0,0,0,3.3047-.9661,5.16,5.16,0,0,0,1.1478-.95l-.0044.0041c.3293-.3416.685-.6573.9991-1.0139a1.4614,1.4614,0,0,0,.41-.66.8663.8663,0,0,0,.6065-.0212,1.0522,1.0522,0,0,0,.4515-.8611,1.7582,1.7582,0,0,1,.6865-1.1847c.0023-.0071.3738-.2335.3738-.2335s-.2794.3335-.27.3251a2.49,2.49,0,0,0-.7382,1.2821c-.0277.366-.0445.7394-.05,1.1044.0322.3876.0564.7845.0741,1.1757.1682.8664.396,1.6625,1.5754,1.252a5.4868,5.4868,0,0,1,.7351-1.1443q.1459-1.3074.292-2.6147a18.9932,18.9932,0,0,1,.65-2.3659l.0879-1.0727c.7751-3.82,1.8329-7.5994,2.0434-12.0839C121.0654,101.9877,118.9428,101.9657,116.8208,101.9935Zm1.6237,10.8641q-1.3848,2.144-2.77,4.288l-.037.054a2.4794,2.4794,0,0,0-.9016.9682l-.0846.0782a3.3874,3.3874,0,0,0-1.0249.8758c-2.0954,1.0462-3.8084,1.1215-4.594-1.6318-1.02-3.5748,1.1744-10.0676,4.1622-12.1947,2.2161-1.5776,4.6184-1.5463,7.3254-1.016C121.023,107.5178,119.0155,110.03,118.4445,112.8576Z" transform="translate(-17.5933 -7)"/><path class="cls-235" d="M113.6267,119.1218a1.1562,1.1562,0,0,1,1.0249-.8758A1.0025,1.0025,0,0,1,113.6267,119.1218Z" transform="translate(-17.5933 -7)"/><path class="cls-235" d="M114.7362,118.1678a1.1192,1.1192,0,0,1,.9016-.9682A1.018,1.018,0,0,1,114.7362,118.1678Z" transform="translate(-17.5933 -7)"/><path class="cls-2" d="M195.0921,92.8049c-3.82,2.0257-1.3426,6.6095-3.8883,8.9943-2.4966.4878-5.3186-.5144-7.5962,1.3876-5.09,3.1829-7.9607,9.6955-6.6484,15.0831.8627,3.5417,3.2847,4.6736,6.7045,3.2175,1.7316-.7372,2.8891-2.1246,4.1866-3.3675.2216-.2253.4421-.4517.658-.6819a3.16,3.16,0,0,0-.0378.6465c.692,1.1146-.9666,3.0805,1.2649,3.7049C191.8,118.0369,195.7274,97.0546,195.0921,92.8049Zm-6.6249,21.0372c-2.114,2.1763-3.1994,5.5295-6.81,5.991-3.8754-3.8467-2.4621-10.4789,3.2874-15.5453,2.1051-.24,4.2173-.6494,6.3474.1832C191.0735,107.8754,189.3988,110.7486,188.4672,113.8421Z" transform="translate(-17.5933 -7)"/><path class="cls-211" d="M39.5654,109.0941l-.4723.7449-.4477-.7554A.5928.5928,0,0,1,39.5654,109.0941Z" transform="translate(-17.5933 -7)"/><path class="cls-236" d="M39.5654,109.0941l-.46.0137-.46-.0242a1.11,1.11,0,0,1,1.0609-1.0295l-.0468-.0363Z" transform="translate(-17.5933 -7)"/><path class="cls-211" d="M40.6684,107.13c-.04-.6326.3686-.9057.88-1.0966q.0276.5406.0554,1.0815l-.4676-.0078Z" transform="translate(-17.5933 -7)"/><path class="cls-237" d="M495.5927,64.1089l-10.9989-12.001C488.8622,53.8352,494.1723,59.6292,495.5927,64.1089Z" transform="translate(-17.5933 -7)"/><path class="cls-237" d="M494.53,68.1056a.954.954,0,0,0-.9261-.9894l-.0587-1.9846c.83-.0457,1.7459.0811,2.0475-1.0225,2.28,2.1294,2.8323,3.7987,1.9875,6.0051L495.59,69.1017A1.1213,1.1213,0,0,0,494.53,68.1056Z" transform="translate(-17.5933 -7)"/><path class="cls-2" d="M276.83,103.1982a3.1379,3.1379,0,0,0-1.2217.9435l.02-.0171a1.1389,1.1389,0,0,0-.3292.8433.4793.4793,0,0,0-.69.1749l.0167-.0187a3.9285,3.9285,0,0,0-.9652,1.1667,21.7726,21.7726,0,0,0-2.3783,10.0458c.1773,5.394,2.1023,6.651,7.3,4.6684a8.1506,8.1506,0,0,1,1.1124-.814,3.0013,3.0013,0,0,0,1.95-1.942,4.5125,4.5125,0,0,1,.895-1.1338q.4555-.4319.911-.8634c.63,1.8263-1.7709,3.6624.1452,5.8785,3.0691-2.7194,2.2547-6.4635,3.0417-9.61.822-3.2862,1.272-6.6654,1.9281-10.2415C284.2231,101.7913,280.4636,101.56,276.83,103.1982Zm6.75,8.8827q-1.5163,2.4518-3.0327,4.9038a4.8883,4.8883,0,0,1-.9806,1.0929,2.1693,2.1693,0,0,1-.37.4476l.0964.1343c-.0493-.0251-.1045-.04-.1549-.0636a4.0365,4.0365,0,0,1-.6272.471l-.91.4251a3.219,3.219,0,0,0-1.1771.5269c-2.5364-.5461-2.7291-2.526-2.7167-4.559a17.7864,17.7864,0,0,1,2.9345-9.2126c2.6378-1.959,5.4486-3.0389,8.84-1.7363C285.6633,107.2564,284.04,109.53,283.5809,112.0809Z" transform="translate(-17.5933 -7)"/><path class="cls-238" d="M283.6127,116.1358c.0535-.7306-.1666-1.5884.8667-1.8632C284.5353,115.054,284.6677,115.871,283.6127,116.1358Z" transform="translate(-17.5933 -7)"/><path class="cls-32" d="M446.6152,32.1228a1.1159,1.1159,0,0,1-1.0319.9416A1.1476,1.1476,0,0,1,446.6152,32.1228Z" transform="translate(-17.5933 -7)"/><path class="cls-39" d="M424.584,38.0833c.3342-1.0215,1.1873-.9675,2.0127-.971C426.27,38.15,425.4168,38.0952,424.584,38.0833Z" transform="translate(-17.5933 -7)"/><path class="cls-2" d="M342.3662,104.9688c-.4153.0071-.6378-.18-.6164-.6124C342.26,104.2543,342.4663,104.4572,342.3662,104.9688Z" transform="translate(-17.5933 -7)"/><polygon class="cls-239" points="319.529 102.394 319.642 102.707 319.347 102.671 319.529 102.394"/><path class="cls-240" d="M338.6044,107.07l-.3758.4134.4782-.3138Z" transform="translate(-17.5933 -7)"/><path class="cls-68" d="M466.623,26.1276q-.0324.4653-.096.9274l-2.9457.0117C464.2413,25.6071,465.5487,26.2447,466.623,26.1276Z" transform="translate(-17.5933 -7)"/><path class="cls-75" d="M461.5515,28.0781a5.54,5.54,0,0,0,.05-.9317l2.0076.0067C463.257,28.2044,462.3892,28.1078,461.5515,28.0781Z" transform="translate(-17.5933 -7)"/><path class="cls-75" d="M458.6022,28.1136l1.0079.0587a1.0962,1.0962,0,0,1-1.0765.8871A8.7223,8.7223,0,0,0,458.6022,28.1136Z" transform="translate(-17.5933 -7)"/><path class="cls-207" d="M278.5117,119.0669l1.06-.9936q.0128.505.0258,1.01Q279.0545,119.0741,278.5117,119.0669Z" transform="translate(-17.5933 -7)"/><path class="cls-207" d="M276.4242,120.0189l1.1772-.5269A.8587.8587,0,0,1,276.4242,120.0189Z" transform="translate(-17.5933 -7)"/><path class="cls-51" d="M483.5856,58.0228l-.4843.0345-.4855-.0068q-.0819-.4395-.1962-.8717A1.07,1.07,0,0,1,483.5856,58.0228Z" transform="translate(-17.5933 -7)"/><path class="cls-51" d="M485.6082,59.0645a1.2629,1.2629,0,0,1-1.13-.91A1.1247,1.1247,0,0,1,485.6082,59.0645Z" transform="translate(-17.5933 -7)"/><path class="cls-57" d="M434.5589,71.9846a1.1641,1.1641,0,0,1,.98-.8888A.9079.9079,0,0,1,434.5589,71.9846Z" transform="translate(-17.5933 -7)"/><path class="cls-241" d="M520.8,109.17a.6568.6568,0,0,1,.6511.6165C520.8692,109.9667,520.7064,109.704,520.8,109.17Z" transform="translate(-17.5933 -7)"/><path class="cls-207" d="M279.5547,118.09l.9935-1.1053A1.0977,1.0977,0,0,1,279.5547,118.09Z" transform="translate(-17.5933 -7)"/><path class="cls-242" d="M525.2351,105.9418a.6124.6124,0,0,1-.5831-.6265C525.1708,105.2222,525.4369,105.3642,525.2351,105.9418Z" transform="translate(-17.5933 -7)"/><path class="cls-243" d="M515.5241,23.198c-.03.4538-.2083.7658-.7243.7521C514.7288,23.3986,515.0413,23.2163,515.5241,23.198Z" transform="translate(-17.5933 -7)"/><path class="cls-117" d="M534.609,89.152c-.0079-.8455-.12-1.7419.994-2.0411q.0623.5028.1246,1.0056a1.2432,1.2432,0,0,0-.2306.8252A4.9776,4.9776,0,0,1,534.609,89.152Z" transform="translate(-17.5933 -7)"/></svg>