<?xml version="1.0" encoding="utf-8"?>
<!-- Generator: Adobe Illustrator 22.1.0, SVG Export Plug-In . SVG Version: 6.00 Build 0)  -->
<svg version="1.1" id="Layer_1" xmlns="http://www.w3.org/2000/svg" xmlns:xlink="http://www.w3.org/1999/xlink" x="0px" y="0px"
	 width="475.1px" height="111.6px" viewBox="0 0 475.1 111.6" style="enable-background:new 0 0 475.1 111.6;" xml:space="preserve"
	>
<style type="text/css">
	.st0{fill:#201D1D;}
</style>
<path class="st0" d="M86.2,4l-2.6,3.9c17.5,7.2,24.6,20.2,24.6,34.2c0,7-1.9,13.3-5.6,13.3H56.7c-6.2,0-8.1-2.2-5.3-7.8
	c5-9.9,20-28.8,29.3-40.2c1.4-1.7,2.5-4.3-2.4-5.6S65.3,0,58.5,0C24,0,0,18.6,0,42.7c0,22.1,20.8,42.8,58.4,42.8
	c16.6,0,37-4.7,48.5-17.8H97C85.8,77.9,71.1,80.2,58.5,80.2C28.2,80.2,9,64.4,9,42.7C9,22.6,30.7,4.6,58.1,4.6c3.3,0,4.3,0.7,0.9,5
	c-7,8.7-19.5,26-25.4,36c-6.3,10.8,0.1,19.6,14.3,19.6h57.3c3.5,0,5.6-2,7.6-5.7c2.8-5.2,4.3-11,4.2-16.9
	C117.1,26.4,104.9,11.4,86.2,4z M460.4,39.5h-38.9c1.3-5,5.1-8.4,12.4-8.4h37.2v-8.4h-39.6c-22.5,0-27.9,16-27.9,25.1h48.2
	c6.6,0,6.6,8.9,0.2,8.9h-53.2v-34h-16v34h-26.6c-7.1,0-10.1-3.4-10.1-8.7V22.8h-25.7l-23,14.5l-19.8-14.5h-56.9
	c-16.5,0-28.2,9.6-29.6,21.7h10.7c-4.4,3-7.7,7.4-9.4,12.4h-33.7c-6.4,0-9.3-3.3-9.3-9.5V22.8h-16.1v20.9c0,13.3,7.2,21.6,23.6,21.6
	h112.3l23.1-14.5L312,65.3h23.7l-30.8-22.6L330,27v23.8c0,7.4,9.6,14.5,18.3,14.5h112.2C480,65.3,479.9,39.5,460.4,39.5z
	 M266.2,56.9h-54.5c0.6-4.5,2.9-9.1,10.4-9.1h33.8v-8.3h-45c0.8-3.4,4.3-8.3,12.4-8.3H259v-4.6l25.6,18.7L266.2,56.9z M134.1,111.2
	V92.4h10.6v2.4h-8v6h7.8v2.4h-7.8v5.6h8.5v2.4L134.1,111.2z M163.7,111.2l-4.2-6.4c-0.3-0.5-0.8-1.3-0.8-1.3s-0.5,0.8-0.9,1.4
	l-4.2,6.4h-3l6.5-10l-5.8-8.9h3.2l3.6,5.7c0.3,0.4,0.6,1,0.6,1c0.2-0.3,0.4-0.7,0.6-1l3.6-5.6h3l-5.8,8.8l6.6,10.1H163.7z
	 M179.4,103.8h-3.6v7.4h-2.6V92.4h5.7c3.8,0,6.2,2.5,6.2,5.8C185.1,101.3,182.6,103.8,179.4,103.8L179.4,103.8z M178.6,94.8h-2.7
	v6.6h2.9c2.2,0,3.7-1.2,3.7-3.4S181,94.8,178.6,94.8L178.6,94.8z M192,111.2V92.4h10.6v2.4h-8v6h7.8v2.4h-7.8v5.6h8.5v2.4L192,111.2
	z M221.8,111.2l-7.6-8.8v8.8h-2.6V92.4h6.1c3.1-0.2,5.7,2.2,5.8,5.2c0,0.1,0,0.2,0,0.3c0,3-2.4,5.4-5.4,5.4l7,7.9H221.8z
	 M217.2,94.8h-3v6.5h3c1.8,0.2,3.5-1.2,3.7-3c0-0.2,0-0.3,0-0.5c-0.1-1.8-1.7-3.2-3.6-3C217.2,94.8,217.2,94.8,217.2,94.8z
	 M232.3,111.2V92.4h2.6v18.9H232.3z M244,111.2V92.4h10.6v2.4h-8v6h7.8v2.4h-7.8v5.6h8.4v2.4L244,111.2z M276.2,111.2l-9.9-13.7
	L266,97c0,0,0,0.4,0,0.6v13.6h-2.6V92.4h2.2l9.8,13.4c0.1,0.2,0.2,0.4,0.3,0.6v-14h2.6v18.9H276.2z M294.4,111.6
	c-5.2-0.1-9.4-4.4-9.3-9.6c0,0,0-0.1,0-0.1c0-5.5,3.9-9.8,9.4-9.8c2.7-0.2,5.3,0.9,7,3l-1.9,1.7c-1.3-1.4-3.1-2.1-5-2.1
	c-3.7,0-6.7,2.8-6.7,7.2c-0.2,3.8,2.7,7.1,6.5,7.3c0,0,0.1,0,0.1,0c2.1,0,4.2-1,5.5-2.6l1.9,1.6
	C300.1,110.4,297.3,111.7,294.4,111.6L294.4,111.6z M308.6,111.2V92.4h10.6v2.4h-8v6h7.9v2.4h-7.8v5.6h8.5v2.4L308.6,111.2z
	 M348,111.2l-2.3-6.1h-6l-2.3,6.1h-2.8l7.2-18.9h1.7l7.3,18.9H348z M342.9,97.4c-0.1-0.2-0.1-0.3-0.1-0.5l-0.1,0.5l-2,5.3h4.2
	L342.9,97.4z M372.9,111.2V97.4c0-0.2,0-0.5,0.1-0.7c-0.1,0.2-0.2,0.3-0.3,0.4l-5.9,8h-1l-6-7.8c-0.1-0.1-0.2-0.3-0.3-0.4
	c0,0.2,0,0.5,0,0.7v13.7H357V92.4h2.2l7.1,9.2l6.9-9.2h2.3v18.9H372.9z M394.9,111.2l-2.3-6.1h-6l-2.3,6.1h-2.8l7.2-18.9h1.6
	l7.3,18.9H394.9z M389.7,97.4c-0.1-0.2-0.2-0.5-0.2-0.5s-0.1,0.3-0.1,0.5l-2,5.3h4.2L389.7,97.4z M406.8,108.4
	c-0.1,0.1-0.2,0.3-0.3,0.4h10v2.5H402l9.9-15.9c0.1-0.2,0.2-0.3,0.4-0.5h-8.6v-2.5h13.2L406.8,108.4z M423.8,111.2V92.4h2.6v18.9
	H423.8z M448.2,111.2l-9.9-13.7L438,97v14.2h-2.6V92.4h2.2l9.8,13.4c0.1,0.2,0.2,0.4,0.3,0.6c0,0,0-0.4,0-0.6V92.4h2.6v18.9H448.2z
	 M466.1,111.6c-5.3-0.1-9.6-4.4-9.6-9.8c-0.2-5.2,3.9-9.6,9.2-9.8c0.1,0,0.3,0,0.4,0c2.6-0.1,5.1,0.8,7,2.6l-1.6,1.9
	c-1.5-1.3-3.4-2-5.4-1.9c-3.8,0-6.9,2.9-6.9,7.2c0,3.9,3.1,7.1,7,7.2c2.5,0.1,4.8-1.4,5.6-3.8H466v-2.4h8.7
	C474.8,107.6,470.9,111.5,466.1,111.6C466.1,111.6,466.1,111.6,466.1,111.6L466.1,111.6z"/>
</svg>
