<?xml version="1.0" encoding="UTF-8" standalone="no"?>
<!-- Created with Inkscape (http://www.inkscape.org/) -->
<svg
   xmlns:svg="http://www.w3.org/2000/svg"
   xmlns="http://www.w3.org/2000/svg"
   version="1.0"
   width="885.82672"
   height="181.06299"
   id="svg2367">
  <defs
     id="defs2369" />
  <g
     transform="translate(-263.3037,348.46946)"
     id="g6737">
    <path
       d="M 426.30021,-257.76059 C 426.30021,-217.49364 393.8384,-185.20923 353.57154,-185.20923 C 313.48203,-185.20923 281.02022,-217.49364 281.02022,-257.58323 C 281.02022,-298.55957 313.48203,-330.66671 354.81325,-330.66671 C 394.0158,-330.66671 426.30021,-297.6727 426.30021,-257.76059 z M 288.47048,-257.76059 C 288.47048,-221.75092 317.56196,-192.83685 353.57154,-192.83685 C 389.40372,-192.83685 418.6726,-221.57357 418.6726,-257.58323 C 418.6726,-294.30228 389.93588,-323.03896 353.03938,-323.03896 C 317.73931,-323.03896 288.47048,-293.59277 288.47048,-257.76059 z M 337.60667,-260.77612 L 336.71976,-259.00222 C 333.52678,-259.71185 327.31824,-262.01787 320.93229,-264.85605 L 320.04538,-263.25954 L 322.70615,-261.84039 C 331.93032,-257.05095 335.12325,-255.98668 340.26749,-255.98668 C 351.08812,-255.98668 359.24793,-262.01787 363.15042,-272.83838 C 369.71376,-274.25753 378.22833,-274.78969 388.51677,-274.78969 C 397.20873,-274.78969 404.65899,-274.43493 414.41531,-273.19326 L 411.93189,-270.1776 C 407.49721,-270.70976 399.16,-271.242 393.30625,-271.242 C 386.03335,-271.242 381.77606,-271.242 379.29264,-271.06464 L 378.22833,-268.40374 C 384.08208,-268.75858 386.21075,-268.75858 390.82283,-268.75858 C 398.80524,-268.75858 405.01379,-268.40374 410.15799,-268.04898 L 407.67457,-264.67869 C 398.45044,-265.03341 394.37056,-265.21081 387.45246,-265.21081 C 383.72733,-265.21081 380.88915,-265.03341 376.45447,-264.85605 L 375.21276,-262.19527 C 379.11529,-262.55003 384.61428,-262.72739 390.11327,-262.72739 C 395.61227,-262.72739 401.99822,-262.55003 405.72334,-262.37263 L 403.23993,-259.17961 C 400.57911,-259.35697 395.61227,-259.35697 391.70974,-259.35697 C 385.50119,-259.35697 377.51878,-259.00222 373.61625,-258.4701 L 372.37454,-256.16408 C 379.8248,-256.87359 384.43688,-257.22835 392.59669,-257.22835 C 395.78967,-257.22835 397.74089,-257.22835 401.46602,-256.87359 L 398.62784,-253.50331 C 393.661,-253.85806 392.06454,-253.85806 390.11327,-253.85806 C 376.45447,-253.85806 367.4077,-251.90676 358.36098,-246.7626 C 366.69819,-238.42535 380.357,-232.74891 392.77409,-232.74891 C 393.8384,-232.74891 394.37056,-232.74891 397.03138,-232.92631 L 391.17758,-226.89525 C 358.36098,-235.58721 352.50719,-237.89323 322.3514,-255.80933 C 310.46645,-262.55003 300.71018,-267.16207 292.90512,-269.46809 L 293.96947,-273.19326 C 295.74334,-272.83838 299.82322,-271.77411 303.54835,-270.355 L 305.32222,-274.43493 L 337.60667,-260.77612"
       style="fill:#efae00;fill-rule:nonzero;stroke:none"
       id="path5423" />
    <path
       d="M 1059.5722,-228.31427 C 1059.5722,-238.7801 1066.3129,-246.23032 1079.6169,-249.95549 C 1081.7455,-250.48765 1088.4862,-252.08415 1100.0164,-254.03542 C 1104.8059,-255.09969 1106.7571,-256.51884 1106.7571,-260.06661 C 1106.7571,-263.96905 1102.6772,-266.45256 1096.646,-266.45256 C 1089.3732,-266.45256 1084.7611,-262.90479 1084.7611,-256.87359 L 1064.0068,-256.87359 C 1064.0068,-272.66102 1076.4239,-282.06263 1097.1782,-282.06263 C 1118.8194,-282.06263 1129.2853,-273.0159 1129.2853,-254.74493 L 1129.2853,-219.09015 C 1129.2853,-213.05896 1129.2853,-213.05896 1131.4139,-209.33391 L 1110.1275,-209.33391 L 1108.8857,-215.18758 C 1100.5486,-208.44687 1095.4043,-206.49561 1086.3576,-206.49561 C 1070.7475,-206.49561 1059.5722,-215.71986 1059.5722,-228.31427 M 1101.2581,-240.90877 C 1098.7747,-240.55401 1095.9365,-239.8445 1092.9209,-239.13486 C 1085.4707,-237.1836 1081.9229,-234.16806 1081.9229,-229.73338 C 1081.9229,-225.12134 1085.2933,-222.63792 1091.1471,-222.63792 C 1102.3224,-222.63792 1107.4667,-227.60476 1107.4667,-237.89323 L 1107.4667,-242.68267 C 1104.6285,-241.79564 1103.5642,-241.79564 1101.2581,-240.90877 M 987.02084,-232.57156 L 1009.3716,-232.57156 L 1009.3716,-231.68464 C 1009.3716,-225.83085 1014.1611,-222.28316 1021.7887,-222.28316 C 1028.352,-222.28316 1032.4319,-224.76658 1032.4319,-228.66899 C 1032.4319,-232.74891 1028.7068,-235.23233 1019.8374,-236.65148 L 1012.5646,-237.89323 C 996.06756,-240.73141 988.9721,-246.7626 988.9721,-257.76059 C 988.9721,-273.0159 1001.5666,-282.06263 1022.3209,-282.06263 C 1036.8666,-282.06263 1045.9134,-278.1601 1050.5254,-269.64549 C 1052.4767,-266.27507 1052.8315,-265.03341 1053.3636,-257.40571 L 1032.0771,-257.40571 C 1031.545,-263.96905 1028.7068,-266.45256 1021.7887,-266.45256 C 1016.1123,-266.45256 1012.5646,-264.32394 1012.5646,-260.59877 C 1012.5646,-257.22835 1015.9349,-255.27717 1023.5626,-254.03542 L 1031.3676,-252.61627 C 1047.8646,-249.77813 1055.4923,-242.68267 1055.4923,-230.62029 C 1055.4923,-215.89722 1043.0752,-206.49561 1023.2078,-206.49561 C 999.79269,-206.49561 987.02084,-215.71986 987.02084,-232.57156 M 837.30612,-228.31427 C 837.30612,-238.7801 844.22422,-246.23032 857.52823,-249.95549 C 859.6569,-250.48765 866.3976,-251.90676 877.75039,-254.03542 C 882.71723,-255.09969 884.66849,-256.51884 884.66849,-260.06661 C 884.66849,-263.96905 880.5886,-266.45256 874.38006,-266.45256 C 867.10715,-266.45256 862.67247,-263.08214 862.49511,-256.87359 L 841.74081,-256.87359 C 841.74081,-272.66102 854.1579,-282.06263 874.73481,-282.06263 C 896.37603,-282.06263 907.19666,-273.0159 907.19666,-254.74493 L 907.19666,-219.09015 C 907.19666,-213.05896 907.19666,-213.05896 908.97053,-209.33391 L 887.86146,-209.33391 L 886.61975,-215.18758 C 879.34685,-208.80163 873.1383,-206.49561 864.09158,-206.49561 C 848.65891,-206.49561 837.30612,-215.71986 837.30612,-228.31427 M 879.1695,-240.90877 C 876.33128,-240.37665 873.84786,-239.66702 870.83228,-239.13486 C 863.38203,-237.1836 859.8343,-234.16806 859.8343,-229.73338 C 859.8343,-225.12134 863.38203,-222.63792 869.05842,-222.63792 C 879.87901,-222.63792 885.20064,-227.60476 885.20064,-237.89323 L 885.20064,-242.68267 C 882.18507,-241.79564 881.29812,-241.79564 879.1695,-240.90877 M 596.23708,-218.55799 C 593.22151,-223.70219 592.68931,-226.36297 592.68931,-237.89323 L 592.68931,-279.04697 L 615.57228,-279.04697 L 615.57228,-238.7801 C 615.57228,-228.49163 618.41046,-224.41183 625.68332,-224.41183 C 633.13358,-224.41183 637.0361,-229.20127 637.0361,-238.7801 L 637.0361,-279.04697 L 659.74164,-279.04697 L 659.74164,-209.33391 L 638.98737,-209.33391 L 638.27781,-216.25197 C 632.60142,-210.22078 626.21547,-207.56 618.23306,-207.56 C 608.47678,-207.56 600.31697,-211.46257 596.23708,-218.55799 M 959.17107,-209.33391 L 959.17107,-248.89122 C 959.17107,-259.17961 956.1555,-263.4369 949.05999,-263.4369 C 941.60974,-263.4369 937.88461,-258.64746 937.88461,-248.89122 L 937.88461,-209.33391 L 915.17908,-209.33391 L 915.17908,-279.04697 L 935.93334,-279.04697 L 936.6429,-271.242 C 941.96449,-278.1601 948.35044,-281.17563 956.86505,-281.17563 C 966.62133,-281.17563 974.42634,-276.91831 978.50627,-269.64549 C 981.52185,-264.32394 981.8766,-261.30828 981.8766,-249.77813 L 981.8766,-209.33391 L 959.17107,-209.33391 M 809.45635,-209.33391 L 809.45635,-248.89122 C 809.45635,-259.00222 806.26338,-263.4369 799.34528,-263.4369 C 791.89502,-263.4369 788.16989,-258.64746 788.16989,-248.89122 L 788.16989,-209.33391 L 765.28696,-209.33391 L 765.28696,-306.36467 L 788.16989,-306.36467 L 788.16989,-271.242 C 792.24982,-278.1601 798.28097,-281.17563 806.97293,-281.17563 C 816.55186,-281.17563 824.35687,-277.09571 828.61415,-269.64549 C 831.62973,-264.32394 831.98453,-261.48563 831.98453,-249.77813 L 831.98453,-209.33391 L 809.45635,-209.33391 M 743.29098,-209.33391 C 729.80958,-209.33391 723.60099,-215.71986 723.60099,-229.73338 L 723.60099,-263.79166 L 714.02211,-263.79166 L 714.02211,-279.04697 L 723.60099,-279.04697 L 723.60099,-301.04299 L 746.30656,-301.04299 L 746.30656,-279.04697 L 759.25581,-279.04697 L 759.25581,-263.79166 L 746.30656,-263.79166 L 746.30656,-236.11933 C 746.48396,-225.83085 747.19347,-225.2987 755.88544,-225.2987 L 760.32012,-225.2987 L 760.32012,-209.33391 L 743.29098,-209.33391 M 674.2874,-209.33391 L 674.2874,-263.79166 L 664.35372,-263.79166 L 664.35372,-279.04697 L 674.2874,-279.04697 L 674.2874,-281.17563 C 674.2874,-299.62396 681.2055,-306.36467 698.94419,-306.36467 L 711.36129,-306.36467 L 711.36129,-290.932 L 707.63616,-290.932 C 699.12159,-290.932 696.99293,-288.98069 696.99293,-281.17563 L 696.99293,-279.04697 L 710.47438,-279.04697 L 710.47438,-263.79166 L 696.99293,-263.79166 L 696.99293,-209.33391 L 674.2874,-209.33391 M 523.15357,-209.33391 L 523.15357,-306.36467 L 547.27825,-306.36467 L 547.27825,-228.49163 L 588.25463,-228.49163 L 588.25463,-209.33391 L 523.15357,-209.33391"
       style="fill:#efae00;fill-rule:nonzero;stroke:none"
       id="path5425" />
  </g>
</svg>
