<?xml version="1.0" encoding="utf-8"?>
<!-- Generator: Adobe Illustrator 22.1.0, SVG Export Plug-In . SVG Version: 6.00 Build 0)  -->
<svg version="1.1" id="layer" xmlns="http://www.w3.org/2000/svg" xmlns:xlink="http://www.w3.org/1999/xlink" x="0px" y="0px"
	 width="599.9px" height="170.3px" viewBox="0 0 599.9 170.3" style="enable-background:new 0 0 599.9 170.3;" xml:space="preserve"
	>
<style type="text/css">
	.st0{fill:#525A68;}
	.st1{fill:#5C0D34;}
	.st2{fill:#757F8B;}
</style>
<g>
	<path class="st0" d="M109.6,151.4c-1.3,0-2.5,0-3.8,0s-3.1,0-4.4,0l4.4-10.1L109.6,151.4z M114.6,162.7c0.6,0,1.9,0,3.1,0
		c1.3,0,2.5,0,3.1,0c-1.9-3.8-4.4-10.1-6.3-13.8c-1.3-3.8-3.8-9.4-5.7-15.1c-0.6,0-0.6,0-1.3,0s-0.6,0-1.3,0
		c-1.3,3.1-3.1,8.8-7.5,18.2l-5,10.7c0.6,0,1.3,0,1.9,0s1.3,0,1.9,0c0.6-2.5,1.9-5.7,3.1-8.8c1.9,0,3.1,0,5,0s3.8,0,5,0l1.9,4.4
		L114.6,162.7z"/>
	<path class="st0" d="M124,143.8c0,6.9,0,13.8-0.6,18.9c0.6,0,1.9,0,3.1,0c1.3,0,1.9,0,3.1,0c-0.6-3.1-0.6-7.5-0.6-13.8
		c0-4.4,0-11.3,0.6-14.5c-1.3,0-1.9,0-3.1,0c-0.6,0-1.9,0-3.1,0C124,138.2,124,141.3,124,143.8"/>
	<path class="st0" d="M149.2,148.9c3.8-0.6,6.9-3.1,6.9-7.5c0-1.9-0.6-3.1-1.9-4.4c-1.9-1.9-3.8-1.9-6.3-1.9c-1.3,0-5.7,0-6.9,0
		c-1.9,0-3.1,0-4.4,0c0,5,0,5.7,0,11.3c0,8.2,0,8.8-0.6,17c0.6,0,1.9,0,3.1,0c1.3,0,1.9,0,2.5,0c0-1.3,0-6.3,0-7.5v-5.7h1.3
		c2.5,3.1,5,6.9,6.9,10.1c0.6,1.3,1.3,2.5,1.9,3.1c1.3,0,1.9,0,3.1,0c1.3,0,2.5,0,3.8,0c-2.5-3.1-3.8-5-6.9-9.4
		c-0.6-0.6-1.3-2.5-1.9-3.1L149.2,148.9z M142.3,136.3c0.6,0,1.9,0,3.1,0c1.3,0,2.5,0,3.8,1.3s1.9,2.5,1.9,4.4
		c0,2.5-1.3,5.7-5.7,5.7c-1.3,0-1.9,0-3.1,0V136.3z"/>
	<path class="st0" d="M170.5,153.3c-1.9-5.7-4.4-13.8-5.7-18.9c-1.3,0-1.9,0-3.1,0c-1.3,0-2.5,0-3.1,0c1.9,4.4,3.1,8.2,4.4,11.3
		c1.9,5.7,3.1,8.8,4.4,13.8l1.3,3.1c0.6,0,1.3,0,1.9,0c0.6,0,0.6,0,1.3,0c0.6-1.9,1.3-5,1.9-6.3c1.9-5,1.9-5.7,3.8-11.3l1.3-3.1
		c0.6,1.3,1.3,3.1,1.9,5c0.6,1.3,2.5,7.5,3.1,8.8c0.6,1.9,0.6,2.5,2.5,7.5c0.6,0,1.3,0,1.9,0s1.3,0,1.9,0c1.9-5,1.9-5.7,3.8-11.9
		c2.5-6.3,3.8-10.1,6.3-16.3c-0.6,0-1.3,0-1.9,0c-0.6,0-1.3,0-1.9,0c-1.3,5.7-2.5,8.2-3.1,11.3c-1.9,5.7-1.9,6.3-3.1,9.4
		c-1.3-3.8-2.5-6.9-3.8-10.7c-1.9-2.5-4.4-10.7-4.4-10.7c-0.6,0-1.3,0-1.9,0c-0.6,0-1.3,0-1.9,0c-1.3,5-5.7,17-6.3,18.2l-0.6,2.5
		L170.5,153.3z"/>
	<path class="st0" d="M212.1,151.4c-1.3,0-2.5,0-3.8,0s-3.1,0-4.4,0l4.4-10.1L212.1,151.4z M217.1,162.7c0.6,0,1.9,0,3.1,0
		c1.3,0,2.5,0,3.1,0c-1.9-3.8-4.4-10.1-6.3-13.8c-1.3-3.8-3.8-9.4-5.7-15.1c-0.6,0-0.6,0-1.3,0c-0.6,0-0.6,0-1.3,0
		c-1.3,3.1-3.1,8.8-7.5,18.2l-5,10.7c0.6,0,1.3,0,1.9,0c0.6,0,1.3,0,1.9,0c0.6-2.5,1.9-5.7,3.1-8.8c1.9,0,3.1,0,5,0s3.8,0,5,0
		l1.9,4.4L217.1,162.7z"/>
	<path class="st0" d="M234.1,151.4c0-0.6,0-0.6,0.6-1.3c1.9-3.1,3.1-6.3,5-8.8c0.6-1.3,3.8-5.7,4.4-6.9c-0.6,0-0.6,0-1.9,0
		c-0.6,0-1.9,0-2.5,0c-3.1,6.3-3.8,8.2-6.9,13.8c-3.8-6.3-5-9.4-7.5-13.8c-1.3,0-2.5,0-3.1,0s-1.9,0-3.1,0c1.9,3.8,5.7,9.4,7.5,13.2
		l2.5,4.4c0,2.5,0,8.2,0,11.3c0.6,0,1.9,0,2.5,0c1.3,0,1.9,0,3.1,0c0-3.8,0-6.3,0-9.4v-2.5H234.1z"/>
	<path class="st0" d="M246.6,156.4c0,1.9,0,2.5-1.3,4.4c1.3,0.6,4.4,1.9,7.5,1.9c7.5,0,10.7-5,10.7-8.8c0-1.3,0-3.8-1.9-5.7
		c-1.3-1.3-2.5-1.9-5.7-3.1c-3.8-1.3-5.7-2.5-5.7-5s1.9-4.4,5-4.4c2.5,0,5,1.3,5.7,3.8h0.6c0.6-1.9,0.6-1.9,1.3-3.8
		c-1.9-0.6-3.8-1.9-6.9-1.9c-7.5,0-9.4,4.4-9.4,8.2c0,3.1,1.3,5.7,5,7.5c1.3,0.6,3.1,1.3,4.4,1.9c0.6,0.6,3.1,1.3,3.1,5
		c0,3.1-1.9,5-5.7,5C251,161.4,249.2,160.8,246.6,156.4L246.6,156.4z"/>
	<path class="st1" d="M16.5,79.7c0-31.4,17-39.6,29.6-39.6c20.1,0,28.9,17,28.9,35.2c0,10.1-1.3,20.1-6.3,27.7
		c-5,7.5-13.8,12.6-22.6,12.6C23.4,115.5,16.5,93.5,16.5,79.7 M78.7,143.8c3.8-2.5,9.4-5.7,13.8-7.5l-28.3-17.6
		c17-6.3,28.3-21.4,28.3-42.8c0-29.6-22.6-42.8-45.9-42.8c-25.2,0-46.5,13.8-46.5,45.3c-0.6,7.5,1.3,20.1,11.3,30.8
		c10.7,10.7,23.9,12.6,34.6,12.6c1.3,0,2.5,0,4.4,0L78.7,143.8z"/>
	<path class="st1" d="M150.4,85.4c-3.8,0-7.5,0.6-11.3,0.6c-4.4,0-8.8-0.6-13.2-0.6l12.6-30.8L150.4,85.4z M164.3,119.9
		c2.5,0,5.7-0.6,9.4-0.6s7.5,0.6,9.4,0.6c-5.7-11.9-13.8-30.8-18.2-41.5S153,50.7,147.3,33.8c-1.3,0.6-2.5,0.6-3.8,0.6
		s-2.5,0-4.4-0.6C136,43.9,129,60.2,116.5,88.5L102,120.6c1.9,0,3.8-0.6,5.7-0.6s4.4,0.6,5.7,0.6c1.9-6.9,5.7-17.6,10.1-27
		c5,0,10.1-0.6,15.1-0.6s10.7,0,15.7,0.6l5,13.2L164.3,119.9z"/>
	<path class="st1" d="M219.6,57.1c0-5,0-9.4,0-13.8c8.8,0,17.6,0,24.5,0.6c-0.6-1.9-0.6-3.1-0.6-4.4s0-2.5,0.6-5
		c-11.9,1.3-22.6,1.3-32.7,1.3c-9.4,0-23.3,0-33.3-0.6c0.6,1.3,0.6,3.1,0.6,4.4s0,3.1-0.6,4.4c6.3-0.6,18.2-0.6,19.5-0.6h6.3
		c0,5,0,9.4,0,13.8v34.6c0,9.4-0.6,18.9-1.3,28.3c4.4-0.6,6.3-0.6,8.2-0.6c1.3,0,5.7,0.6,8.8,0.6c0-3.1,0-7.5,0-17V57.1z"/>
	<path class="st1" d="M288.8,85.4c-3.8,0-7.5,0.6-11.3,0.6c-4.4,0-8.8-0.6-13.2-0.6l12.6-30.8L288.8,85.4z M302.6,119.9
		c2.5,0,5.7-0.6,9.4-0.6s7.5,0.6,9.4,0.6c-5.7-11.9-13.8-30.8-18.2-41.5c-4.4-10.7-11.9-27.7-17.6-44.6c-1.3,0.6-2.5,0.6-3.8,0.6
		s-2.5,0-4.4-0.6c-3.1,10.1-10.1,26.4-22.6,54.7l-14.5,32.1c1.9,0,3.8-0.6,5.7-0.6c1.9,0,4.4,0.6,5.7,0.6c1.9-6.9,5.7-17.6,10.1-27
		c5,0,10.1-0.6,15.1-0.6s10.7,0,15.7,0.6l5,13.2L302.6,119.9z"/>
	<path class="st1" d="M371.8,77.8c11.3-1.9,21.4-9.4,21.4-23.3c0-5-1.9-10.1-5.7-13.8c-5-5-11.3-6.3-19.5-6.3
		c-3.1,0-17,0.6-20.8,0.6c-6.3,0-9.4-0.6-12.6-0.6c0.6,15.7,0.6,17.6,0.6,34c0,23.9,0,26.4-1.3,50.9c2.5-0.6,5.7-0.6,8.8-0.6
		s5.7,0.6,8.2,0.6c0-3.1-0.6-19.5-0.6-22.6v-17h3.1c6.9,9.4,14.5,20.1,20.8,30.2c1.9,3.1,4.4,7.5,6.3,10.1c3.8-0.6,5-0.6,10.1-0.6
		c4.4,0,7.5,0.6,11.3,0.6c-7.5-10.1-11.3-14.5-20.8-27.7c-1.9-2.5-4.4-6.9-6.3-9.4L371.8,77.8z M351,41.3c1.9,0,6.3-0.6,8.8-0.6
		c4.4,0,8.2,0.6,11.3,3.1c4.4,3.1,5,7.5,5,13.2c0,8.2-4.4,17-17,17c-3.1,0-6.3,0-8.8-0.6V41.3H351z"/>
	<path class="st2" d="M557.3,77.8c0,0.6-11.3,1.3-27,1.9c-3.1-1.9-5-3.1-6.3-4.4C542.8,76.5,557.3,77.2,557.3,77.8"/>
	<path class="st2" d="M546,50.8c0,0.6-9.4,1.3-22.6,1.9c1.9-1.3,3.8-2.5,6.3-3.1C539,50.1,546,50.1,546,50.8"/>
	<path class="st2" d="M445.3,109.2c-6.3,0-11.9,0-15.7,0c-6.3,0-11.3-1.9-11.3-4.4s5-4.4,11.3-4.4c5.7,0,12.6,0,21.4,0
		C447.2,106.1,446,108.6,445.3,109.2L445.3,109.2"/>
	<path class="st2" d="M448.5,114.9c1.9,2.5,3.8,4.4,6.9,6.9c0,0,1.3,1.3,3.8,0c3.1-1.3,5.7-3.1,8.8-6.9c8.8,0,17.6,0.6,26.4,0.6
		c0.6,1.3,2.5,3.1,3.8,6.3c-25.2,0.6-52.2,1.3-66,1.3c-5.7,0-10.7-1.9-10.7-3.8c0-2.5,4.4-3.8,10.7-3.8
		C437.2,114.9,442.2,114.9,448.5,114.9L448.5,114.9"/>
	<path class="st2" d="M439.1,135.7c-5,0-9.4-1.9-9.4-3.8s4.4-3.8,9.4-3.8c13.8,0,41.5,0.6,65.4,1.3c1.3,1.9,2.5,3.1,3.1,5
		C483.1,135.7,453.5,135.7,439.1,135.7"/>
	<path class="st2" d="M518.3,147c-20.1,0.6-54.7,1.3-68.5,1.3c-3.8,0-7.5-1.3-7.5-2.5s3.1-2.5,7.5-2.5c13.8,0,45.9,0.6,66,1.3
		C516.4,145.1,517,146.3,518.3,147"/>
	<path class="st2" d="M466.1,154.5c11.9,0,47.8,0.6,47.8,1.9s-35.8,1.9-47.8,1.9c-2.5,0-4.4-0.6-4.4-1.9
		C461.7,155.8,463.6,154.5,466.1,154.5"/>
	<path class="st2" d="M466.1,82.2c-15.1,0-28.3,0.6-36.5,0.6c-6.3,0-11.3-1.9-11.3-4.4s5-4.4,11.3-4.4c10.1,0,26.4,0,44,0.6
		C470.5,77.2,468,79.7,466.1,82.2"/>
	<path class="st2" d="M539,62.7c8.8,0.6,14.5,1.3,14.5,1.3c0,0.6-6.9,1.3-17,1.9C538.4,64.6,539,63.3,539,62.7"/>
	<path class="st2" d="M432.8,68.4c-5.7,0-10.7-1.9-10.7-3.8c0-2.5,4.4-3.8,10.7-3.8c11.9,0,33.3,0,54.7,0.6c-2.5,2.5-5,4.4-7.5,6.9
		C461.1,68.4,443.5,68.4,432.8,68.4"/>
	<path class="st2" d="M497.5,53.9c-22,0.6-45.9,0.6-58.5,0.6c-5,0-9.4-1.9-9.4-3.8s4.4-3.8,9.4-3.8c13.8,0,41.5,0.6,65.4,1.3
		c-1.3,0.6-2.5,1.9-3.8,2.5C499.4,52,498.2,52.7,497.5,53.9"/>
	<path class="st2" d="M449.1,40.1c-3.8,0-7.5-1.3-7.5-2.5s3.1-2.5,7.5-2.5c15.7-0.6,53.4,0,72.3,1.3c-1.3,0.6-2.5,1.9-3.8,2.5
		C498.2,39.4,463.6,40.1,449.1,40.1"/>
	<path class="st2" d="M428.4,96c-6.3,0-11.3-1.9-11.3-4.4s5-4.4,11.3-4.4c7.5,0,19.5,0,32.7,0.6c-2.5,3.1-4.4,5.7-6.3,8.2
		C444.1,96,434.7,96,428.4,96"/>
	<path class="st2" d="M461.7,26.9c0-1.3,1.9-1.9,4.4-1.9c11.9,0,47.8,0.6,47.8,1.9s-35.8,1.9-47.8,1.9
		C463.6,28.8,461.7,27.5,461.7,26.9"/>
	<path class="st1" d="M558.5,88.5c0,1.9,0,4.4,0,6.3c-20.8,0.6-40.9,1.9-40.9,3.8c0,1.3,19.5,2.5,40.2,3.8c-0.6,2.5-0.6,5-1.3,6.9
		c-20.1,0.6-39,1.9-39,3.1s17.6,2.5,37.1,3.1c-0.6,2.5-1.9,5-3.1,7.5c-17,0.6-30.8,1.9-30.8,3.1c0,1.3,11.9,1.9,27.7,3.1
		c-0.6,1.3-1.9,2.5-2.5,3.8c-1.3,1.3-1.9,2.5-3.1,4.4c-9.4,0.6-16.3,1.3-16.3,2.5c0,0.6,4.4,1.3,11.9,1.9
		c-3.8,3.8-8.8,7.5-13.8,10.7c0,0-6.3-5.7-11.9-11.9c-5-5.7-15.1-21.4-17-24.5c-2.5-3.1-3.8-4.4-6.9-3.1c-3.8,1.3-8.2,1.9-9.4,1.9
		s-1.9-0.6,0-1.3c2.5-0.6,11.3-5,15.1-13.8c5-9.4,0.6-23.3,0.6-23.3c-1.9,6.9-5.7,10.1-5.7,10.1c1.3-6.9,0-12.6-3.1-17l-2.5,7.5
		c0,0-1.3,0-3.8,2.5s-3.8,5.7-3.8,5.7c2.5,0.6,5-1.3,5-1.3c-3.1,12.6-8.2,23.3-11.9,28.9c-3.8,5.7-6.3,7.5-10.1,8.8
		c-3.1,1.3-3.8,0-3.8,0c-2.5-2.5-4.4-4.4-6.9-6.9c0,0,0,0,0.6,0c1.3,0,4.4-2.5,4.4-3.8c0.6-1.3,0.6-1.9,0-1.9s-0.6,0.6-3.8,2.5
		c-2.5,1.9-4.4,0.6-5-0.6c-0.6-0.6,0-1.9,0.6-2.5s15.1-28.3,54.7-57.9c51.6-38.4,84.9-48.4,86.8-49.7c1.3-0.6,3.1-1.3,3.8-0.6
		c0.6,0.6,0.6,1.3,0.6,1.9s-0.6,0.6-2.5,1.9c-20.1,8.8-43.4,23.3-56,32.1c-16.3,8.2-31.4,19.5-32.1,19.5c-1.3,0.6-0.6,1.9,0.6,1.3
		c27.7-18.2,59.7-30.8,95-40.9c1.9-0.6,2.5-0.6,3.1,0s0.6,0.6,0.6,1.3s-0.6,1.3-1.9,1.3c-38.4,14.5-66,27-84.3,39.6
		c0,0-1.9,1.3-1.9,2.5c0,0.6,1.3,0.6,1.3,0.6c8.8,0,21.4,0.6,27,1.3c0,0-0.6,3.1-6.3,5c-4.4,1.9-8.2,1.3-11.9,1.3
		c-0.6,0-1.9,0.6-0.6,1.9C520.2,72.1,528.3,85.4,558.5,88.5"/>
	<path class="st1" d="M282.5,158.3h-5c0,0-0.6-3.1,1.3-4.4s3.8-1.9,3.8-1.9L282.5,158.3L282.5,158.3z M306.4,146.3
		c0,0-3.1,1.9-5,3.8s0.6,2.5,0.6,2.5v5.7h-15.1v-20.8c0,0-5.7,5-5.7,5.7c-0.6,0.6,1.3,1.3,1.3,1.3v1.9c0,0-1.9,1.3-5,3.1
		c-2.5,1.9-4.4,3.8-4.4,5.7c0,1.3-0.6,7.5-0.6,7.5h34.6v-16.3h-0.7V146.3z M275.6,138.8c1.9,0,3.1-0.6,3.1-1.9s-0.6-2.5-3.1-2.5
		c-1.9,0-2.5,0.6-2.5,2.5C273.7,138.2,274.3,138.8,275.6,138.8 M281.9,138.8c1.9,0,3.1-0.6,3.1-1.9s-0.6-2.5-3.1-2.5
		c-1.9,0-2.5,0.6-2.5,2.5C280,138.2,280.6,138.8,281.9,138.8 M291.9,164.6c-1.9,0-2.5,0.6-2.5,2.5c0,1.3,0.6,1.9,2.5,1.9
		s3.1-0.6,3.1-1.9C294.4,165.2,293.8,164.6,291.9,164.6 M298.2,164.6c-1.9,0-2.5,0.6-2.5,2.5c0,1.3,0.6,1.9,2.5,1.9s3.1-0.6,3.1-1.9
		C301.3,165.2,300.1,164.6,298.2,164.6 M372.4,138.8c1.9,0,3.1-0.6,3.1-1.9s-0.6-2.5-3.1-2.5c-1.9,0-2.5,0.6-2.5,2.5
		C369.9,138.2,370.5,138.8,372.4,138.8 M378.7,138.8c1.9,0,3.1-0.6,3.1-1.9s-0.6-2.5-3.1-2.5c-1.9,0-2.5,0.6-2.5,2.5
		C376.2,138.2,376.8,138.8,378.7,138.8 M396.9,139.4c-0.6,0.6-0.6,1.9,0.6,1.9v22h5v-27C402.6,135.7,397.6,138.2,396.9,139.4
		 M377.4,151.4h-3.1c0-1.9,3.1-2.5,3.1-2.5V151.4z M356.7,155.2c0,0.6,0,1.9,0,3.1H329v-5c0.6-1.9,1.9-1.9,3.8-1.9h20.1
		C357.3,151.4,356.7,153.9,356.7,155.2 M388.7,140.7v17.6h-6.2v-15.7c0,0-1.3,0.6-3.1,1.3c-1.9,0.6-8.2,3.8-8.2,6.9v4.4h6.9v3.1
		h-15.7c0-0.6,0-1.9,0-3.8c0-5-4.4-8.2-8.2-8.2H336c-3.1,0-5,0.6-5.7,1.9V135c0,0-3.1,1.9-5,3.8s0,2.5,0,2.5v17H319v-14.5
		c0,0-4.4,3.1-5.7,3.8c-1.3,0.6-0.6,1.9,0.6,1.9c0,0,0,10.7,0,13.2s-1.9,5.7-6.3,4.4c0,0-1.3,0,0,1.3s2.5,1.9,4.4,1.9
		s7.5-1.3,7.5-7.5h76.1v-27c0,0-4.4,3.1-5.7,3.8C387.5,140.1,387.5,140.7,388.7,140.7"/>
</g>
</svg>
