<svg id="Ebene_1" data-name="Ebene 1" xmlns="http://www.w3.org/2000/svg" viewBox="0 0 1362.053 302.3497"><defs><style>.cls-1{fill:#010101;}.cls-2{fill:#020202;}.cls-3{fill:#fdfdfd;}</style></defs><path class="cls-1" d="M-.9,221.6628c28.6588,0,57.3178.059,85.976-.0747,3.6549-.017,5.3814.5145,5.1307,4.7647-.2835,4.8077.8143,9.6157,2.1209,14.2623,3.3022,11.7441,11.1712,18.7887,23.1253,20.5841,10.6548,1.6,21.2721.7757,31.3669-3.4639,6.7792-2.8471,11.64-7.4714,13.5446-14.8841,2.47-9.61-.8539-17.6405-9.6785-22.1031-11.0324-5.5792-22.9733-8.6417-34.772-12.0376-23.4454-6.748-47.1536-12.6549-69.7564-22.0586-2.1451-.8924-4.2325-1.9236-6.38-2.81C16.6117,174.2776,4.03,157.1387,2.4788,132.0142.681,102.8954,10.1019,78.045,38.36,63.1a108.9482,108.9482,0,0,1,30.422-10.747c38.8179-7.4752,77.7134-8.6441,116.3961.5861,18.12,4.3236,33.8414,13.04,43.83,29.6627,8.1269,13.5246,10.2077,28.61,10.9447,44.0227.1195,2.498-1.0247,2.6342-2.9332,2.6318q-40.4888-.0506-80.9775.0242c-2.4079.0066-3.0109-.8176-3.2123-3.1187a53.7412,53.7412,0,0,0-3.7532-16.45c-3.8784-9.15-10.7183-14.6673-20.48-16.2832a38.8908,38.8908,0,0,0-23.8,3.48c-6.8848,3.36-10.46,9.1168-10.5133,16.8084-.0526,7.5966,3.5562,12.8331,10.5038,16.0328,14.72,6.7793,30.43,10.4686,45.905,14.8661,19.0073,5.4015,38.082,10.58,56.3515,18.2254,17.0065,7.1174,32.4808,16.14,40.4786,34.6558,1.5061-1.9827,1.0018-3.6628,1.0059-5.1674.0407-14.9879.1075-29.9769-.0417-44.9635-.0317-3.1834.6539-4.3341,4.119-4.1807a427.49,427.49,0,0,0,79.6754-3.8762c4.0724-.5836,4.8668.0176,4.8541,4.0513-.1393,44.1311-.0873,88.2628-.0873,132.3943v4.8271c6.4829-9.5637,12.2066-17.9637,17.8857-26.3937,17.09-25.3679,34.1061-50.7858,51.3218-76.068,1.8778-2.7576,1.5988-4.402-.3026-6.84-9.1066-11.6782-18.0376-23.4932-27.0214-35.267-1.27-1.6647-2.4875-3.37-4.02-5.4514,9.4747-2.8845,18.4687-5.6941,27.1818-9.277a198.4309,198.4309,0,0,0,45.8687-25.911c2.4614-1.8922,3.55-1.761,5.4212.7159,6.1152,8.0941,12.5307,15.9616,19.2067,24.3912,4.9525-7.4067,9.7236-14.5,14.4515-21.6222,8.273-12.4625,16.5881-24.8982,24.71-37.4589a5.3461,5.3461,0,0,1,5.1664-2.8413q113.7186.0865,227.4371-.0393c3.3416-.005,3.7,1.1568,3.6859,3.9866q-.16,31.4741.0129,62.9491c.0208,3.18-.684,4.2348-4.067,4.1892-14.66-.1974-29.3264.0561-43.9852-.1788-3.8963-.0625-4.9469.937-4.9367,4.8986.14,53.9567.0482,107.9139.1859,161.8706.01,4.1144-.6042,5.5215-5.2432,5.5053q-85.7253-.3-171.452-.0212c-3.8648.0106-5.8609-1.2951-7.8884-4.3662-14.1992-21.5069-28.5939-42.8849-43.2487-64.7866-5.2776,7.5615-10.3728,14.8554-15.4615,22.1537-10.1764,14.5953-20.4152,29.148-30.4567,43.8354a6.3854,6.3854,0,0,1-6.07,3.11q-81.2274-.1122-162.4548.0512c-4.0122.0119-4.558-1.3173-4.497-4.7959.2013-11.4873.101-22.9805.046-34.471-.0074-1.5424.5338-3.2172-.8813-5.1839-3.0724,6.3979-6.4571,12.2012-11.0271,17.2041-13.5733,14.8589-31.2382,22.2239-50.1971,26.9421-25.7393,6.4057-52.0091,7.2244-78.3619,6.5552-19.0063-.4826-37.9033-2.1041-56.2542-7.4419-16.8257-4.8942-31.9337-12.5418-41.4473-28.1936C3.05,260.3157,1.2987,246.8037.12,233.1505c-.1287-1.4907.9123-3.3724-1.02-4.4924Zm607.9921,64.136c.2439-1.9815.389-2.6108.3891-3.24q.0176-74.6587.0927-149.3174c.0076-3.2742-1.1078-3.78-3.9984-3.7438q-17.7347.2223-35.4733-.0083a6.0294,6.0294,0,0,0-5.6539,3.0226Q548.26,152.7125,533.78,172.7066c-1.6466,2.2671-1.625,3.662-.0082,5.9963,14.3833,20.7671,28.5927,41.6545,42.85,62.5087C586.5344,255.7113,596.4424,270.2144,607.0925,285.7988Z" transform="translate(0.8996 -5.8098)"/><path class="cls-2" d="M406.4359,6.8143,406.0354,5.81h91.9853q-.1834.4992-.367.9986Z" transform="translate(0.8996 -5.8098)"/><path class="cls-1" d="M406.4359,6.8143l91.2178-.0059c-1.6219,8.741-5.8609,16.4383-10.0618,24.0589-21.6628,39.2976-55.3764,64.1944-96.5819,79.9-34.0866,12.9922-69.6157,18.1705-105.91,19.1749-10.819.2994-21.6173-.2228-32.4211-.1225-3.8815.036-4.1953-1.6764-4.18-4.8008.1034-20.6352.1776-41.2725-.0539-61.9056-.045-4.015,1.2635-4.61,4.8071-4.3491,25.3251,1.8675,50.5456,1.0562,75.4847-4.0463,21.8782-4.4762,42.45-11.9889,59.9058-26.5837C395.895,22.07,401.3581,14.6311,406.4359,6.8143Z" transform="translate(0.8996 -5.8098)"/><path class="cls-3" d="M1117.8226,200.9238c-.339-6.9213-.7193-12.6957-.8612-18.476-.0661-2.6891-.9045-3.6962-3.7934-3.6611q-19.4917.237-38.9876-.0028c-3.12-.0409-3.4513,1.1692-3.312,3.8059.4294,8.1351.8254,16.2825.8509,24.4264q.1431,45.7134-.0195,91.4274c-.0091,2.989.3551,4.3311,3.9208,4.2646,13.1584-.2453,26.3262-.2171,39.4861-.0141,3.3239.0513,4.0908-.9193,4.0612-4.1275-.1589-17.3182-.2746-34.6417-.01-51.9573.2008-13.1422,4.205-24.8174,14.8436-33.4887,13.3654-10.8937,43.4042-11.4771,49.4557,13.4777a51.5235,51.5235,0,0,1,1.4778,12.35c-.06,19.984.0118,39.9685-.0751,59.9523-.011,2.5386.1881,3.8343,3.35,3.7908,13.66-.1879,27.3252-.1168,40.9877-.0435,2.19.0118,3.305-.3252,3.2664-2.9308-.3789-25.6338,1.111-51.3158-.7405-76.8943-1.4214-19.636-11.0066-34.6234-29.6083-42.7837-12.0278-5.2764-24.7976-6.2934-37.694-5.339C1145.3876,176.1083,1130.5036,185.3785,1117.8226,200.9238Zm203.579-64.2973c-15.6727,5.7339-30.7163,11.2868-45.8095,16.702-2.062.74-1.6845,2.1352-1.6894,3.55-.0212,6.16-.1569,12.3254.0564,18.4781.099,2.8526-.781,3.635-3.5968,3.5647-7.6577-.191-15.3261.047-22.9846-.125-2.7608-.0621-3.7864.6189-3.7134,3.56.1943,7.82.1628,15.65.0116,23.4724-.05,2.6029.7177,3.4667,3.3662,3.41,7.326-.1582,14.6646.1363,21.984-.134,3.7047-.1369,5.0466.6471,4.9794,4.7517-.27,16.4781-.2494,32.9646-.0762,49.4453.2167,20.62,10.8208,34.1423,30.7646,39.379,17.78,4.6685,35.653,3.0433,53.5231.4678,2.2415-.3231,2.9475-1.2794,2.8992-3.5905-.1636-7.8217-.2612-15.6562.0289-23.47.1287-3.4648-1.2334-3.7924-4.02-3.3415a84.7176,84.7176,0,0,1-17.9195.931c-11.3389-.5833-16.62-5.6014-17.3869-16.99-.9965-14.7943-.1422-29.6211-.4743-44.4284-.0668-2.9731,1.4153-3.1239,3.6862-3.11,10.827.0672,21.6562-.0658,32.4812.0938,2.8569.0421,3.6689-.8213,3.6035-3.6316-.1782-7.6544-.2137-15.32.0132-22.972.0921-3.11-.8463-3.9113-3.9008-3.8546-10.3243.1915-20.659-.11-30.9794.1665-3.902.1044-5.034-.94-4.9458-4.9071C1321.5745,161.79,1321.4016,149.5271,1321.4016,136.6265Zm-495.667,68.385c0-8.1174.0338-15.1956-.02-22.2731-.017-2.2442-.2553-4.0162-3.53-3.966-13.148.2015-26.3013.1358-39.4517.0393-2.6511-.0195-3.2353.7015-3.1131,3.447q.7311,16.4311.8089,32.89.1539,41.6782-.03,83.3574c-.0126,3.1427.6412,4.2539,4.0655,4.1948,12.9807-.2243,25.9722-.28,38.95.0222,4.0384.0941,4.496-1.3643,4.4682-4.8167-.1231-15.3039-.3936-30.627.2157-45.91.5575-13.984,7.1014-24.7414,20.1618-30.8067,9.4782-4.4017,19.5142-5.25,29.7393-3.7266,3.2373.4822,4.303-.1567,4.2155-3.6438-.2417-9.6441-.0835-19.2983-.0835-28.9485,0-7.4457-.0036-7.2525-7.4-7.3861-20.8955-.3776-37.94,6.0214-47.3864,26.231A13.0264,13.0264,0,0,1,825.7346,205.0115Z" transform="translate(0.8996 -5.8098)"/><path class="cls-2" d="M1050.7642,264.6308c-4.9816,20.6846-17.3263,33.9466-37.3574,38.6084-25.7646,5.9963-51.8517,6.4147-77.4786-.9576-29.8766-8.5949-44.5285-30.851-43.1287-64.0381,1.193-28.2826,16.8742-49.36,44.6819-58.4759,24.26-7.9531,48.9655-7.6151,73.1629.1589,24.9916,8.0291,37.4079,26.8479,41.2324,52.0016.798,5.2486.95,10.5922,1.5921,15.8687.4416,3.6314-.6469,4.8-4.546,4.78-33.9787-.17-67.9587-.0993-101.9383-.0974-5.7942,0-5.877.1076-4.7449,5.8141,2.8412,14.3227,13.1969,22.6311,28.9007,23.1489a59.8323,59.8323,0,0,0,11.4386-.6668c8.2027-1.3081,14.4006-5.1168,16.879-13.4415.6519-2.19,1.6686-2.7629,3.84-2.7506C1018.947,264.6718,1034.5965,264.6308,1050.7642,264.6308Zm-78.31-37.9746c9.1613,0,18.3238-.0744,27.4834.0512,2.35.0322,3.304-.4658,2.9963-3.0127-1.1866-9.8182-5.4916-17.3485-15.1221-21.0341a41.62,41.62,0,0,0-19.6213-2.182c-13.4356,1.4454-22.2127,9.3857-25.1128,22.5469-.5883,2.67-.3056,3.7866,2.8936,3.7068C954.7941,226.5124,963.626,226.6563,972.4543,226.6562Z" transform="translate(0.8996 -5.8098)"/><path class="cls-2" d="M1117.8226,200.9238c12.681-15.5453,27.565-24.8155,46.598-26.2241,12.8964-.9544,25.6662.0626,37.694,5.339,18.6017,8.16,28.1869,23.1477,29.6083,42.7837,1.8515,25.5785.3616,51.2605.7405,76.8943.0386,2.6056-1.0765,2.9426-3.2664,2.9308-13.6625-.0733-27.3273-.1444-40.9877.0435-3.1615.0435-3.3606-1.2522-3.35-3.7908.0869-19.9838.0153-39.9683.0751-59.9523a51.5235,51.5235,0,0,0-1.4778-12.35c-6.0515-24.9548-36.09-24.3714-49.4557-13.4777-10.6386,8.6713-14.6428,20.3465-14.8436,33.4887-.2644,17.3156-.1487,34.6391.01,51.9573.03,3.2082-.7373,4.1788-4.0612,4.1275-13.16-.203-26.3277-.2312-39.4861.0141-3.5657.0665-3.93-1.2756-3.9208-4.2646q.1413-45.7134.0195-91.4274c-.0255-8.1439-.4215-16.2913-.8509-24.4264-.1393-2.6367.1924-3.8468,3.312-3.8059q19.4912.2558,38.9876.0028c2.8889-.0351,3.7273.972,3.7934,3.6611C1117.1033,188.2281,1117.4836,194.0025,1117.8226,200.9238Z" transform="translate(0.8996 -5.8098)"/><path class="cls-2" d="M1321.4016,136.6265c0,12.9006.1729,25.1637-.0994,37.4168-.0882,3.9674,1.0438,5.0115,4.9458,4.9071,10.32-.2763,20.6551.025,30.9794-.1665,3.0545-.0567,3.9929.7447,3.9008,3.8546-.2269,7.6518-.1914,15.3176-.0132,22.972.0654,2.81-.7466,3.6737-3.6035,3.6316-10.825-.16-21.6542-.0266-32.4812-.0938-2.2709-.0141-3.753.1367-3.6862,3.11.3321,14.8073-.5222,29.6341.4743,44.4284.7672,11.3887,6.048,16.4068,17.3869,16.99a84.7176,84.7176,0,0,0,17.9195-.931c2.7869-.4509,4.149-.1233,4.02,3.3415-.29,7.8142-.1925,15.6487-.0289,23.47.0483,2.3111-.6577,3.2674-2.8992,3.5905-17.87,2.5755-35.7432,4.2007-53.5231-.4678-19.9438-5.2367-30.5479-18.7591-30.7646-39.379-.1732-16.4807-.1939-32.9672.0762-49.4453.0672-4.1046-1.2747-4.8886-4.9794-4.7517-7.3194.27-14.658-.0242-21.984.134-2.6485.0571-3.4165-.8067-3.3662-3.41.1512-7.8221.1827-15.6522-.0116-23.4724-.073-2.9414.9526-3.6224,3.7134-3.56,7.6585.172,15.3269-.066,22.9846.125,2.8158.07,3.6958-.7121,3.5968-3.5647-.2133-6.1527-.0776-12.318-.0564-18.4781.0049-1.4144-.3726-2.81,1.6894-3.55C1290.6853,147.9133,1305.7289,142.36,1321.4016,136.6265Z" transform="translate(0.8996 -5.8098)"/><path class="cls-2" d="M825.7346,205.0115a13.0264,13.0264,0,0,0,1.61-1.296c9.446-20.21,26.4909-26.6086,47.3864-26.231,7.396.1336,7.4-.06,7.4,7.3861,0,9.65-.1582,19.3044.0835,28.9485.0875,3.4871-.9782,4.126-4.2155,3.6438-10.2251-1.5231-20.2611-.6751-29.7393,3.7266-13.06,6.0653-19.6043,16.8227-20.1618,30.8067-.6093,15.2833-.3388,30.6064-.2157,45.91.0278,3.4524-.43,4.9108-4.4682,4.8167-12.9775-.3024-25.969-.2465-38.95-.0222-3.4243.0591-4.0781-1.0521-4.0655-4.1948q.1662-41.6782.03-83.3574-.0606-16.4484-.8089-32.89c-.1222-2.7455.462-3.4665,3.1131-3.447,13.15.0965,26.3037.1622,39.4517-.0393,3.2748-.05,3.5131,1.7218,3.53,3.966C825.7684,189.8159,825.7346,196.8941,825.7346,205.0115Z" transform="translate(0.8996 -5.8098)"/></svg>