<svg xmlns="http://www.w3.org/2000/svg" viewBox="0 0 400 68"><path fill="#B08072" d="M38.6 47.3L57.1 4.7h.2L38.5 48c-3 6.7-5.2 11.9-6.9 17.1h-.1l.1-.4c1.7-5.2 3.9-10.5 7-17.4zM57.1 4.7h.2L38.5 48c-3 6.7-5.2 11.9-6.9 17.1h-.1l-.1.2-2.6.7.8 1.9 3.8-1 .2-.6c1.8-5.3 4-10.7 7-17.5L60.7 2.6h-2.6l-1 2.1zM29.9 43.4L12.6 1.9l-1.3.1 17.9 42.9.7-1.5zM78.6 3.2l.1-1.3-1.3.1c-.2 0-.5.1-.7.1-.2 2.8-.2 9.3-.2 12.4v36.4c0 3.2.1 10.1.3 12.5l.1 1.2H67v.4l-.1 1.2h11.8l-.1-1.2c-.2-2.4-.3-9.3-.3-12.5V16.1c0-3.3.1-10.4.3-12.9zM135.8 8s-.1 0-.1-.1l-1.8 5.6s.1 0 .1.1l1.8-5.6zm-27.2 2.9C101.4 13.6 96.3 20 95 28.3c1.6-8 6.6-14.4 13.6-17.4zM127.1 64c3.2-1.1 6.3-2.7 9.1-4.9v-.3l-.2.2c-2.8 2.2-5.8 3.8-8.9 5zm12-16.6l-2 1.9-.1.1-.6 9.2-.2.1v.3c-2.9 2.2-5.9 3.8-9.1 4.9-3.7 1.4-7.6 2.2-11.8 2.2-6.6 0-12.8-2-17.8-5.3 5.4 4.3 12.2 6.9 19.7 6.9 7.6 0 14.5-2.4 20.7-7.2l.4-.3.8-12.8zM135.8 8l-1.8 5.6s-.1 0-.1-.1l-.7 2.1-1.2-1c-4.4-3.4-10.1-5.4-15.6-5.4-2.8 0-5.5.6-7.9 1.5-6.9 3.1-11.9 9.4-13.6 17.4-.2 1.4-.4 2.8-.4 4.3 0 9.3 3.4 16.4 9.3 20.3-4.6-4.1-7.4-10.6-7.4-18.7 0-13.4 9.2-23.2 21.8-23.2 5.5 0 11.2 2 15.6 5.4l1.2 1 3.2-10.1-.6-.5c-.4-.3-.9-.5-1.4-.8l-.5 2.2h.1zM172 19.6l-8.1 18.3h.2l8-18-.1-.3zM159.6 48l.4-.9h-.2l-.1.2c-2.2 5.2-4.6 11.1-6.7 16.3l-.2.5h.2c2.1-5.2 4.4-11 6.6-16.1zm37.3-1.2L175.5.8l-1.1.3L195 45.2c3.5 7.6 6.4 13.6 8.5 17.8l.8 1.5-10.7.8.7 1.7 11.9-.9-.8-1.5c-2.1-4.2-5-10.2-8.5-17.8zm-37 .2l-.4.9c-2.2 5.1-4.5 10.9-6.6 16.1h-.2l-.2.6h-9.3l-.7 1.6h11.9l.4-1.1c2.1-5.2 4.4-11.1 6.7-16.3l.1-.2h23.2l-.7-1.6h-24.2zm13.4-24.5l-1.2-2.7-8 18h2.4l6.8-15.3zm90.2 6.5l.3-.7-.1-.4-.2.5c-4.7 10-15.8 33.3-17 36.5l-.1.3.2-.1c2-4.6 12-25.7 16.9-36.1zm-41.3 22.1c-.5 3.6-1.2 10.1-1.3 12.5v1.1H212c0 .1 0 .2-.1.2l-.3 1.3h11.2v-1.1c.1-2.4.8-8.9 1.3-12.5l2.8-21c-.6-1.3-1.2-2.5-1.7-3.6l-3 23.1zM263.5 29c-4.9 10.4-14.9 31.5-16.9 36.1l-.2.1-.1.2-2.5.7c.2.4.3.8.4 1l.4.9 3.6-1 .2-.5c1.2-2.9 10.8-23.2 15.9-34.1l-.5-4-.3.6zm-18.8 18l.6-1.3-14.4-31.1c-1.8-3.8-4.3-9.2-5.9-13l-.4-.9-1.1.3c1.6 3.7 3.8 8.5 5.5 12l15.7 34zm33.1-3.1l-2.7-19.5-.7-5.1c-.8-6-1.7-13.5-2.1-17.3l-.1-1h-1.8c.4 3.9 1.3 10.9 2.1 16.7l.7 5.1 2.7 19.5c.8 5.8 2.6 16.6 3.6 21l.3 1.2-9.6.7c0 .2 0 .5.1.6l.1 1.1 11.3-.9-.3-1.2c-.9-4.3-2.7-15.1-3.6-20.9zm37.4-4.2c7.7-2.3 12.4-7.3 13.6-14.6-1.5 7-6.3 12.1-13.6 14.6zm8.9-32.9c3.6 3.6 5.3 8.2 5.3 12.8 0 1.9-.2 3.7-.6 5.4-1.2 7.3-5.9 12.4-13.6 14.6-3.6 1.3-7.7 2-12.4 2-1.2 0-2.5 0-3.7-.1v9.3c0 3.2.1 10.1.3 12.5l.1 1.2h-9.8v.4l-.1 1.2h11.8l-.1-1.2c-.2-2.4-.3-9.3-.3-12.5v-9.3c1.3.1 2.6.1 3.7.1 16.7 0 26.6-8.2 26.6-22 .1-5.3-2.3-10.7-7.2-14.4zm-25 3.5v22.1c.6.1 1.3.1 1.9.1V11.8c2.1-.1 3.4-.2 5.5-.2 4.1 0 7.2.7 9.5 2.1-2.2-2.5-6-3.7-11.4-3.7-2 .1-3.4.1-5.5.3zm79.9 53c9.6-3.9 16.4-12.7 18.2-24.1-2.1 11.2-8.8 19.9-18.2 24.1zm-33.2-35c1.6-8.1 6.4-14.6 13-17.8-6.8 2.8-11.7 9.4-13 17.8zm0 0c-.2 1.5-.4 3-.4 4.6 0 9.3 3.5 16.5 9.3 20.5-4.6-4.2-7.4-10.8-7.4-18.9 0-13.7 9-23.9 20.9-23.9 4.4 0 8.2 1.3 11.4 3.4-3.5-3.1-8-5-13.3-5-2.7 0-5.3.6-7.6 1.6-6.5 3-11.3 9.5-12.9 17.7zm40.6-22.1c7.1 5.7 11.6 14.6 11.6 25 0 2.8-.3 5.5-.8 8-1.9 11.4-8.6 20.1-18.2 24.1-4.1 1.9-8.6 2.9-13.6 2.9-6.6 0-12.5-1.9-17.4-5.2 5.3 4.2 11.9 6.8 19.4 6.8 18.9 0 32.7-14.7 32.7-35-.1-11.4-5.4-21-13.7-26.6z"/><path fill="#222" d="M9.4 1l19.3 46.3 11.8-29C42.7 13 45 6.9 47 1.6h9.6L37.1 46.4C33.8 53.9 31.7 58.9 30 64l-2.3.6L8.1 19.5C5.8 13.9 2.5 6.8 0 1.7L9.4 1zm56.2 62c.4-4.2.6-15.4.6-21.1V22.6c0-5.6-.2-16.9-.6-21.1 3.4 0 6.6-.1 9.4-.4-.2 2.5-.3 9.5-.3 13v36.4c0 3.3.1 10.2.3 12.6h-9.4zm69.2-5.4c-5.9 4.5-12.6 7-20 7-17.9 0-30.6-14.3-30.6-30.7C84.2 15 97.8 0 116.5 0c6.6 0 13.6 2.2 18.2 5.5l-2.4 7.9C127.9 10 122 7.8 116 7.8c-13.4 0-23 10.5-23 24.2 0 16 9.9 24.9 22.3 24.9 8.2 0 14.3-3.3 20.1-8.8l-.6 9.5zm27.8-39.4c3.4-7.4 5.7-12.5 7.6-17.6l2.3-.6 21 45.2c2.5 5.5 5.9 12.6 8.6 17.9l-9.4.7-8.2-18.3h-25.9l-.3.9c-2.3 5.3-4.7 11.5-6.8 16.7H142l20.6-44.9zm-.9 20.2h19.6l-9.8-22.1-9.8 22.1zm52.4 3.5l2.7-19.4c.8-5.7 2.1-17.3 2.5-21.9l2.3-.6c1.7 3.9 4.3 9.5 6 13l16.7 36.1L260.9 13c1.6-3.4 4.6-10.1 5.9-13h2.1c.5 5 2.1 16.9 2.8 22.4l2.7 19.5c.8 5.7 2.6 16.5 3.6 21.1l-9 .7c-.2-2.5-.9-9.8-1.5-13.3L264 23.5c-3.1 6.5-17.4 36.7-18.9 40.4l-2.2.6c-1.5-3.6-15.1-33.2-18.6-40.9l-3.6 26.8c-.4 3.4-1.2 10.2-1.3 12.6h-8.7c.9-4.6 2.6-15.3 3.4-21.1zm83.4 8.5c0 3.3.1 10.2.3 12.6h-9.4c.4-4.2.6-15.4.6-21.1V22.6c0-5.6-.2-16.9-.6-21.1 3.1 0 11-.4 17.1-.4 14.9 0 22.4 8.5 22.4 18.1 0 11.5-7.4 20.9-25.5 20.9-1.5 0-3.2-.1-4.8-.2v10.5zm6.6-41.9c-2.4 0-4 .1-6.6.3v24.1c1.6.2 3.3.3 4.9.3 10.4 0 16.6-4.6 16.6-12.6.1-7.7-4.6-12.1-14.9-12.1zM335 33.9C335 15 347.9 0 366.6 0c17.8 0 29.9 14.2 29.9 30.7 0 18.9-12.9 33.9-31.6 33.9-17.8 0-29.9-14.2-29.9-30.7zm52.7-1.6c0-15.5-9.4-25-21.8-25-13.1 0-22 11.6-22 25 0 15.5 9.4 25 21.8 25 13 0 22-11.5 22-25z"/></svg>