<svg id="Layer_1" data-name="Layer 1" xmlns="http://www.w3.org/2000/svg" viewBox="0 0 2118.0935 389.0393"><defs><style>.cls-1,.cls-2{fill:#13110c;}.cls-2{fill-rule:evenodd;}.cls-3{fill:#008bd2;}.cls-4{fill:#fbba00;}.cls-5{fill:#e30613;}.cls-6{fill:#009640;}</style></defs><path class="cls-1" d="M640.7661,264.708c-5.982,0-10.6192,3.5468-12.5967,9.5488L581.6889,385.3076,536.0371,274.9521c-2.3775-6.7852-6.917-10.2441-13.4834-10.2441a13.6962,13.6962,0,0,0-13.6587,13.3769,16.6961,16.6961,0,0,0,1.0913,5.2617,12.6268,12.6268,0,0,1,.4287,1.4317,1.4357,1.4357,0,0,0,.1558.3008l55.6474,125.7246c4.0528,9.0117,10.3267,10.9,14.8667,10.9h1.1494c6.5079,0,11.2623-3.5547,14.5748-10.93l55.998-126.3321a17.6562,17.6562,0,0,0,1.3252-6.3574A13.3846,13.3846,0,0,0,640.7661,264.708Z" transform="translate(-160.7903 -172.5339)"/><path class="cls-1" d="M688.6977,207.8818c-8.9238,0-15.354,6.0019-15.354,14.2344v3.75c0,8.1054,6.586,14.1953,15.354,14.1953,8.9434,0,15.6655-6.09,15.6655-14.1953v-3.75C704.3632,213.8837,697.7968,207.8818,688.6977,207.8818Z" transform="translate(-160.7903 -172.5339)"/><path class="cls-1" d="M688.6977,264.708a13.5262,13.5262,0,0,0-13.3662,13.65v128.85A13.5076,13.5076,0,0,0,688.98,420.8564c7.628,0,13.376-5.8828,13.376-13.6484v-128.85A13.52,13.52,0,0,0,688.6977,264.708Z" transform="translate(-160.7903 -172.5339)"/><path class="cls-1" d="M791.8681,329.9521l-.5844-.1758c-18.4327-5.6055-35.8516-10.9062-35.8516-23V306.19c0-11.3985,10.5605-19.0547,26.2456-19.0547,11.7,0,24.6675,3.8633,37.6245,11.2324a13.77,13.77,0,0,0,6.001,1.3926,12.0861,12.0861,0,0,0,12.1973-11.9336,13.2147,13.2147,0,0,0-6.7417-11.35c-15.2173-8.2031-32.89-12.9141-48.4966-12.9141-31.1753,0-52.9976,18.4766-52.9976,44.9375v.5645c0,29.81,29.4019,38.17,50.8736,44.248,19.9619,5.6035,35.228,10.8887,35.228,23.752v.5859c0,12.6016-11.34,21.0625-28.2329,21.0625-15.3345,0-30.6685-5.164-45.5352-15.248a11.2869,11.2869,0,0,0-6.9951-2.26,12.0814,12.0814,0,0,0-12.1973,11.9356,12.4963,12.4963,0,0,0,5.0274,10.0429C744.1894,415.1435,766.09,422.3,785.9448,422.3c33.0845,0,55.2773-18.8965,55.2773-46.959v-.5645C841.2221,344.7607,811.4887,335.8662,791.8681,329.9521Z" transform="translate(-160.7903 -172.5339)"/><path class="cls-1" d="M878.3691,264.708a13.5183,13.5183,0,0,0-13.3564,13.65v128.85a13.5,13.5,0,0,0,13.6391,13.6484,13.2388,13.2388,0,0,0,13.3858-13.6484v-128.85A13.522,13.522,0,0,0,878.3691,264.708Z" transform="translate(-160.7903 -172.5339)"/><path class="cls-1" d="M878.3691,207.8818c-8.9141,0-15.3633,6.0019-15.3633,14.2344v3.75c0,8.1054,6.605,14.1953,15.3633,14.1953,8.9336,0,15.6558-6.09,15.6558-14.1953v-3.75C894.0249,213.8837,887.4394,207.8818,878.3691,207.8818Z" transform="translate(-160.7903 -172.5339)"/><path class="cls-1" d="M994.8862,394.997a12.5719,12.5719,0,0,0-3.0493.5508,38.7525,38.7525,0,0,1-10.4434,1.4551c-15.3735,0-22.5049-7.0586-22.5049-22.2266V290.5849h35.9976a12.3848,12.3848,0,0,0,12.48-12.2266,12.51,12.51,0,0,0-12.48-12.1933H958.8886V233.6025a13.8063,13.8063,0,0,0-13.62-13.65,13.3748,13.3748,0,0,0-13.4053,13.65V266.165h-9.6054a12.3589,12.3589,0,0,0-12.1973,12.1933,12.5279,12.5279,0,0,0,12.1973,12.2266h9.6054v87.0664c0,28.582,15.7632,44.3457,44.3467,44.3457a57.8044,57.8044,0,0,0,22.7-4.1894,11.6734,11.6734,0,0,0,7.8911-10.8907A11.9373,11.9373,0,0,0,994.8862,394.997Z" transform="translate(-160.7903 -172.5339)"/><path class="cls-2" d="M1486.7422,262.6142h-20.4v.19c-15.2627.9755-28.5537,7.2607-39.4258,18.6367-11.6621,12.2031-17.5073,27.1914-17.5073,44.4062v8.8062l-20.5235,20.5356a77.3638,77.3638,0,1,0-75.8467,61.4317,75.7812,75.7812,0,0,0,24.2735-3.9336c.02.02.0327.0449.0527.0644l.2647-.167a79.78,79.78,0,0,0,13.9882-6.3506,76.7875,76.7875,0,0,0,19.7349-16.1191l38.0562-38.05v55.6025a9.2313,9.2313,0,0,0,8.9624,8.9532h8.1836a9.2216,9.2216,0,0,0,8.9824-8.9532V326.1826c0-10.8243,3.4687-19.5235,10.1914-26.6153a32.0287,32.0287,0,0,1,23.9707-10.7949h17.043a9.1169,9.1169,0,0,0,8.8847-8.875v-8.3887A9.1466,9.1466,0,0,0,1486.7422,262.6142Zm-199.17,120.94a52.0548,52.0548,0,0,1-18.9775-18.9473,50.2213,50.2213,0,0,1,0-51.002,51.8068,51.8068,0,0,1,18.9775-18.9375,50.16,50.16,0,0,1,50.9717,0,51.9,51.9,0,0,1,18.958,18.9375,50.1,50.1,0,0,1,0,51.002,52.1489,52.1489,0,0,1-18.958,18.9473,50.0394,50.0394,0,0,1-50.9717,0Z" transform="translate(-160.7903 -172.5339)"/><path class="cls-2" d="M1186.1948,215.5888a80.3261,80.3261,0,0,0-37.4883-9.4316c-20.1763,0-38.5791,7.2383-54.6929,21.5312-16.23,14.35-24.4531,34.5742-24.4531,60.041V407.2236a9.4354,9.4354,0,0,0,9.45,9.3965h8.3589a9.369,9.369,0,0,0,9.3721-9.3965V291.5927c0-20.541,5.2216-34.98,15.9184-44.1172,11.1065-9.5136,22.9141-14.1269,36.0464-14.1269,14.1265,0,26.1289,4.9629,36.8648,15.2558,10.6479,9.8594,15.8115,21.9786,15.8115,37.0313,0,15.9336-5.251,28.35-15.9478,37.8965-11.1162,9.7031-23.1186,14.3984-36.7285,14.3984a49.6872,49.6872,0,0,1-27.2588-7.6914,9.42,9.42,0,0,0-14.4184,7.8477l-.1167,9.7129a9.4,9.4,0,0,0,4.9878,8.4277,78.3277,78.3277,0,0,0,37.1958,8.8945c12.3339,0,24.8037-3.1562,37.0205-9.3808a79.0277,79.0277,0,0,0,30.5127-27.7266c7.93-12.4219,11.9052-26.666,11.9052-42.3789,0-15.7344-3.9946-29.8848-11.9052-42.01A78.07,78.07,0,0,0,1186.1948,215.5888Z" transform="translate(-160.7903 -172.5339)"/><path class="cls-2" d="M2274.2461,382.9794a9.1,9.1,0,0,0-9.1377.2735,47.4227,47.4227,0,0,1-25.9727,7.375c-13.0058,0-24.4531-4.5215-35.0039-13.7266a44.317,44.317,0,0,1-6.3623-6.9472c-.9932-1.4668-1.9482-2.961-2.8252-4.5782a62.8324,62.8324,0,0,1-6.1182-24.2968c0-.1661-.039-.3125-.039-.4786v-.0683c-.0967-1.51-.1358-3.0586-.1358-4.6231V236.1357a9.2249,9.2249,0,0,0-8.9629-8.9238h-7.9111a9.2352,9.2352,0,0,0-8.9824,8.9609V339.4033c0,.2226.02.4668.02.73,0,.1641-.02.3106-.02.4668,0,.7207.0684,1.4219.0684,2.1094.0195.4863.0195.9785.039,1.4277.0586,1.2657.1074,2.4981.2246,3.7364.0391.2968.0781.5742.1162.8613.0977,1.1113.1953,2.1816.3311,3.2441a79.7684,79.7684,0,0,0,3.8467,16.4473l-24.4414,24.44V340.8779c0-24.916-8.086-44.7012-23.9268-58.76-15.7832-13.9844-33.7959-21.0723-53.5527-21.0723a78.4861,78.4861,0,0,0-36.5821,9.1875,76.2861,76.2861,0,0,0-29.831,27.4239c-7.7744,11.9238-11.7295,25.7773-11.7295,41.18,0,15.373,3.9258,29.3144,11.7295,41.5312a77.1048,77.1048,0,0,0,29.831,27.0645,79.3,79.3,0,0,0,36.2207,9.1875,76.7776,76.7776,0,0,0,36.1055-8.5743,9.2016,9.2016,0,0,0,4.9492-8.1445v-9.625a9.1962,9.1962,0,0,0-14.1269-7.793,48.3834,48.3834,0,0,1-26.5664,7.545c-13.2989,0-25.0284-4.6328-35.8418-14.043-10.541-9.3965-15.666-21.5547-15.666-37.1484,0-14.75,5.0664-26.6055,15.5878-36.3575,10.3653-9.9765,22.1153-14.8476,35.92-14.8476,12.85,0,24.4336,4.5508,35.3154,13.8242,10.4629,8.9629,15.5283,23.08,15.5283,43.1777v62.2149a9.1928,9.1928,0,0,0,9.2168,9.1953h8.1836a9.2516,9.2516,0,0,0,7.8828-4.4326l.0469-.0186,2.8838-2.914,28.3691-28.3545a66.68,66.68,0,0,0,13.4053,16.2841c15.2861,13.1485,32.5391,20.0118,51.42,20.0118,0,0,.1563-.0157.2344-.0157.2627,0,.5449.0157.8184.0157a74.999,74.999,0,0,0,35.2666-8.3887,8.9592,8.9592,0,0,0,4.8125-7.9492V390.88A9.04,9.04,0,0,0,2274.2461,382.9794Z" transform="translate(-160.7903 -172.5339)"/><path class="cls-2" d="M1954.2529,419.03a103.9585,103.9585,0,0,0-25.8945-17.9394c2.3769,1.1484,4.6572,2.3672,6.8974,3.6777a77.0961,77.0961,0,0,0,26.1875-104.2773,78.9326,78.9326,0,0,0-5.33-8.0679l9.1875-9.2036,11.749-11.74a4.431,4.431,0,0,0,0-6.0293l-2.6885-2.66a4.3508,4.3508,0,0,0-6.0215,0l-11.7578,11.7539-2.8945,2.9023-5.4424,5.438c-15.0274-13.2778-35.502-21.3032-55.1143-21.3032a77.92,77.92,0,0,0-77.6855,77.666c0,1.376.0381,2.7315.1,4.0752L1797.4218,361.45a68.4386,68.4386,0,0,0,.6827-9.7339v-80.09a9.2139,9.2139,0,0,0-8.9629-8.9726h-8.2032a9.2059,9.2059,0,0,0-8.9531,8.9726v80.09a37.7881,37.7881,0,0,1-11.1455,27.5761c-7.1211,7.4825-18.5195,11.2383-29.3144,11.2383-10.4922,0-21.8614-3.6347-29.2852-11.2031-7.2285-7.6152-10.8125-16.6309-10.8125-27.6113v-80.09a9.2146,9.2146,0,0,0-8.9629-8.9726h-8.2031a9.2,9.2,0,0,0-8.9629,8.9726v80.09q0,1.6538.0762,3.2812l-25.4063,26.2188c-7.0146,7.3554-18.1992,9.4414-28.8379,9.49a47.5225,47.5225,0,0,1-22.9521-6.4609,49.2384,49.2384,0,0,1-17.4971-18.8692c-4.1211-8.1894-6.3125-17.9355-6.3125-29.4668V288.7724h73.7676a9.114,9.114,0,0,0,8.8652-8.875v-8.3887a9.1438,9.1438,0,0,0-8.8652-8.8945h-73.7676V234.4013a9.2287,9.2287,0,0,0-8.9824-8.9238h-7.9111a9.2169,9.2169,0,0,0-8.9727,8.9824v28.1543h-16.5518a9.1564,9.1564,0,0,0-8.9043,8.9238v8.3594a9.1158,9.1158,0,0,0,8.875,8.875h16.5811v50.6309c0,23.5664,7.6084,43.1,23.5479,57.205,14.5742,12.5333,30.96,19.377,48.8466,19.9532v.0586c.2725,0,.5655-.0157.8477-.0157.5752,0,1.14.0157,1.7246.0157a8.1379,8.1379,0,0,0,1.7725-.1856c15.8808-.9941,31.7011-7.2773,42.9052-18.7012l4.5889-4.68,7.7061-7.7168,2.6669-2.6573a69.2532,69.2532,0,0,0,10.7188,14.48c12.334,12.8457,30.1621,19.461,47.6973,19.461,17.4785,0,35.3066-6.4395,47.6308-19.041q2.1974-2.2457,4.1377-4.6016l34.4365-34.4258c7.2393,28.9111,31.7832,48.415,73.3536,58.1406,17.9843,3.9258,32.91,11.17,44.1914,21.4766,10.7754,9.9961,15.9863,22.291,15.9863,37.5859a59.1089,59.1089,0,0,1-58.833,58.8438,58.1157,58.1157,0,0,1-29.2656-7.9219,59.2021,59.2021,0,0,1-29.587-50.9219,60.1555,60.1555,0,0,1,6.9268-28.2968,56.4094,56.4094,0,0,1,11.9639-14.8711,9.3832,9.3832,0,0,0-1.9883-15.3887l-7.2676-3.7149a9.1305,9.1305,0,0,0-10.3652,1.1973c-18.1992,16.7852-26.2461,34.5078-26.2461,61.0742,0,23.5567,8.4765,43.9473,25.1933,60.65,16.6983,16.7129,37.0987,25.168,60.6358,25.168s43.957-8.4551,60.6553-25.168c16.6982-16.7031,25.1543-37.0937,25.1543-60.65C1978.2383,453.2216,1970.1914,434.1357,1954.2529,419.03Zm1.87-126.4883c-.0078-.0332-.0215-.0654-.0293-.0986l.0117-.0117A.2779.2779,0,0,0,1956.123,292.5419Zm-46.1,95.4161a7.7287,7.7287,0,0,1-.8379.2734c-.6816.209-1.3545.4082-2.0459.584a3.6214,3.6214,0,0,0-.4287.1269c-.7207.1739-1.4219.34-2.124.4864-.1944.0254-.3506.0781-.5654.0976-.6622.127-1.2852.2442-1.9473.3711-.6436.0957-1.3067.1543-1.9492.2227-.1953.039-.4092.0683-.6035.0976-.9942.0977-1.9883.1953-2.9815.2344.624.1309,1.2275.2539,1.8311.3887-.6231-.1348-1.2657-.2578-1.9473-.3887-.78.0293-1.54.0625-2.3779.0625a51.38,51.38,0,0,1-47.6983-32.3281,44.3207,44.3207,0,0,1-3.9258-18.94,48.1456,48.1456,0,0,1,4.8223-21.2871,51.37,51.37,0,0,1,89.2-7.8418,1.3476,1.3476,0,0,0,.292.2774c.6816,1.0371,1.3838,2.08,2.0459,3.1992a50.1674,50.1674,0,0,1,0,50.9726,53.9035,53.9035,0,0,1-4.832,6.9219c-.1553.1992-.3116.3848-.4678.5781-.39.44-.74.8672-1.13,1.2774-.4873.584-1.0127,1.1191-1.54,1.6855a2.4844,2.4844,0,0,0-.3106.3008,52.0214,52.0214,0,0,1-18.8808,12.1113C1911.0752,387.6123,1910.5488,387.7822,1910.0234,387.958Z" transform="translate(-160.7903 -172.5339)"/><path class="cls-3" d="M446.2133,402.8291c5.5337,2.4609,4.9688,8.2285,9.7422,11.0917,5.3194,9.07,11.3789,19.3868,6.5664,30.7129,3.41,15.69-10.7358,21.5743-17.0293,33.6582-3.8774,1.5254-6.2739,6.9122-11.603,4.6133-2.9907,2.4512-7.4722,2.8262-10.8432,2.1641-1.4322,2.5371-4.6177.1836-6.3907,1.6933-23.1865,1.9688-37.313-17.9394-52.7446-32.2753-2.2017-2.7188-5.4067-2.8926-8.0664-5.9278-3.8384-.1308-6.5273-4.7207-10.6582-2.3144-3.1177,1.7441-6.03,3.916-9.6836,4.0625-.8184,2.6269-4.4038.498-3.9165,3.6777-7.1411,1.4277-4.189,12.5-13.0352,9.7188-3.3706,1.1679-4.2475-2.9239-6.8779-3.4.5845-3.4688-.7793-5.3184.9058-8.2227,5.2319-2.5723,10.3559-6.7852,14.9546-9.625.8379-2.5234,4.8711-2.5234,7.1508-4.1836.6621-1.0488,1.7925-1.01,2.5523-1.8867,7.3848.9746,15.9966-.9629,22.1245,2.7187,7.3164,2.5274,14.6426,9.9668,20.41,14.6426,5.3,7.3555,12.47,16.7559,20.8872,18.5293,1.9292,5.2227,9.6645,2.8848,14.477,4.3164,1.0718-.2051,2.416-1.5937,3.1567-.5449,2.9615-.9746,7.2481,0,8.9629-2.8945,3.7212.2578,6.1665-2.9805,9.6055-3.4688.877-.6621.9937-2.6191,2.5918-1.8008,3.6631-3.82,9.9756-7.56,10.0342-13.6113,3.1177-2.6094-.3115-5.873.8965-9.459,3.1172-10.8183-1.6172-20.1855-6.5664-28.74-4.2085-2.2734-8.729-6.1074-13.62-8.1055-9.7422-.623-21.686-1.2519-26.226,6.0606-.3506,5.582-8.1055,4.3261-5.4458,11.1933-1.4322,7.8516,5.8354,10.3946,9.5962,15.5684,6.06-1.8711,8.3974,4.375,14.5351,2.4551,3.39-1.6133,5.2026-5.1836,7.17-8.0137-.916-2.3867-2.2993-4.65-1.6172-7.6816,3.166-.1309,1.4419-4.1016,4.5982-4.2579,3.1953-.3007,1.7539,3.3125,3.6631,4.57,2.9033,3.1855,2.5527,9.498,1.3833,13.98-2.0459.7832-1.11,2.8633-1.4224,4.4024-3.7407,4.9882-8.9819,8.8945-14.9053,9.6015-11.7495-1.2129-21.0044-5.2754-27.96-15.5625-3.2149-4.16-6.9756-9.9961-4.52-16.0371.5849.2344.8769-.2285,1.2861-.5156-2.5425-2.6016,2.4551-4.17.8379-6.332,3.1177-7.959,9.1186-15.7578,17.7891-18.3946,5.5727,2.1641,9.84-3.205,15.8413-2.0019,7.2089,1.832,14.4961,3.5019,21.413,5.8262" transform="translate(-160.7903 -172.5339)"/><path class="cls-3" d="M304.7173,465.37c6.8779,6.2636,17.7114,6.8183,26.5766,4.4668,7.6773-2.1973,11.6323-9.2012,18.4326-13.3028,2.2408,0,3.4488,2.4395,5.69,2.5332-6.7417,7.8418-11.5542,16.4922-21.56,19.59-6.9853,1.2226-15.1494,3.2832-22.1831.6836-5.9429-.3321-8.8657-3.8692-13.9512-6.3242v-1.2559A62.7785,62.7785,0,0,1,287.59,459.69c-2.5522-1.8809-2.4746-3.791-5.0073-5.0762-1.0132-4.2285-5.709-7.4336-8.9141-10.1328-3.7705-3.8965-10.57-3.0684-16.5327-3.1953-10.8726-.35-14.8862,13.27-24.0244,15.8613-1.1494,2.3477-4.5982,2.1719-4.4424,5.1055,10.1318,4.32,13.8145-7.6973,21.55-9.5781,9.3916-1.5489,17.0879,3.7324,21.5107,11.4375,2.085,3.5273,7.5894,6.6445,6.3716,12.1054a6.81,6.81,0,0,1-5.1049,1.1778,114.683,114.683,0,0,1-16.4546-14.5391c-4.0625-.3613-6.7515,2.7422-10.7456,2.5137-4.7935,2.5332-6.7027,7.91-12.6846,7.6465-5.4946,0-10.0733-2.3086-15.2466-3.18-1.2959-2.3243-4.1792-.8145-6.2837-1.2911-3.8774-5.3593-5.894-12.6757-8.8848-19.0371-1.91-1.5976-1.1694-4.3437-3.78-5.67-2.8936-1.5683-6.5469,1.6856-6.9751-3.1758-10.19-.5058-16.3672,7.2481-20.274,15.2071-.1557,5.2715.5557,11.34,5.69,13.289,2.66,3.4688,8.5049,1.7051,9.48,6.4,2.9614-1.1738,6.8-.0879,8.9043-3.2344a12.371,12.371,0,0,0-3.7993-11.3593c-5.105-3.1563-7.8916,3.0976-12.6455,2.5234a2.0433,2.0433,0,0,1-3.2149.6231c-2.8642-.7793.4185-2.9707-.604-5.045,4.15-7.4043,13.4439-6.82,20.8872-5.748,7.0923,2.0937,6.771,11.0762,11.3985,15.2265,1.7339,7.7051-5.4751,11.2715-9.46,15.8594-7.2578,6.42-14.8276-1.3672-22.8257-.6816-4.1894-.8184-7.6968-3.41-10.7944-6.9121-4.6572-7.877-4.93-19.8789-1.91-28.4805,1.6074-.166,1.9678-1.91,1.91-3.2051,8.1831-8.0957,19.874-14.9843,32.9868-12.0527,12.9282,4.0332,13.2886,18.832,20.8779,27.8926.6914.707,1.354,1.6758,2.523,1.2871,1.1694-.3809-1.3833-3.4785,1.2861-2.5625,2.0459-4.4629,3.8579-9.6836,8.2227-12.65.1167-2.5391,2.9809-3.7949,4.4424-5.7539,2.9614-.1074,4.0527-5.4844,8.2026-4.4024,2.8642-5.7578,10.2685-2.8886,14.5747-6.3027,24.0825-3.4062,33.3769,20.8086,46.9185,34.7891" transform="translate(-160.7903 -172.5339)"/><path class="cls-4" d="M329.229,192.372c1.0132,7.3848,5.8647,14.0059,3.1172,22.1543-1.8121,1.1445-1.6563,3.5078-2.5523,4.4629-1.6172,3.3594-1.4419,7.5391-5.0078,10.1016-1.6948,4.57-7.1313,7.0644-9.5669,10.2109-9.43,7.6074-22.31,10.0723-34.8184,6.916-5.6118-.1758-6.9365-1.3047-10.6-4.0625a83.3223,83.3223,0,0,0-6.664-7.1015c-1.8023-1.6172-1.5391-5.4258-2.377-9.09-1.6074-4.3262,0-7.6,0-11.4375a30.7211,30.7211,0,0,1-5.67-12.664c2.2407-7.2383,9.4111-9.918,14.9253-14.7071,10.4238-9.0644,25.4272-19.7226,40.8393-11.91,7.9693,3.83,12.84,10.0976,18.3741,17.1269" transform="translate(-160.7903 -172.5339)"/><path class="cls-5" d="M372.4062,186.2158c3.7217,4.0136,7.3457,8.582,10.853,13.2207,3.585.75,5.1631-3.166,8.2417-3.7617,2.7085-2.6192,5.9039-6.668,10.1128-6.9649,4.1109.75,5.4654,3.8965,8.9239,6.3125.0678,2.8652,2.65,5.32,4.3642,6.9844,7.0147-1.5195,13.8535-5.2012,21.17-5.8242,4.3355,5.6992-.1264,13.3554-1.4907,19.123-2.0068,7.043-5.9521,11.7207-8.8652,18.3555.1362,3.623-2.8252,5.9668-4.4619,8.8555-.9351,4.7832-2.8252,8.6308-5.7285,11.4082.5649,3.5253-3.5655,3.6132-3.1368,6.9023-8.0278,7.3945-8.8266,17.58-17.1074,24.8086-3.2539,5.582-8.437,9.293-12.665,13.9316-3.5947,5.8731-10.1514,6.0391-14.5357,12.6836-2.8833.3321-4.4423,3.9942-7.0434,5.0176-4.7251,6.2051,1.0034,12.752,0,19.68,4.5888,6.9746-.3213,14.7969-.6333,22.1816-1.4029,3.3711-3.6045,4.7891-5.0073,8.2422.3505,8.32,11.34,14.0391,15.5678,15.0664,1.6953.1992,2.1143.5938,2.7671,1.7149.0391,1.35-5.2417,3.1914-7.7353,7.2675.935,3.8047,7.4038,5.0215,8.32,7.4571-2.1821,2.9824-8.2808,3.4883-9.3526,6.1289,2.2017,2.9316,9.4112,3.1758,11.9048,5.5918.4092,3.3125-4.1113,2.3633-5.65,4.2812-13.0742,2.52-27.22,2.52-39.29-1.9179-9.8393-1.32-19.0068,2.1679-28.5542,3.18-4.1113-.6719-4.3452,2.1386-8.0473.1074-.74.0351-1.3638-.5508-2.6695-.1074-1.8315,2.4023-7.15-5.1-6.9751-8.836,2.0264-2.8242-1.6758-8.4707,3.1563-9.5527,2.7959-4.2813,5.5337-10.1406,2.5136-15.1621-8.018-7.1621-5.3974-18.74-10.0932-27.2305.7407-7.2871-1.0713-15.08,3.147-22.1934-.4971-1.2363.8476-2.2636,1.2763-2.5918,4.189-11.164,15.12-20.3554,12.645-33.541-1.5976-3.2109.0782-3.9941-.8569-6.207-.7407-3.76-2.5527-5.25-.37-9.6445,3.166-14.4571,19.8154-16.625,30.3955-24.7051,12.0806-2.6406,18.0039-16.2227,24.1025-25.3789a5.965,5.965,0,0,1,1.2466-4.3653c6.4883-5.3574,5.3-16.0253,10.7559-22.8847-.585-2.3906.896-3.9356,1.9092-5.67a47.0544,47.0544,0,0,1,3.6826-13.8829c1.393-.35,2.4746.43,3.2148,1.92" transform="translate(-160.7903 -172.5339)"/><path class="cls-6" d="M200.5337,207.3271c9.5669,10.2285,14.3212,27.1621,26.0507,34.8281,3.9361,6.3711,11.1646,10.2832,18.4131,11.3594,3.897,5.0469,11.8462,2.9629,16.4351,7.59,5.68-1.666,6.2251,5.0372,11.4082,4.461,2.3574,3.3808,5.6016,5.8652,7.0141,10.1816,2.0264,12.7422-8.4365,20.2832-8.2612,32.2754-6.4492,13.1719,1.3247,26.6738.5845,40.582a15.4456,15.4456,0,0,1-1.8706,9.4844c-.1558,11.7969-8.0176,19.7363-15.2173,27.832-2.6108,8.1934,3.1758,19.66-4.4033,26.0118-3.4488.0586-6.0015,2.5527-9.5279,2.5527-5.9819,2.0762-13.9023,1.3262-20.2641.6152-2.1626-2.9668-7.0825.711-8.8457-3.1679-3.0982-2.1231-8.3-1.168-11.4668-1.2852-7.96-.7988-15.0322.2539-23.7808-.7695a15.6283,15.6283,0,0,1-5.6894.17c-2.7281-1.582.76-4.875,2.7085-6.1133,3.2734-1.7832,3.04-1.6269,4.3642-2.9121.8379-3.5176-6.8974-2.8262-5.9233-6.42,2.4355-1.75,8.6611-3.5567,7.833-7.2871-1.4126-4.502-8.0278-5.32-8.7485-8.9727,5.8647-4.9687,15.1782-6.7031,23.5566-6.9961.9839-2.58,4.5786-1.2363,4.4424-3.73.8769-2.6153,3.9946-5.1739,1.89-8.2618-1.0132-1.48.4287-2.9609-1.2861-4.49a20.4125,20.4125,0,0,0,.6333-7.58c2.4258-2.7773-1.0034-5.67,1.939-8.1933-.6236-5.8555,3.4677-11.1016,3.78-15.2266-.4482-2.67,1.2471-1.6816,2.6206-5.3047,1.354-3.7265,3.1275-4.209,3.712-6.4551.5844-2.2988-.4092-13.3808-6.9463-16.7714-6.9854-2.6934-9.8784-9.9747-15.188-13.9356-5.3389-7.58-7.58-18.6269-15.2178-24.6523-.74-6.5918-3.7114-7.1856-4.7734-14.2774-2.1822-3.0488-3.7119-8.8457-4.4229-11.1269,4.1109-3.6817,12.0606,4.3359,14.5156-.1153-.1167-2.6992-1.247-9.8105,1.53-10.7656,4.6665.1856,10.1416,2.6973,13.2979,1.08,3.7021-2.99-.4673-14.2324,5.105-14.2129" transform="translate(-160.7903 -172.5339)"/></svg>