<?xml version="1.0" encoding="utf-8"?>
<!-- Generator: Adobe Illustrator 22.1.0, SVG Export Plug-In . SVG Version: 6.00 Build 0)  -->
<svg version="1.1" id="Layer_1" xmlns="http://www.w3.org/2000/svg" xmlns:xlink="http://www.w3.org/1999/xlink" x="0px" y="0px"
	 width="326.7px" height="100.9px" viewBox="0 0 326.7 100.9" style="enable-background:new 0 0 326.7 100.9;" xml:space="preserve"
	>
<style type="text/css">
	.st0{fill:#1A1A1A;}
</style>
<title>logo-secret-escapes</title>
<g>
	<path class="st0" d="M40.6,41.3L41.4,61c0,2.6-0.2,4.3-0.7,4.9c-0.5,0.7-1.6,1.2-3.3,1.5l-1.7,0.3v2.1h22v-2.1l-2.1-0.4
		c-1.3-0.3-2.1-0.8-2.4-1.6c-0.3-0.8-0.6-2.5-0.7-5.1l-2.1-36.7c-0.1,0-0.2,0-0.4,0c-0.2,0-0.3,0-0.4,0c-2.2,0-3.7,0.2-4.7,0.5
		L29.6,54.2L13.1,23.8c-0.1,0-0.3,0-0.6,0c-0.3,0-0.4,0-0.5,0c-1.4,0-2.9,0.2-4.5,0.5L5.4,55.4c-0.2,3-0.4,5.2-0.6,6.6
		c-0.1,1.4-0.4,2.5-0.7,3.3c-0.3,0.9-0.6,1.3-0.9,1.5C3,67,2.4,67.1,1.7,67.3L0,67.7v2.1h16.2v-2.1l-2.8-0.6
		c-1.5-0.3-2.4-0.7-2.7-1.2c-0.3-0.5-0.4-2.1-0.4-4.9l0.3-19.7h0.1l13.9,27.5c1.1,0,2.2-0.2,3.5-0.5l12.3-27H40.6z"/>
	<path class="st0" d="M92.9,57.7c-0.4,1.3-0.7,2.2-0.9,2.7c-0.2,0.5-0.6,1.3-1.2,2.3c-0.6,1-1.2,1.7-1.8,2.2
		c-0.6,0.4-1.5,0.9-2.6,1.2s-2.4,0.6-3.8,0.6c-1.7,0-3.6-0.4-5.9-1.2V47.9h2.4c3,0,5,0.2,5.8,0.4c0.8,0.3,1.3,1.2,1.5,2.7l0.3,2.3
		h2.8v-14h-2.8l-0.3,2.3c-0.2,1.5-0.7,2.4-1.5,2.7c-0.8,0.3-2.8,0.4-5.8,0.4h-2.4V27.3h4.1c1.2,0,2.3,0,3.1,0.1
		c0.8,0.1,1.6,0.3,2.3,0.7c0.7,0.4,1.2,0.7,1.6,1c0.3,0.3,0.7,0.9,1.2,1.8c0.5,0.9,0.8,1.7,1,2.4c0.2,0.7,0.6,1.8,1.1,3.4l3.4-0.3
		c0-0.2,0-0.8,0-1.7s0-1.5,0-1.7c0-3-0.3-5.9-1-8.8H59.9v2.1l1.4,0.2c1.5,0.2,2.4,0.7,2.7,1.5c0.3,0.8,0.4,2.7,0.4,5.5v26.9
		c0,2.9-0.2,4.7-0.4,5.5c-0.3,0.8-1.2,1.3-2.7,1.5l-1.4,0.2v2.1h35.2c1.5-5.1,2.2-9.7,2.2-13.8l-3.8-0.7
		C93.5,55.6,93.3,56.4,92.9,57.7z"/>
	<path class="st0" d="M147,56.5c1.5-3.3,2.2-7.3,2.2-11.8c0-3.3-0.6-6.2-1.7-8.7c-1.1-2.5-2.5-4.5-4.2-5.9c-1.7-1.4-3.8-2.6-6.2-3.5
		s-4.8-1.5-7-1.8c-2.2-0.3-4.6-0.4-7.1-0.4H99.3v2.1l1.4,0.3c1.4,0.3,2.3,0.7,2.6,1.4c0.3,0.7,0.5,2.5,0.5,5.5v26.8
		c0,3.1-0.2,5-0.5,5.6c-0.3,0.7-1.2,1.1-2.6,1.4l-1.4,0.3v2.1h22.3c3.8,0,7.3-0.4,10.5-1.3c3.2-0.9,6.1-2.3,8.7-4.1
		C143.5,62.4,145.5,59.8,147,56.5z M121.4,66.6c-1.7,0-3.4-0.3-5.2-1V27.7c1.8-0.2,3-0.3,3.4-0.3c4.9,0,8.8,1.7,11.5,5
		c2.8,3.3,4.1,7.9,4.1,13.8C135.2,59.8,130.6,66.6,121.4,66.6z"/>
	<path class="st0" d="M151,26.3l1.4,0.3c1.4,0.3,2.3,0.7,2.6,1.4c0.3,0.7,0.5,2.5,0.5,5.5v26.8c0,3.1-0.2,5-0.5,5.6
		c-0.3,0.7-1.2,1.1-2.6,1.4l-1.4,0.3v2.1h21.4v-2.1l-1.4-0.3c-1.4-0.3-2.3-0.7-2.6-1.4c-0.3-0.7-0.5-2.5-0.5-5.5V33.5
		c0-3,0.2-4.9,0.5-5.5c0.3-0.7,1.2-1.1,2.6-1.4l1.4-0.3v-2.1H151V26.3z"/>
	<path class="st0" d="M216.3,66c-0.6-0.6-1-1.3-1.3-1.8c-0.3-0.6-0.6-1.6-1.1-2.9l-13.6-37c-3.3,0.1-5.7,0.6-7.2,1.2l-11.9,31.6
		c-1.8,4.6-3,7.4-3.5,8.4c-0.6,0.9-1.4,1.6-2.6,1.8l-1.4,0.3v2.1h15.9v-2.1l-3.2-0.6c-0.9-0.1-1.4-0.3-1.6-0.6
		c-0.2-0.3-0.3-0.7-0.3-1.5c0-0.7,0.3-1.9,0.8-3.7l2-6.3c1.7-0.5,3.6-0.7,5.7-0.7c2.1,0,4,0.2,5.9,0.7l2.3,7
		c0.5,1.5,0.8,2.6,0.8,3.3c0,1-0.9,1.6-2.8,1.9l-2.3,0.4v2.1h22.7v-2.1l-1.2-0.3C217.6,67.1,216.9,66.7,216.3,66z M193.1,51.3
		c-1.4,0-3,0.2-4.8,0.5l4.9-14.1h0.1l4.7,14.1C196.7,51.4,195.1,51.3,193.1,51.3z"/>
	<path class="st0" d="M7.8,92.7L6,91.9c-1.2-0.5-2.2-0.8-2.2-1.7c0-0.8,0.7-1.3,1.8-1.3c1.1,0,2,0.4,2.9,1.1l1.6-2
		c-1.2-1.2-2.9-1.9-4.6-1.9c-3,0-5.1,1.9-5.1,4.2c0,2.1,1.4,3.3,2.9,3.9l1.8,0.8c1.2,0.5,2,0.8,2,1.7c0,0.8-0.7,1.4-2,1.4
		c-1.2,0-2.5-0.6-3.5-1.5L0,98.9c1.4,1.4,3.4,2.1,5.3,2.1c3.4,0,5.3-2,5.3-4.4C10.6,94.5,9.5,93.4,7.8,92.7z"/>
	<polygon class="st0" points="20.6,94.7 25.4,94.7 25.4,92 20.6,92 20.6,89.1 26.3,89.1 26.3,86.5 17.4,86.5 17.4,100.7 26.5,100.7 
		26.5,98 20.6,98 	"/>
	<path class="st0" d="M39.7,98.1c-2.1,0-3.4-1.7-3.4-4.6c0-2.8,1.5-4.6,3.5-4.6c1,0,1.8,0.5,2.5,1.1L44,88c-1-1-2.4-1.8-4.3-1.8
		c-3.6,0-6.7,2.7-6.7,7.4c0,4.8,3,7.3,6.6,7.3c1.8,0,3.4-0.7,4.6-2.1l-1.7-2C41.8,97.6,40.9,98.1,39.7,98.1z"/>
	<path class="st0" d="M61.3,90.9c0-3.4-2.5-4.4-5.5-4.4h-5.1v14.2h3.2v-5.1h1.8l2.7,5.1H62L58.8,95C60.3,94.3,61.3,93,61.3,90.9z
		 M53.9,89h1.6c1.7,0,2.6,0.5,2.6,1.9c0,1.4-0.9,2.1-2.6,2.1h-1.6V89z"/>
	<polygon class="st0" points="71.6,94.7 76.5,94.7 76.5,92 71.6,92 71.6,89.1 77.3,89.1 77.3,86.5 68.4,86.5 68.4,100.7 77.5,100.7 
		77.5,98 71.6,98 	"/>
	<polygon class="st0" points="83.6,89.1 87.5,89.1 87.5,100.7 90.7,100.7 90.7,89.1 94.6,89.1 94.6,86.5 83.6,86.5 	"/>
	<polygon class="st0" points="113.1,94.7 117.9,94.7 117.9,92 113.1,92 113.1,89.1 118.8,89.1 118.8,86.5 109.9,86.5 109.9,100.7 
		119,100.7 119,98 113.1,98 	"/>
	<path class="st0" d="M133,92.7l-1.8-0.7c-1.2-0.5-2.2-0.8-2.2-1.7c0-0.8,0.7-1.3,1.8-1.3c1.1,0,2,0.4,2.9,1.1l1.6-2
		c-1.2-1.2-2.9-1.9-4.6-1.9c-3,0-5.1,1.9-5.1,4.2c0,2.1,1.4,3.3,2.9,3.9l1.8,0.8c1.2,0.5,2,0.8,2,1.7c0,0.8-0.7,1.4-2,1.4
		c-1.2,0-2.5-0.6-3.5-1.5l-1.8,2.2c1.4,1.4,3.4,2.1,5.3,2.1c3.4,0,5.3-2,5.3-4.4C135.9,94.5,134.8,93.4,133,92.7z"/>
	<path class="st0" d="M148.7,98.1c-2.1,0-3.4-1.7-3.4-4.6c0-2.8,1.5-4.6,3.5-4.6c1,0,1.8,0.5,2.5,1.1l1.7-2.1c-1-1-2.4-1.8-4.3-1.8
		c-3.6,0-6.7,2.7-6.7,7.4c0,4.8,3,7.3,6.6,7.3c1.8,0,3.4-0.7,4.6-2.1l-1.7-2C150.8,97.6,149.8,98.1,148.7,98.1z"/>
	<path class="st0" d="M162.3,86.5l-4.5,14.2h3.3l0.9-3.4h4.3l0.9,3.4h3.4l-4.5-14.2H162.3z M162.6,94.8l0.3-1.3
		c0.4-1.4,0.8-3.1,1.1-4.6h0.1c0.4,1.5,0.8,3.2,1.2,4.6l0.3,1.3H162.6z"/>
	<path class="st0" d="M181.2,86.5h-4.9v14.2h3.2v-4.8h1.8c3,0,5.6-1.5,5.6-4.8C186.8,87.6,184.3,86.5,181.2,86.5z M181.1,93.3h-1.6
		V89h1.5c1.7,0,2.7,0.5,2.7,2C183.7,92.5,182.9,93.3,181.1,93.3z"/>
	<polygon class="st0" points="196.9,94.7 201.7,94.7 201.7,92 196.9,92 196.9,89.1 202.6,89.1 202.6,86.5 193.7,86.5 193.7,100.7 
		202.8,100.7 202.8,98 196.9,98 	"/>
	<path class="st0" d="M216.8,92.7l-1.8-0.7c-1.2-0.5-2.2-0.8-2.2-1.7c0-0.8,0.7-1.3,1.8-1.3c1.1,0,2,0.4,2.9,1.1l1.6-2
		c-1.2-1.2-2.9-1.9-4.6-1.9c-3,0-5.1,1.9-5.1,4.2c0,2.1,1.4,3.3,2.9,3.9l1.8,0.8c1.2,0.5,2,0.8,2,1.7c0,0.8-0.7,1.4-2,1.4
		c-1.2,0-2.5-0.6-3.5-1.5l-1.8,2.2c1.4,1.4,3.4,2.1,5.3,2.1c3.4,0,5.3-2,5.3-4.4C219.6,94.5,218.6,93.4,216.8,92.7z"/>
	<path class="st0" d="M323.3,26.9c-2.3-5.7-5.6-10.5-9.8-14.5c-4.2-4-9.3-7-15.2-9.2C292.4,1.1,285.8,0,278.5,0
		c-4.9,0-9.6,0.6-14.1,1.7c-4.5,1.2-8.7,2.8-12.5,5c-3.9,2.1-7.4,4.8-10.5,7.8c-3.1,3.1-5.8,6.5-8.1,10.3c-2.2,3.8-3.9,7.9-5.2,12.4
		c-1.2,4.5-1.8,9.2-1.8,14.2c0,4.7,0.6,9.2,1.8,13.5c1.2,4.3,2.9,8.3,5.1,11.9c2.2,3.7,4.8,7,7.9,9.9c3.1,3,6.5,5.5,10.3,7.6
		c3.8,2.1,7.8,3.7,12.2,4.8c4.3,1.1,8.9,1.7,13.6,1.7c1.9,0,3.9-0.1,5.8-0.2c1.9-0.2,3.8-0.4,5.6-0.7c1.8-0.3,3.5-0.7,5.2-1.2
		c1.6-0.5,3.1-1.1,4.4-1.8c2.5-1.4,0.4-4.5-1.8-3.3c-1.7,0.9-2.2,1-3.5,1.4c-1.4,0.4-2.8,0.7-4.4,0.9c-1.6,0.2-3.2,0.4-4.9,0.5
		c-1.7,0.1-3.4,0.2-5,0.2c-5.8,0-11.3-1-16.5-3c-5.2-2-9.8-5-13.8-8.8s-7.1-8.6-9.5-14.2c-2.3-5.6-3.5-12-3.5-19.1
		c0-7.1,1.2-13.4,3.6-19c2.4-5.6,5.6-10.3,9.6-14.2c4-3.9,8.7-6.8,13.9-8.9c5.2-2,10.7-3.1,16.4-3.1c7,0,13.2,0.9,18.5,2.8
		c5.3,1.9,9.8,4.5,13.4,8c3.6,3.5,6.3,7.6,8.1,12.5c1.8,4.9,2.7,10.3,2.7,16.3c0,4.3-0.5,8.2-1.5,11.6c-1,3.5-2.3,6.4-4,8.8
		c-1.1,1.7-2.4,3.1-3.8,4.2c-7,4.6-10.9,2-12.5-0.6c-1.1-1.8-1.3-5.6-1.3-11.1l0-14c0-7.4-0.2-12.8-2.6-16.2
		c-2.4-3.4-6.2-5.1-13.3-5.1c-4.6,0-9.4,1.2-14.6,3.5c-5.2,2.3-9.1,5.1-11.6,8.3c0.4,1.9,1.5,4.3,3.1,7.2l1.5,0
		c2.8-7.3,7-10.9,12.6-10.9c5.8,0,8.6,3.6,8.6,10.9l0,3.1c-1.8,0.2-3.6,0.5-5.4,1c-1.8,0.4-4.2,1.1-7.1,2.1c-2.9,1-4.4,2.1-6.5,3.4
		c-2.1,1.3-3.9,3.1-5.5,5.3c-1.6,2.2-2.4,4.7-2.4,7.4c0,3.9,1.4,7,4.3,9.5c2.8,2.4,5.5,3.6,9.9,3.6c4.8,0,9.5-2,14.2-6.1
		c2.2,4,7,6.4,12.7,7c4.7,0.4,9.6,0.3,15.2-2.6c3.3-1.7,6.1-4,8.3-6.9c2.2-2.9,3.9-6.4,5-10.4c1.1-4,1.7-8.4,1.7-13.1
		C326.8,39,325.6,32.6,323.3,26.9z M272.2,68.5c-2.3-1.6-3.7-3.7-3.7-6.9c0-3,1.2-5.8,3.7-7.8c3.8-3.1,10.1-2.8,10.1-2.8l0,12.5
		c0,2.2,0.3,4.2,0.8,5.7C279.7,70.6,275,70.3,272.2,68.5z"/>
</g>
</svg>
