<?xml version="1.0" encoding="utf-8"?>
<!-- Generator: Adobe Illustrator 22.1.0, SVG Export Plug-In . SVG Version: 6.00 Build 0)  -->
<svg version="1.1" id="Layer_1" xmlns="http://www.w3.org/2000/svg" xmlns:xlink="http://www.w3.org/1999/xlink" x="0px" y="0px"
	 width="83.1px" height="106.4px" viewBox="0 0 83.1 106.4" style="enable-background:new 0 0 83.1 106.4;" xml:space="preserve">
<style type="text/css">
	.st0{fill:none;stroke:#1A1A1A;stroke-width:2;stroke-miterlimit:10;}
	.st1{fill:none;stroke:#FF8C00;stroke-width:2;stroke-miterlimit:10;}
</style>
<g>
	<path class="st0" d="M56.7,68c10.2-6.4,16.9-17.8,16.9-30.7C73.6,17.3,57.4,1,37.3,1C17.3,1,1,17.3,1,37.3
		c0,17.1,11.8,31.4,27.6,35.3"/>
	<path class="st1" d="M45.2,54.7c6.6-3,11.2-9.6,11.2-17.4c0-10.5-8.5-19.1-19.1-19.1c-10.5,0-19.1,8.5-19.1,19.1
		c0,7.4,4.2,13.8,10.3,17"/>
	<path class="st0" d="M82.1,103.2l0-24.3c0-4.5-3.7-8.3-8.3-8.3c-1.7,0-3.3,0.5-4.6,1.4c-1.2-3-4.2-5.2-7.7-5.2
		c-1.7,0-3.3,0.5-4.6,1.4c-1.2-3-4.2-5.2-7.7-5.2c-1.4,0-2.9,0.4-4,1.1l-0.1-24.6c0-2.2-0.9-4.3-2.4-5.9c-1.6-1.6-3.7-2.4-5.9-2.4
		c-4.5,0-8.3,3.7-8.3,8.3l0.1,48L23,82c-2.9-2.9-7.3-3.2-10.6-1c-2,1.3-3.3,3.4-3.7,5.8c-0.4,2.3,0.4,4.7,1.9,6.6l9.4,11.1
		c0.4,0.5,1.1,0.8,1.6,0.8"/>
</g>
</svg>
