<svg id="Ebene_8" data-name="Ebene 8" xmlns="http://www.w3.org/2000/svg" viewBox="0 0 89.3214 73.6028"><defs><style>.cls-1{fill:#47484a;stroke-width:1.8px;}.cls-1,.cls-2,.cls-4{stroke:#ffffff;stroke-miterlimit:10;}.cls-2{fill:#fff;}.cls-3{fill:none;stroke:#fff;stroke-linecap:round;stroke-linejoin:round;stroke-width:0.3px;}.cls-4{fill:#ff8c00;}</style></defs><path class="cls-1" d="M60.5254,59.5854l-.0286-.05a1.6594,1.6594,0,0,0-2.2648-.6107L47.9376,64.8408a1.6685,1.6685,0,0,1-1.5266.0577C41.0725,62.481,34.25,62.1955,29.37,64.17a1.6915,1.6915,0,0,1-1.4862-.0816L22.49,60.9809a1.6653,1.6653,0,0,1-.5715-2.3176,5.8984,5.8984,0,0,0,.8836-3.0757,7.2213,7.2213,0,0,0-1.7585-4.5348,1.6593,1.6593,0,0,1,.4462-2.4887L52.1515,30.8772a1.67,1.67,0,0,1,1.5305-.0592,23.9032,23.9032,0,0,0,9.7154,2.0648,19.5287,19.5287,0,0,0,7.3081-1.3336,1.689,1.689,0,0,1,1.4878.0805L77.577,34.73a1.6654,1.6654,0,0,1,.5718,2.3176,5.8991,5.8991,0,0,0-.8841,3.0777,7.23,7.23,0,0,0,1.7878,4.5633,1.6588,1.6588,0,0,1-.4381,2.4909L73.219,50.3125a1.6593,1.6593,0,0,0-.6,2.27l.0282.0484a1.6594,1.6594,0,0,0,2.2671.5995L93.1186,42.657a1.6593,1.6593,0,0,0-.0052-2.8727L62.3429,22.06a1.6594,1.6594,0,0,0-1.6574.0005L6.9534,53.0537a1.6593,1.6593,0,0,0,.0008,2.8752L37.7249,73.6541a1.6594,1.6594,0,0,0,1.6552.0007L59.9144,61.852A1.6593,1.6593,0,0,0,60.5254,59.5854Z" transform="translate(-5.3731 -21.0884)"/><path class="cls-2" d="M16.4558,51.467c1.8446,1.26,2.9693,2.7511,2.9693,4.1206a3.5079,3.5079,0,0,1-1.6046,2.7051L11.2177,54.49ZM67.6223,28.9948a20.8532,20.8532,0,0,1-11.0652-.6569l4.957-2.86ZM83.6372,44.2607c-1.8616-1.2629-2.996-2.7633-2.996-4.1377A3.4994,3.4994,0,0,1,82.2483,37.42l6.61,3.8079ZM43.5261,67.3776l-4.9714,2.8578-6.1083-3.5195A20.9114,20.9114,0,0,1,43.5261,67.3776Z" transform="translate(-5.3731 -21.0884)"/><path class="cls-1" d="M58.3768,65.4805,39.46,76.4516a1.6933,1.6933,0,0,1-1.6979.0006L10.2124,60.5012a1.6932,1.6932,0,0,0-2.3173.623h0a1.6933,1.6933,0,0,0,.62,2.3077L37.7618,80.3668a1.6933,1.6933,0,0,0,1.6979-.0005L60.0767,68.412a1.6932,1.6932,0,0,0,.6185-2.309l-.0011-.0019A1.6933,1.6933,0,0,0,58.3768,65.4805Z" transform="translate(-5.3731 -21.0884)"/><path class="cls-1" d="M72.4539,59.3112l.0009.0015a1.7025,1.7025,0,0,0,2.3305.6251l16.76-9.7179a1.7027,1.7027,0,0,0,.6221-2.3214h0a1.7025,1.7025,0,0,0-2.33-.6246L73.0765,56.99A1.7028,1.7028,0,0,0,72.4539,59.3112Z" transform="translate(-5.3731 -21.0884)"/><path class="cls-1" d="M7.8962,67.8524h0a1.6932,1.6932,0,0,0,.62,2.3076L37.7629,87.0972a1.6932,1.6932,0,0,0,1.6981-.0006L60.0767,75.14a1.6933,1.6933,0,0,0,.6188-2.308l-.0005-.0009a1.6932,1.6932,0,0,0-2.318-.6215L39.461,83.1819a1.6932,1.6932,0,0,1-1.6981.0007L10.2137,67.2294A1.6933,1.6933,0,0,0,7.8962,67.8524Z" transform="translate(-5.3731 -21.0884)"/><path class="cls-1" d="M72.4539,66.04l.0009.0016a1.7026,1.7026,0,0,0,2.3305.625l16.76-9.7179a1.7027,1.7027,0,0,0,.6221-2.3214h0a1.7027,1.7027,0,0,0-2.33-.6246L73.0765,63.7193A1.7026,1.7026,0,0,0,72.4539,66.04Z" transform="translate(-5.3731 -21.0884)"/><path class="cls-1" d="M37.7253,89.8119,10.2067,73.9049a1.6891,1.6891,0,0,0-2.31.6215l0,.0007a1.6891,1.6891,0,0,0,.62,2.3032l29.21,16.8841a1.6889,1.6889,0,0,0,1.6914-.0005l52.1378-30.18a1.6891,1.6891,0,0,0,.6179-2.3041h0a1.6891,1.6891,0,0,0-2.31-.6195L39.4167,89.8114A1.6889,1.6889,0,0,1,37.7253,89.8119Z" transform="translate(-5.3731 -21.0884)"/><path class="cls-1" d="M35.8532,55.5026a16.482,16.482,0,0,0,10.1562,3.0662,23.6114,23.6114,0,0,0,7.8439-1.3622L52.7261,54c-5.4005,1.9149-11.4772,1.43-14.7835-1.1683-2.5136-1.9828-2.945-4.7557-1.1828-7.6087l-2.8772-1.7888c-2.6542,4.2951-1.881,9.0339,1.9706,12.0687" transform="translate(-5.3731 -21.0884)"/><path class="cls-3" d="M35.8532,55.5026a16.482,16.482,0,0,0,10.1562,3.0662,23.6114,23.6114,0,0,0,7.8439-1.3622L52.7261,54c-5.4005,1.9149-11.4772,1.43-14.7835-1.1683-2.5136-1.9828-2.945-4.7557-1.1828-7.6087l-2.8772-1.7888C31.2284,47.729,32.0016,52.4678,35.8532,55.5026Z" transform="translate(-5.3731 -21.0884)"/><path class="cls-1" d="M66.0882,49.3441A8.5462,8.5462,0,0,0,63.58,38.4607c-3.7838-2.979-10.12-3.8346-16.1506-2.1718l.9017,3.2795c5.0151-1.3865,10.1853-.7732,13.16,1.5683a5.162,5.162,0,0,1,1.5513,6.7191Z" transform="translate(-5.3731 -21.0884)"/><path class="cls-3" d="M66.0882,49.3441A8.5462,8.5462,0,0,0,63.58,38.4607c-3.7838-2.979-10.12-3.8346-16.1506-2.1718l.9017,3.2795c5.0151-1.3865,10.1853-.7732,13.16,1.5683a5.162,5.162,0,0,1,1.5513,6.7191Z" transform="translate(-5.3731 -21.0884)"/><path class="cls-4" d="M34.409,42.58,61.7148,58.329a.8815.8815,0,0,1,.4411.7636v16.06a.8816.8816,0,0,0,1.3207.7644l6.9873-4.0143a.8818.8818,0,0,0,.4424-.7644V54.0751a.8815.8815,0,0,0-.4411-.7636l-28.22-16.2747a.8815.8815,0,0,0-.8812,0l-6.9555,4.0163A.8816.8816,0,0,0,34.409,42.58ZM58.7745,80.99V61.0414a.8813.8813,0,0,0-.4411-.7636L27.6445,42.5805a.8815.8815,0,0,1,0-1.5271l13.72-7.9167a.8816.8816,0,0,1,.881,0l31.6013,18.226a.8814.8814,0,0,1,.4411.7636V73.0941a.8815.8815,0,0,1-.4425.7644l-13.75,7.8956A.8816.8816,0,0,1,58.7745,80.99Z" transform="translate(-5.3731 -21.0884)"/></svg>
