<?xml version="1.0" encoding="utf-8"?>
<!-- Generator: Adobe Illustrator 22.1.0, SVG Export Plug-In . SVG Version: 6.00 Build 0)  -->
<svg version="1.1" id="Layer_1" xmlns="http://www.w3.org/2000/svg" xmlns:xlink="http://www.w3.org/1999/xlink" x="0px" y="0px"
	 width="85.9px" height="102.4px" viewBox="0 0 85.9 102.4" style="enable-background:new 0 0 85.9 102.4;" xml:space="preserve">
<style type="text/css">
	.st0{fill:none;stroke:#1A1A1A;stroke-width:2;stroke-linecap:round;stroke-linejoin:round;stroke-miterlimit:10;}
	.st1{fill:none;stroke:#FF8C00;stroke-width:2;stroke-linecap:round;stroke-linejoin:round;stroke-miterlimit:10;}
</style>
<g>
	<path class="st0" d="M67.2,39.9C64.9,28.6,54.9,20.2,43,20.2s-21.9,8.5-24.2,19.7c-0.3,1.6-0.5,3.3-0.5,5c0,7.6,2.9,12.9,7.1,18.5
		c4.8,6.2,6.6,12.1,6.9,17.3V90v6.2c0,2.8,2.3,5.2,5.2,5.2h11.1c2.8,0,5.2-2.3,5.2-5.2V90v-9.5c0.3-5.2,2.1-11,6.9-17.3
		c4.2-5.6,7.1-10.9,7.1-18.5C67.7,43.1,67.5,41.5,67.2,39.9z"/>
	<line class="st0" x1="32.2" y1="79.7" x2="53.7" y2="79.7"/>
	<line class="st0" x1="32.4" y1="85.6" x2="53.5" y2="89.3"/>
	<line class="st0" x1="32.4" y1="93.6" x2="53.5" y2="97.2"/>
	<line class="st1" x1="73.7" y1="43" x2="84.9" y2="43"/>
	<line class="st1" x1="1" y1="43" x2="12.2" y2="43"/>
	<line class="st1" x1="43" y1="1" x2="43" y2="12.2"/>
	<line class="st1" x1="64.7" y1="21.2" x2="72.6" y2="13.3"/>
	<line class="st1" x1="13.3" y1="13.3" x2="21.2" y2="21.2"/>
	<path class="st0" d="M46.1,73.8c0,0,2.5-26.3,2.6-26.6c0.4-1.2,1.6-2,2.9-2c1.7,0,3.1,1.4,3.1,3.1s-1.4,3.1-3.1,3.1H34.3
		c-1.7,0-3.1-1.4-3.1-3.1s1.4-3.1,3.1-3.1c1.3,0,2.5,0.8,2.9,2c0.1,0.3,2.6,26.6,2.6,26.6"/>
	<path class="st0" d="M43,73.1c-3.7,0-6.7,3-6.7,6.7h13.3C49.6,76,46.6,73.1,43,73.1z"/>
</g>
</svg>
