<svg id="Ebene_5" data-name="Ebene 5" xmlns="http://www.w3.org/2000/svg" viewBox="0 0 94.6127 97.8262"><defs><style>.cls-1,.cls-2{fill:none;stroke-linecap:round;stroke-linejoin:round;stroke-width:2px;}.cls-1{stroke:#1a1a1a;}.cls-2{stroke:#ff8c00;}</style></defs><path class="cls-1" d="M85.8876,45.5574V10.5689H14.6567V45.5574" transform="translate(-2.9972 -1.2137)"/><path class="cls-1" d="M3.9972,37.03,42.0581,67.5035l3.01-2.4454a8.2121,8.2121,0,0,1,10.346,0l3.0725,2.4454L96.5472,36.967" transform="translate(-2.9972 -1.2137)"/><path class="cls-1" d="M63.5653,10.5689,55.4765,4.0478a8.2123,8.2123,0,0,0-10.346,0l-8.1514,6.5211" transform="translate(-2.9972 -1.2137)"/><path class="cls-1" d="M14.6567,28.4394l-10.66,8.59V98.04H96.61V37.03l-10.7223-8.59" transform="translate(-2.9972 -1.2137)"/><path class="cls-2" d="M75.73,30.8221H24.8147" transform="translate(-2.9972 -1.2137)"/><path class="cls-2" d="M75.73,39.4751H24.8147" transform="translate(-2.9972 -1.2137)"/><path class="cls-2" d="M75.73,48.1909H24.8147" transform="translate(-2.9972 -1.2137)"/><path class="cls-2" d="M50.2722,19.9117H24.8147v4.2011H50.2722Z" transform="translate(-2.9972 -1.2137)"/><path class="cls-1" d="M3.9972,98.04,45.1305,65.0581a8.2121,8.2121,0,0,1,10.346,0L96.61,98.04" transform="translate(-2.9972 -1.2137)"/></svg>