<svg id="age" xmlns="http://www.w3.org/2000/svg" xmlns:xlink="http://www.w3.org/1999/xlink" viewBox="0 0 88.3042 64.2885"><defs><style>.cls-1,.cls-4,.cls-6{fill:none;}.cls-2{clip-path:url(#clip-path);}.cls-3{fill:#ffffff;}.cls-4{stroke:#47474a;}.cls-4,.cls-6{stroke-linecap:round;stroke-linejoin:round;stroke-width:2px;}.cls-5{fill:#ffffff;}.cls-6{stroke:#f18700;}</style><clipPath id="clip-path" transform="translate(-6.1717 -17.2168)"><rect class="cls-1" x="6.1982" y="17.2434" width="88.2513" height="64.2352"/></clipPath></defs><g class="cls-2"><path class="cls-3" d="M19.71,58.4392s0-7.1476,1.055-8.843C22.1431,47.383,29.3161,42.3726,36,42.1527c6.6844-.2219,13.83,5.6682,14.669,7.0016,1.3995,2.221,1.1251,9.2849,1.1251,9.2849" transform="translate(-6.1717 -17.2168)"/><path class="cls-4" d="M19.71,58.4392s0-7.1476,1.055-8.843C22.1431,47.383,29.3161,42.3726,36,42.1527c6.6844-.2219,13.83,5.6682,14.669,7.0016,1.3995,2.221,1.1251,9.2849,1.1251,9.2849" transform="translate(-6.1717 -17.2168)"/><path class="cls-5" d="M30.2321,19.9452c-2.7407,2.2132-2.8439,6.57-2.8633,9.3511-.0253,3.51.8078,9.2129,3.7139,12.3584,2.914,3.1515,7.8815,2.3748,9.7871,0C43.05,38.9374,43.848,35,44.1322,29.59c.2842-5.4113-1.7246-9.063-3.2624-10.0187-2.8361-1.7616-7.73-1.9738-10.6377.3737" transform="translate(-6.1717 -17.2168)"/><path class="cls-4" d="M30.2321,19.9452c-2.7407,2.2132-2.8439,6.57-2.8633,9.3511-.0253,3.51.8078,9.2129,3.7139,12.3584,2.914,3.1515,7.8815,2.3748,9.7871,0C43.05,38.9374,43.848,35,44.1322,29.59c.2842-5.4113-1.7246-9.063-3.2624-10.0187C38.0337,17.81,33.14,17.5977,30.2321,19.9452Z" transform="translate(-6.1717 -17.2168)"/><path class="cls-3" d="M48.069,58.4392s0-7.1476,1.055-8.843c1.3782-2.2132,8.5511-7.2236,15.2354-7.4435,6.6844-.2219,13.83,5.6682,14.669,7.0016,1.4,2.221,1.1271,9.2849,1.1271,9.2849" transform="translate(-6.1717 -17.2168)"/><path class="cls-4" d="M48.069,58.4392s0-7.1476,1.055-8.843c1.3782-2.2132,8.5511-7.2236,15.2354-7.4435,6.6844-.2219,13.83,5.6682,14.669,7.0016,1.4,2.221,1.1271,9.2849,1.1271,9.2849" transform="translate(-6.1717 -17.2168)"/><path class="cls-5" d="M58.5913,19.9452c-2.7407,2.2132-2.8438,6.57-2.8633,9.3511-.0253,3.51.8059,9.2129,3.714,12.3584,2.9139,3.1515,7.8814,2.3748,9.7871,0C71.4092,38.9374,72.2072,35,72.4914,29.59c.2823-5.4113-1.7246-9.063-3.2623-10.0187-2.8361-1.7616-7.73-1.9738-10.6378.3737" transform="translate(-6.1717 -17.2168)"/><path class="cls-4" d="M58.5913,19.9452c-2.7407,2.2132-2.8438,6.57-2.8633,9.3511-.0253,3.51.8059,9.2129,3.714,12.3584,2.9139,3.1515,7.8814,2.3748,9.7871,0C71.4092,38.9374,72.2072,35,72.4914,29.59c.2823-5.4113-1.7246-9.063-3.2623-10.0187C66.393,17.81,61.4994,17.5977,58.5913,19.9452Z" transform="translate(-6.1717 -17.2168)"/><path class="cls-5" d="M7.1717,69.5069s0-7.1476,1.055-8.843c1.3781-2.2132,8.551-7.2216,15.2354-7.4435s13.83,5.6682,14.669,7.0016c1.3995,2.2229,1.1251,9.2849,1.1251,9.2849" transform="translate(-6.1717 -17.2168)"/><path class="cls-4" d="M7.1717,69.5069s0-7.1476,1.055-8.843c1.3781-2.2132,8.551-7.2216,15.2354-7.4435s13.83,5.6682,14.669,7.0016c1.3995,2.2229,1.1251,9.2849,1.1251,9.2849" transform="translate(-6.1717 -17.2168)"/><path class="cls-5" d="M17.6936,31.0131c-2.7407,2.2132-2.8419,6.5695-2.8634,9.3511-.0253,3.51.8079,9.2129,3.714,12.3585a6.7917,6.7917,0,0,0,9.7871,0c2.18-2.7174,2.9782-6.6552,3.2624-12.0646.2822-5.4113-1.7246-9.063-3.2624-10.0187-2.8361-1.7616-7.73-1.9738-10.6377.3737" transform="translate(-6.1717 -17.2168)"/><path class="cls-4" d="M17.6936,31.0131c-2.7407,2.2132-2.8419,6.5695-2.8634,9.3511-.0253,3.51.8079,9.2129,3.714,12.3585a6.7917,6.7917,0,0,0,9.7871,0c2.18-2.7174,2.9782-6.6552,3.2624-12.0646.2822-5.4113-1.7246-9.063-3.2624-10.0187C25.4952,28.8778,20.6017,28.6656,17.6936,31.0131Z" transform="translate(-6.1717 -17.2168)"/><path class="cls-5" d="M61.37,70.31s0-7.15,1.055-8.8431c1.3781-2.2132,8.5511-7.2235,15.2354-7.4435,6.6844-.2219,13.83,5.6683,14.669,7.0017,1.4,2.2209,1.1251,9.2849,1.1251,9.2849" transform="translate(-6.1717 -17.2168)"/><path class="cls-4" d="M61.37,70.31s0-7.15,1.055-8.8431c1.3781-2.2132,8.5511-7.2235,15.2354-7.4435,6.6844-.2219,13.83,5.6683,14.669,7.0017,1.4,2.2209,1.1251,9.2849,1.1251,9.2849" transform="translate(-6.1717 -17.2168)"/><path class="cls-5" d="M71.8917,31.8153c-2.7407,2.2132-2.8439,6.5695-2.8633,9.3511-.0253,3.5095.8058,9.2128,3.7139,12.3584,2.914,3.1514,7.8815,2.3748,9.7871,0,2.18-2.7173,2.9782-6.6551,3.2624-12.0645.2822-5.4113-1.7246-9.063-3.2624-10.0188-2.836-1.7616-7.73-1.9737-10.6377.3738" transform="translate(-6.1717 -17.2168)"/><path class="cls-4" d="M71.8917,31.8153c-2.7407,2.2132-2.8439,6.5695-2.8633,9.3511-.0253,3.5095.8058,9.2128,3.7139,12.3584,2.914,3.1514,7.8815,2.3748,9.7871,0,2.18-2.7173,2.9782-6.6551,3.2624-12.0645.2822-5.4113-1.7246-9.063-3.2624-10.0188C79.6934,29.68,74.8,29.4678,71.8917,31.8153Z" transform="translate(-6.1717 -17.2168)"/><path class="cls-5" d="M29.419,80.5053s0-9.2965,1.3762-11.5c1.7967-2.8789,11.1536-9.392,19.872-9.68,8.72-.2881,18.04,7.3714,19.1343,9.1038,1.8259,2.8906,1.47,12.0762,1.47,12.0762" transform="translate(-6.1717 -17.2168)"/><path class="cls-6" d="M29.419,80.5053s0-9.2965,1.3762-11.5c1.7967-2.8789,11.1536-9.392,19.872-9.68,8.72-.2881,18.04,7.3714,19.1343,9.1038,1.8259,2.8906,1.47,12.0762,1.47,12.0762" transform="translate(-6.1717 -17.2168)"/><path class="cls-5" d="M43.1572,30.2935c-3.568,2.8828-3.7023,8.5588-3.7276,12.1833-.0331,4.5723,1.0492,12.0022,4.8351,16.1,3.7938,4.1052,10.26,3.093,12.742,0,2.84-3.5407,3.8794-8.67,4.2473-15.7181.37-7.05-2.2444-11.8057-4.2473-13.0514-3.6926-2.2969-10.0635-2.5714-13.8495.4866" transform="translate(-6.1717 -17.2168)"/><path class="cls-6" d="M43.1572,30.2935c-3.568,2.8828-3.7023,8.5588-3.7276,12.1833-.0331,4.5723,1.0492,12.0022,4.8351,16.1,3.7938,4.1052,10.26,3.093,12.742,0,2.84-3.5407,3.8794-8.67,4.2473-15.7181.37-7.05-2.2444-11.8057-4.2473-13.0514C53.3141,27.51,46.9432,27.2355,43.1572,30.2935Z" transform="translate(-6.1717 -17.2168)"/></g></svg>
