<?xml version="1.0" encoding="utf-8"?>
<!-- Generator: Adobe Illustrator 22.1.0, SVG Export Plug-In . SVG Version: 6.00 Build 0)  -->
<svg version="1.1" id="Layer_1" xmlns="http://www.w3.org/2000/svg" xmlns:xlink="http://www.w3.org/1999/xlink" x="0px" y="0px"
	 width="107.8px" height="106.1px" viewBox="0 0 107.8 106.1" style="enable-background:new 0 0 107.8 106.1;" xml:space="preserve"
	>
<style type="text/css">
	.st0{fill:none;stroke:#1A1A1A;stroke-width:2;stroke-linecap:round;stroke-linejoin:round;stroke-miterlimit:10;}
</style>
<path class="st0" d="M84.2,63.1H72.2c0.5,1.1,0.8,2.4,0.8,3.7c0,5-4,9-9,9c-5,0-9-4-9-9c0-1.3,0.3-2.6,0.8-3.7H43.8
	c-0.4,0-0.8,0.3-0.8,0.8v12.1c-1.1-0.5-2.4-0.8-3.7-0.8c-5,0-9,4-9,9c0,5,4,9,9,9c1.3,0,2.6-0.3,3.7-0.8v12.1c0,0.4,0.3,0.8,0.8,0.8
	h28.3c7.1,0,12.9-5.8,12.9-12.9V63.8C85,63.4,84.7,63.1,84.2,63.1z"/>
<path class="st0" d="M43,104.3V92.3c-1.1,0.5-2.4,0.8-3.7,0.8c-5,0-9-4-9-9c0-5,4-9,9-9c1.3,0,2.6,0.3,3.7,0.8V63.8
	c0-0.4-0.3-0.8-0.8-0.8H30.2c0.5-1.1,0.8-2.4,0.8-3.7c0-5-4-9-9-9s-9,4-9,9c0,1.3,0.3,2.6,0.8,3.7H1.8c-0.4,0-0.8,0.3-0.8,0.8v28.3
	c0,7.1,5.8,12.9,12.9,12.9h28.3C42.7,105.1,43,104.7,43,104.3z"/>
<path class="st0" d="M1.8,63h12.1c-0.5-1.1-0.8-2.4-0.8-3.7c0-5,4-9,9-9c5,0,9,4,9,9c0,1.3-0.3,2.6-0.8,3.7h12.1
	c0.4,0,0.8-0.3,0.8-0.8V50.1c1.1,0.5,2.4,0.8,3.7,0.8c5,0,9-4,9-9s-4-9-9-9c-1.3,0-2.6,0.3-3.7,0.8V21.7c0-0.4-0.3-0.8-0.8-0.8H13.9
	C6.8,21,1,26.8,1,33.9v28.3C1,62.6,1.3,63,1.8,63z"/>
<path class="st0" d="M52.4,13.8L57,25c0.8-0.9,1.9-1.7,3.1-2.2c4.6-1.9,9.8,0.3,11.7,4.9c1.9,4.6-0.3,9.8-4.9,11.7
	c-1.2,0.5-2.5,0.7-3.7,0.7l4.6,11.1c0.2,0.4,0.6,0.6,1,0.4L80,47c0,1.2,0.2,2.5,0.7,3.7c1.9,4.6,7.2,6.8,11.7,4.9s6.8-7.2,4.9-11.7
	c-0.5-1.2-1.3-2.3-2.2-3.1l11.1-4.6c0.4-0.2,0.6-0.6,0.4-1L95.9,9C93.1,2.4,85.6-0.7,79,2L52.8,12.8C52.4,13,52.2,13.4,52.4,13.8z"
	/>
</svg>
