<?xml version="1.0" encoding="utf-8"?>
<!-- Generator: Adobe Illustrator 22.1.0, SVG Export Plug-In . SVG Version: 6.00 Build 0)  -->
<svg version="1.1" id="Layer_1" xmlns="http://www.w3.org/2000/svg" xmlns:xlink="http://www.w3.org/1999/xlink" x="0px" y="0px"
	 width="114.2px" height="106px" viewBox="0 0 114.2 106" style="enable-background:new 0 0 114.2 106;" xml:space="preserve">
<style type="text/css">
	.st0{fill:none;stroke:#1A1A1A;stroke-width:2;stroke-linecap:round;stroke-linejoin:round;stroke-miterlimit:10;}
	.st1{fill:none;stroke:#FF8C00;stroke-width:2;stroke-linecap:round;stroke-linejoin:round;stroke-miterlimit:10;}
</style>
<g>
	<g>
		<path class="st0" d="M6.9,31.4c16.9,0,33.8,2.9,49.7,8.6c0,21.6,0,43.2,0,64.8c-15.9-5.8-32.8-8.6-49.7-8.6V31.4z"/>
		<path class="st0" d="M46.9,90c-10.1-2.9-20.5-4.6-31-5.2"/>
		<path class="st0" d="M46.9,76.6c-10.1-2.9-20.5-4.6-31-5.2"/>
		<path class="st0" d="M46.9,63.1c-10.1-2.9-20.5-4.6-31-5.2"/>
		<path class="st0" d="M46.9,49.6c-10.1-2.9-20.5-4.6-31-5.2"/>
		<path class="st0" d="M106.2,31.4c-16.9,0-33.8,2.9-49.7,8.6c0,21.6,0,43.2,0,64.8c15.9-5.8,32.8-8.6,49.7-8.6V31.4z"/>
		<path class="st0" d="M66.3,90c10.1-2.9,20.5-4.6,31-5.2"/>
		<path class="st0" d="M66.3,76.6c10.1-2.9,20.5-4.6,31-5.2"/>
		<path class="st0" d="M66.3,63.1c10.1-2.9,20.5-4.6,31-5.2"/>
		<path class="st0" d="M66.3,49.6c10.1-2.9,20.5-4.6,31-5.2"/>
	</g>
	<path class="st0" d="M106.2,40.2v56c-16.9,0-33.8,2.9-49.7,8.6c-15.9-5.8-32.8-8.6-49.7-8.6v-56H1V105h112.2V40.2H106.2z"/>
	<g>
		<line class="st1" x1="13.7" y1="1" x2="13.7" y2="15.5"/>
		<line class="st1" x1="6.7" y1="8.2" x2="21" y2="8.2"/>
		<line class="st1" x1="10.5" y1="4.8" x2="17" y2="11.1"/>
		<line class="st1" x1="10.5" y1="11.1" x2="17" y2="4.8"/>
	</g>
	<path class="st0" d="M27.3,8.3c14.5,0,26.3,11.8,26.3,26.3"/>
	<g>
		<line class="st1" x1="74.7" y1="1.9" x2="74.7" y2="16.3"/>
		<line class="st1" x1="81.6" y1="9.1" x2="67.3" y2="9.1"/>
		<line class="st1" x1="77.8" y1="5.7" x2="71.4" y2="12"/>
		<line class="st1" x1="77.8" y1="12" x2="71.4" y2="5.7"/>
	</g>
	<path class="st0" d="M66.3,15.4C61.2,20.2,58,27,58,34.6"/>
</g>
</svg>
