<svg id="Ebene_4" data-name="Ebene 4" xmlns="http://www.w3.org/2000/svg" viewBox="0 0 85.7947 96.9151"><defs><style>.cls-1,.cls-2{fill:none;stroke-linecap:round;stroke-linejoin:round;stroke-width:2px;}.cls-1{stroke:#ff8c00;}.cls-2{stroke:#1a1a1a;}</style></defs><path class="cls-1" d="M88.4712,59.0008a2.6132,2.6132,0,1,0-2.6131-2.6131A2.6133,2.6133,0,0,0,88.4712,59.0008Z" transform="translate(-7.1027 -1.4989)"/><path class="cls-1" d="M91.8973,22.1265H80.6318v43.32H91.8973" transform="translate(-7.1027 -1.4989)"/><path class="cls-1" d="M77.0315,22.2426A22.68,22.68,0,0,1,68.5533,7.4348c-.4065-2.6131-1.3356-4.9359-4.6456-4.9359-3.8326,0-5.4005,3.2519-5.4005,6.5619v2.3809a29.5848,29.5848,0,0,0,2.497,13.24H52.9325a4.3924,4.3924,0,0,0-.871-.0581H40.7959a4.87,4.87,0,0,0-4.8778,4.8779v.4065a4.7566,4.7566,0,0,0,1.684,3.6583v1.3357a5.1115,5.1115,0,0,0,.3484,10.046c.0581.3484.1162.6388.1742.9872a5.0652,5.0652,0,0,0-2.2066,4.181,5.1329,5.1329,0,0,0,4.994,5.11c.058.058.058.1742.1161.2323a4.7084,4.7084,0,0,0-3.2519,4.5294v.7549a4.7833,4.7833,0,0,0,4.7617,4.7617H72.5021a8.0759,8.0759,0,0,0,3.6583-.871l4.0649-2.0325L80.69,24.5654A9.81,9.81,0,0,1,77.0315,22.2426Z" transform="translate(-7.1027 -1.4989)"/><path class="cls-1" d="M51.8873,34.8438H40.97a5.11,5.11,0,0,1,0-10.22H51.8873a5.11,5.11,0,0,1,0,10.22Z" transform="translate(-7.1027 -1.4989)"/><path class="cls-1" d="M53.6874,45.006h-15.04a5.11,5.11,0,0,1,0-10.22h15.04a5.11,5.11,0,1,1,0,10.22Z" transform="translate(-7.1027 -1.4989)"/><path class="cls-1" d="M53.6874,55.2263H40.97a5.11,5.11,0,0,1,0-10.22H53.6874a5.11,5.11,0,1,1,0,10.22Z" transform="translate(-7.1027 -1.4989)"/><path class="cls-1" d="M52.41,65.4465H42.8284a5.11,5.11,0,1,1,0-10.22H52.41a5.11,5.11,0,1,1,0,10.22Z" transform="translate(-7.1027 -1.4989)"/><path class="cls-1" d="M58.5072,11.5a29.5848,29.5848,0,0,0,2.497,13.24s2.7874,5.6909,5.11,6.62" transform="translate(-7.1027 -1.4989)"/><path class="cls-2" d="M27.15,24.3912H15.71a7.596,7.596,0,0,0-7.6071,7.6072v44.133A7.6332,7.6332,0,0,0,15.71,83.7385H45.5l13.24,13.24a1.5427,1.5427,0,0,0,2.1486,0,1.3994,1.3994,0,0,0,.4065-1.0452V83.7385H73.4892a7.6333,7.6333,0,0,0,7.6072-7.6071" transform="translate(-7.1027 -1.4989)"/></svg>
