<?xml version="1.0" encoding="utf-8"?>
<!-- Generator: Adobe Illustrator 22.1.0, SVG Export Plug-In . SVG Version: 6.00 Build 0)  -->
<svg version="1.1" id="Layer_1" xmlns="http://www.w3.org/2000/svg" xmlns:xlink="http://www.w3.org/1999/xlink" x="0px" y="0px"
	 width="108.6px" height="74.8px" viewBox="0 0 108.6 74.8" style="enable-background:new 0 0 108.6 74.8;" xml:space="preserve">
<style type="text/css">
	.st0{fill:none;stroke:#1A1A1A;stroke-width:2;stroke-miterlimit:10;}
	.st1{fill:none;stroke:#1A1A1A;stroke-width:2;stroke-linecap:round;stroke-linejoin:round;stroke-miterlimit:10;}
	.st2{fill:#FFFFFF;stroke:#1A1A1A;stroke-width:2;stroke-miterlimit:10;}
	.st3{fill:none;stroke:#F78C1E;stroke-width:2;stroke-miterlimit:10;}
</style>
<g>
	<g>
		<path class="st0" d="M101.7,73.8H6.9c-3.2,0-5.9-2.7-5.9-5.9V6.9C1,3.7,3.7,1,6.9,1h94.8c3.2,0,5.9,2.7,5.9,5.9v61
			C107.6,71.2,104.9,73.8,101.7,73.8z"/>
		<path class="st1" d="M38.2,40.7c0,0,0.2-11.4-7.5-12.3c2.8-0.9,4.7-3.5,4.7-6.6c0-3.8-3.1-6.9-6.9-6.9s-6.9,3.1-6.9,6.9
			c0,3,2,5.7,4.7,6.6c-7.7,1-7.5,12.3-7.5,12.3"/>
		<path class="st2" d="M94.3,32H61.6c-2.8,0-5-2.2-5-5l0,0c0-2.8,2.2-5,5-5h32.7c2.8,0,5,2.2,5,5l0,0C99.3,29.8,97,32,94.3,32z"/>
		<line class="st1" x1="95.6" y1="52.4" x2="11.5" y2="52.4"/>
		<line class="st1" x1="95.6" y1="61" x2="11.5" y2="61"/>
		<circle class="st3" cx="28.5" cy="26.5" r="17.9"/>
	</g>
</g>
</svg>
