<svg id="Ebene_2" data-name="Ebene 2" xmlns="http://www.w3.org/2000/svg" viewBox="0 0 61.6852 72.105"><defs><style>.cls-1,.cls-2{fill:none;stroke-linecap:round;stroke-linejoin:round;stroke-width:2px;}.cls-1{stroke:#1a1a1a;}.cls-2{stroke:#ff8c00;}</style></defs><path class="cls-1" d="M50.7246,79.637A24.587,24.587,0,1,0,26.1376,55.05,24.5869,24.5869,0,0,0,50.7246,79.637Z" transform="translate(-19.882 -13.7876)"/><path class="cls-1" d="M50.7246,84.8926A29.8426,29.8426,0,1,0,20.882,55.05,29.8427,29.8427,0,0,0,50.7246,84.8926Z" transform="translate(-19.882 -13.7876)"/><path class="cls-1" d="M50.7246,79.637V72.9647" transform="translate(-19.882 -13.7876)"/><path class="cls-1" d="M50.7246,37.1353V30.5087" transform="translate(-19.882 -13.7876)"/><path class="cls-1" d="M26.1376,55.05H32.81" transform="translate(-19.882 -13.7876)"/><path class="cls-1" d="M68.6393,55.05h6.6266" transform="translate(-19.882 -13.7876)"/><path class="cls-1" d="M33.3583,72.4163l4.7072-4.7072" transform="translate(-19.882 -13.7876)"/><path class="cls-1" d="M63.3837,42.3909l4.7072-4.7072" transform="translate(-19.882 -13.7876)"/><path class="cls-1" d="M33.3583,37.6837l4.7072,4.7072" transform="translate(-19.882 -13.7876)"/><path class="cls-1" d="M63.3837,67.7091l4.7072,4.7072" transform="translate(-19.882 -13.7876)"/><path class="cls-1" d="M30.7077,84.8926H70.6958" transform="translate(-19.882 -13.7876)"/><path class="cls-1" d="M58.5394,26.1214V20.4545H42.91v5.6669" transform="translate(-19.882 -13.7876)"/><path class="cls-1" d="M65.7145,14.7876H35.689v5.6669H65.7145Z" transform="translate(-19.882 -13.7876)"/><path class="cls-1" d="M76.9569,40.7914A8.5865,8.5865,0,1,0,64.9832,28.8178" transform="translate(-19.882 -13.7876)"/><path class="cls-1" d="M36.466,28.8635A8.574,8.574,0,1,0,24.4923,40.7914" transform="translate(-19.882 -13.7876)"/><path class="cls-2" d="M50.7246,55.05V43.0307" transform="translate(-19.882 -13.7876)"/><path class="cls-2" d="M50.7246,55.05l4.433,4.433" transform="translate(-19.882 -13.7876)"/></svg>