<svg id="Ebene_3" data-name="Ebene 3" xmlns="http://www.w3.org/2000/svg" viewBox="0 0 99.5663 80.1473"><defs><style>.cls-1,.cls-2{fill:none;stroke-linecap:round;stroke-linejoin:round;stroke-width:2px;}.cls-1{stroke:#1a1a1a;}.cls-2{stroke:#ff8c00;}</style></defs><path class="cls-1" d="M92.9335,79.2415H7.0071a5.829,5.829,0,0,1-5.82-5.82V18.4932a5.8289,5.8289,0,0,1,5.82-5.8194H92.9335a5.8289,5.8289,0,0,1,5.82,5.8194V73.3626A5.7676,5.7676,0,0,1,92.9335,79.2415Z" transform="translate(-0.1876 -11.6738)"/><path class="cls-1" d="M34.7387,90.821h7.3634a4.79,4.79,0,0,0,4.81-4.81V79.2415h6.1164V86.011a4.79,4.79,0,0,0,4.81,4.81h7.3634" transform="translate(-0.1876 -11.6738)"/><path class="cls-1" d="M50,30.4291,35.3325,43.0182,27.1378,46.403a3.4313,3.4313,0,0,0-1.8409,4.4536l3.9193,9.4419A3.4312,3.4312,0,0,0,33.67,62.1393l8.1948-3.3848,18.8836-2.3753" transform="translate(-0.1876 -11.6738)"/><path class="cls-1" d="M35.3325,43.0182l6.5321,15.7363" transform="translate(-0.1876 -11.6738)"/><path class="cls-2" d="M63.1829,44.5621A4.2281,4.2281,0,0,0,61.58,36.4267a4.5351,4.5351,0,0,0-1.6034.2969" transform="translate(-0.1876 -11.6738)"/><path class="cls-1" d="M50.0594,30.4885a3.3689,3.3689,0,1,1,6.2351-2.5535L67.1021,54.0039a3.3689,3.3689,0,0,1-6.2351,2.5535Z" transform="translate(-0.1876 -11.6738)"/><path class="cls-1" d="M36.1045,61.13,42.34,69.0871A5.3364,5.3364,0,0,0,48.5154,70.69a5.2231,5.2231,0,0,0,2.91-6.8884,4.75,4.75,0,0,0-.772-1.3064L47.15,58.0419" transform="translate(-0.1876 -11.6738)"/><path class="cls-1" d="M50.7126,62.4956,40.4988,66.7118" transform="translate(-0.1876 -11.6738)"/><path class="cls-2" d="M67.7554,47.1156a8.7912,8.7912,0,0,0,2.7909-6.4133,8.8954,8.8954,0,0,0-8.9073-8.9074h-.1782" transform="translate(-0.1876 -11.6738)"/><path class="cls-1" d="M41.2708,67.6619H5.76V17.365H94.24V67.6619H51.4846" transform="translate(-0.1876 -11.6738)"/></svg>