<?xml version="1.0" encoding="utf-8"?>
<!-- Generator: Adobe Illustrator 22.1.0, SVG Export Plug-In . SVG Version: 6.00 Build 0)  -->
<svg version="1.1" id="Layer_1" xmlns="http://www.w3.org/2000/svg" xmlns:xlink="http://www.w3.org/1999/xlink" x="0px" y="0px"
	 width="100.1px" height="69.5px" viewBox="0 0 100.1 69.5" style="enable-background:new 0 0 100.1 69.5;" xml:space="preserve">
<style type="text/css">
	.st0{fill:none;stroke:#1A1A1A;stroke-width:2;stroke-miterlimit:10;}
	.st1{fill:none;stroke:#FF8C00;stroke-width:2;stroke-miterlimit:10;}
</style>
<circle class="st0" cx="21.5" cy="35.5" r="2.7"/>
<circle class="st0" cx="83.3" cy="9.8" r="2.7"/>
<line class="st0" x1="1" y1="57.2" x2="19.6" y2="37.5"/>
<line class="st0" x1="80.6" y1="10.8" x2="52.5" y2="27.8"/>
<line class="st0" x1="93.2" y1="1" x2="85.3" y2="8.5"/>
<polyline class="st0" points="46.7,33 35.3,45.7 23.6,37.2 "/>
<circle class="st1" cx="49.4" cy="30.1" r="3.9"/>
<path class="st0" d="M6.9,68.5c-3.3,0-5.9-2.7-5.9-5.9V6.9C1,3.7,3.7,1,6.9,1h86.3c3.3,0,5.9,2.7,5.9,5.9v55.6
	c0,3.3-2.7,5.9-5.9,5.9H6.9z"/>
</svg>
