<svg id="Ebene_9" data-name="Ebene 9" xmlns="http://www.w3.org/2000/svg" viewBox="0 0 51.9562 45.4298"><defs><style>.cls-1,.cls-2,.cls-3,.cls-4{fill:none;}.cls-1,.cls-2,.cls-4{stroke:#47484a;}.cls-1,.cls-3{stroke-linecap:round;}.cls-1,.cls-2,.cls-3{stroke-linejoin:round;}.cls-3{stroke:#f18700;}</style></defs><polyline class="cls-1" points="8.281 31.689 0.5 34.8 9.481 38.853 13.535 44.835 16.651 40.049"/><polyline class="cls-1" points="43.598 31.595 51.456 34.747 42.381 38.854 38.274 44.93 35.116 40.066"/><path class="cls-2" d="M62.7683,63.1109a3.08,3.08,0,0,1-2.3838,2.1006L56.5,65.7171a9.1314,9.1314,0,0,0-3.46,1.3556L49.846,69.3378a3.08,3.08,0,0,1-3.1753.0758l-3.2992-2.1091a9.1544,9.1544,0,0,0-3.5231-1.1863l-3.9059-.3166a3.081,3.081,0,0,1-2.4816-1.9822l-1.17-3.7378a9.1565,9.1565,0,0,0-1.9353-3.1727l-2.7875-2.7535a3.0751,3.0751,0,0,1-.6257-3.1135l1.5032-3.6162a9.1318,9.1318,0,0,0,.5579-3.6749l-.3649-3.9a3.0734,3.0734,0,0,1,1.5208-2.7879l3.4786-1.8046A9.147,9.147,0,0,0,36.4256,32.8l2.225-3.2192a3.0758,3.0758,0,0,1,2.957-1.1595l3.8245.8536a9.1544,9.1544,0,0,0,3.7159-.0884l3.7761-1.0375a3.0827,3.0827,0,0,1,3.0107,1.0142l2.38,3.1093a9.1478,9.1478,0,0,0,2.9045,2.3207l3.5592,1.6323a3.0806,3.0806,0,0,1,1.6544,2.7135l-.1781,3.9137a9.1383,9.1383,0,0,0,.734,3.6442l1.6772,3.5368a3.0777,3.0777,0,0,1-.4753,3.14L65.54,56.059a9.1269,9.1269,0,0,0-1.7808,3.2624Z" transform="translate(-21.9138 -27.5679)"/><polyline class="cls-3" points="35.947 15.343 23.805 27.337 18.287 21.885"/><path class="cls-4" d="M47.9367,64.86A16.4482,16.4482,0,1,0,31.4892,48.4129,16.4472,16.4472,0,0,0,47.9367,64.86Z" transform="translate(-21.9138 -27.5679)"/></svg>