<svg id="Ebene_11" data-name="Ebene 11" xmlns="http://www.w3.org/2000/svg" viewBox="0 0 69.1567 62.8089"><defs><style>.cls-1{fill:#f18700;}.cls-2{fill:#47484a;}.cls-3{fill:none;}.cls-3,.cls-4{stroke:#47484a;stroke-miterlimit:10;stroke-width:1.5px;}.cls-4{fill:#fff;}</style></defs><path class="cls-1" d="M49.9212,43.56a11.1536,11.1536,0,1,0-9.9246,12.2589A11.1647,11.1647,0,0,0,49.9212,43.56ZM48.19,47.4189a22.0981,22.0981,0,0,0-4.5284-.8436c-.0116-.78-.0544-1.5661-.1361-2.3428-.0846-.8054-.2123-1.6122-.3711-2.4043a20.2373,20.2373,0,0,0,4.2-1.8236,9.7022,9.7022,0,0,1,.8353,7.4143Zm-8.3545,6.8649c-1.19.1253-2.7358-2.1283-3.6571-5.6362a23.48,23.48,0,0,1,6.0608-.72C42.081,51.5938,41.0332,54.1575,39.8357,54.2838ZM35.86,47.2523c-.1357-.693-.249-1.4191-.329-2.1793-.0793-.7555-.12-1.4851-.1312-2.1872a27.8459,27.8459,0,0,0,3.2263-.1447,24.6737,24.6737,0,0,0,3.1706-.5422c.1356.6934.2488,1.42.3286,2.18.0772.7336.1181,1.4432.1315,2.1265A24.56,24.56,0,0,0,35.86,47.2523Zm1.965-12.0866c1.19-.1255,2.7361,2.133,3.656,5.6471a25.2607,25.2607,0,0,1-6.06.6438C35.59,37.8248,36.6338,35.2912,37.8251,35.1657Zm8.7485,3.6649a18.5851,18.5851,0,0,1-3.736,1.6108A13.8532,13.8532,0,0,0,40.38,35.1126,9.7686,9.7686,0,0,1,46.5736,38.8306Zm-11.26-3.1852a13.8952,13.8952,0,0,0-1.2978,5.7633,27.5417,27.5417,0,0,1-4.1276-.543A9.7777,9.7777,0,0,1,35.3138,35.6454Zm-5.89,6.5616a27.79,27.79,0,0,0,4.5715.6311c.0106.7923.0534,1.592.1364,2.3817.0846.8072.2126,1.616.3719,2.41a23.8048,23.8048,0,0,0-4.2379,1.7444,9.6564,9.6564,0,0,1-.8419-7.167ZM31.0388,50.56a23.2229,23.2229,0,0,1,3.7851-1.5338,13.813,13.813,0,0,0,2.4546,5.3111A9.7723,9.7723,0,0,1,31.0388,50.56ZM42.3442,53.806a13.9518,13.9518,0,0,0,1.2993-5.8094,20.45,20.45,0,0,1,4.0534.7441A9.7694,9.7694,0,0,1,42.3442,53.806Z" transform="translate(-16.6573 -18.5955)"/><path class="cls-2" d="M29.0258,67.1558l1.51-.1583a1.196,1.196,0,0,0,1.019-1.3917,1.1822,1.1822,0,0,0-1.2838-1.1312l-1.51.1584Zm-1.8493-2.9a.811.811,0,0,1,.7814-.9657l1.98-.2073a2.6782,2.6782,0,0,1,3.1475,2.3733,2.6461,2.6461,0,0,1-2.52,2.9489l-1.3931.1453.1929,1.8364c.059.56-.1152.8952-.5959.9456a.8056.8056,0,0,1-.9311-.7844Z" transform="translate(-16.6573 -18.5955)"/><path class="cls-2" d="M36.4989,67.505l2.4121-.2533L37.39,63.9286l-.023.0029Zm-.4044-4.2658a1.3263,1.3263,0,0,1,1.1-1.0563,1.2755,1.2755,0,0,1,1.2967.8045l2.8337,5.8589a1.3236,1.3236,0,0,1,.1339.4059.7.7,0,0,1-.5772.8073.7886.7886,0,0,1-.8779-.4965l-.5584-1.1484-3.2295.34-.2821,1.2247a.7836.7836,0,0,1-.744.6793.7279.7279,0,0,1-.7441-.7152.9557.9557,0,0,1,.04-.3785Z" transform="translate(-16.6573 -18.5955)"/><path class="cls-2" d="M46.933,62.2918c.0461.4375-.1108.75-.57.7973-.4577.049-1.0405-.3324-1.7155-.3036a1.0027,1.0027,0,0,0-1.029,1.13c.1209,1.1528,4.12.4476,4.3722,2.8381a2.6754,2.6754,0,0,1-2.5934,2.9c-.8621.0906-2.7416.0834-2.8525-.9686a.6357.6357,0,0,1,.6275-.77c.5253-.0561,1.4291.4606,2.1574.3843a1.0948,1.0948,0,0,0,1.0693-1.278c-.1382-1.32-4.05-.5181-4.2874-2.7848a2.6047,2.6047,0,0,1,2.51-2.8338c.626-.0647,2.2178.0058,2.3113.8894" transform="translate(-16.6573 -18.5955)"/><path class="cls-2" d="M53.903,61.5593c.046.4375-.1108.75-.57.7973s-1.0406-.3325-1.7155-.3037a1.0029,1.0029,0,0,0-1.0291,1.13c.1209,1.1528,4.12.4476,4.3723,2.8381a2.6753,2.6753,0,0,1-2.5934,2.9c-.8621.0907-2.7417.0835-2.8525-.9686a.6356.6356,0,0,1,.6275-.77c.5253-.0562,1.4291.4605,2.1573.3842a1.0946,1.0946,0,0,0,1.0693-1.278c-.1381-1.32-4.05-.5181-4.2873-2.7848a2.6046,2.6046,0,0,1,2.51-2.8337c.6261-.0648,2.2178.0057,2.3114.8894" transform="translate(-16.6573 -18.5955)"/><rect class="cls-3" x="19.464" y="26.6541" width="40.176" height="49.2664" rx="6.6117" transform="translate(-21.7922 -14.1893) rotate(-5.9885)"/><rect class="cls-4" x="35.854" y="22.7856" width="44.3858" height="54.4287" rx="6.6117" transform="translate(-2.6312 -31.2981) rotate(14.1882)"/><path class="cls-1" d="M71.7442,45.9383a12.3223,12.3223,0,1,0-14.9631,8.9305A12.3346,12.3346,0,0,0,71.7442,45.9383ZM68.4787,49.28a24.4215,24.4215,0,0,0-4.3744-2.6c.2851-.8128.54-1.6447.7517-2.4812.2191-.8674.3942-1.7528.5313-2.6347a22.36,22.36,0,0,0,5.0505-.2905A10.7184,10.7184,0,0,1,68.4787,49.28ZM57.1993,53.2154c-1.2814-.3234-2.026-3.25-1.6446-7.2382A25.9437,25.9437,0,0,1,62.1141,47.54C60.5527,51.2816,58.4892,53.5407,57.1993,53.2154Zm-1.4432-8.8065c.1234-.77.2825-1.5664.4892-2.3853.2057-.8137.442-1.5855.6974-2.3181a30.7446,30.7446,0,0,0,3.4008,1.0794,27.2548,27.2548,0,0,0,3.4945.6459c-.1237.7707-.283,1.5671-.49,2.3863-.2.79-.4274,1.5416-.674,2.2553A27.1314,27.1314,0,0,0,55.7561,44.4089ZM62.4,32.624c1.2813.3232,2.0244,3.2545,1.6393,7.2491a27.9062,27.9062,0,0,1-6.53-1.6417C59.0682,34.53,61.1163,32.3,62.4,32.624Zm7.6755,7.1341a20.5256,20.5256,0,0,1-4.488.2468,15.3057,15.3057,0,0,0-.5178-6.4623A10.7921,10.7921,0,0,1,70.075,39.7581ZM59.6124,32.1646a15.3538,15.3538,0,0,0-3.5419,5.4818,30.41,30.41,0,0,1-4.0734-2.136A10.8024,10.8024,0,0,1,59.6124,32.1646Zm-8.6076,4.56a30.6949,30.6949,0,0,0,4.5,2.3964c-.291.8257-.5513,1.6713-.7661,2.5218-.22.8694-.3954,1.7568-.5326,2.6407a26.2924,26.2924,0,0,0-5.0595.194,10.6683,10.6683,0,0,1,1.8581-7.7529ZM49.496,46.0018a25.6727,25.6727,0,0,1,4.5095-.1482,15.2606,15.2606,0,0,0,.5217,6.443A10.7964,10.7964,0,0,1,49.496,46.0018Zm10.4867,7.6741a15.4152,15.4152,0,0,0,3.561-5.5292,22.58,22.58,0,0,1,3.92,2.3162A10.7934,10.7934,0,0,1,59.9827,53.6759Z" transform="translate(-16.6573 -18.5955)"/><path class="cls-2" d="M41.0846,62.4444l1.6259.4111a1.3213,1.3213,0,0,0,1.5869-1.0549,1.3058,1.3058,0,0,0-.9-1.6622l-1.6258-.4111Zm-.8127-3.712a.8961.8961,0,0,1,1.1784-.7036l2.1325.54a2.9589,2.9589,0,0,1,2.36,3.66,2.9233,2.9233,0,0,1-3.7369,2.0977l-1.5-.38-.5,1.9778c-.1521.603-.46.8844-.9781.7534a.89.89,0,0,1-.6667-1.1682Z" transform="translate(-16.6573 -18.5955)"/><path class="cls-2" d="M48.7011,65.6541l2.5978.6565-.3112-4.0257-.025-.0058Zm1.2061-4.5776A1.4655,1.4655,0,0,1,51.45,60.4a1.4092,1.4092,0,0,1,1.0382,1.3284l.7059,7.1555a1.46,1.46,0,0,1-.0158.4718.7731.7731,0,0,1-.9061.6174.8712.8712,0,0,1-.7212-.8494L51.41,67.72l-3.4784-.8784-.7593,1.1625a.8657.8657,0,0,1-1.03.4209.8042.8042,0,0,1-.499-1.0252,1.0566,1.0566,0,0,1,.186-.3772Z" transform="translate(-16.6573 -18.5955)"/><path class="cls-2" d="M61.5076,64.2241c-.1189.4713-.4006.7353-.8948.61-.4932-.1237-.9523-.7413-1.6633-.9687a1.1078,1.1078,0,0,0-1.4975.7795c-.3139,1.2415,4.1022,2.0342,3.4525,4.6091a2.9557,2.9557,0,0,1-3.7944,2.019c-.9285-.2345-2.8749-.9582-2.5889-2.0914a.7022.7022,0,0,1,.9441-.5593c.5661.142,1.3065,1.0221,2.0907,1.2205a1.2093,1.2093,0,0,0,1.5958-.9178c.36-1.4212-4.0022-2.0805-3.3847-4.5215A2.8775,2.8775,0,0,1,59.45,62.4211c.6739.1714,2.2976.851,2.0579,1.803" transform="translate(-16.6573 -18.5955)"/><path class="cls-2" d="M69.0145,66.12c-.1189.4713-.4006.7354-.8948.61-.4932-.1237-.9523-.7413-1.6632-.9686a1.1078,1.1078,0,0,0-1.4976.7794c-.3139,1.2415,4.1022,2.0342,3.4525,4.6091a2.9557,2.9557,0,0,1-3.7944,2.019c-.9285-.2345-2.8749-.9582-2.5889-2.0914a.7022.7022,0,0,1,.9441-.5593c.5661.142,1.3065,1.0222,2.0907,1.2206a1.21,1.21,0,0,0,1.5959-.9178c.36-1.4212-4.0023-2.0805-3.3848-4.5216a2.8775,2.8775,0,0,1,3.6826-1.9821c.6739.1714,2.2976.8511,2.0579,1.803" transform="translate(-16.6573 -18.5955)"/></svg>
