<svg id="views" xmlns="http://www.w3.org/2000/svg" viewBox="0 0 96.1036 79.7954"><defs><style>.cls-1,.cls-2{fill:none;stroke-linecap:round;stroke-linejoin:round;stroke-width:2px;}.cls-1{stroke:#1a1a1a;}.cls-2{stroke:#ff8c00;}</style></defs><path class="cls-1" d="M88.7342,40.6955V19.6619A6.7509,6.7509,0,0,0,81.992,12.92H10.19a6.7884,6.7884,0,0,0-6.7423,6.7423V75.156A6.7509,6.7509,0,0,0,10.19,81.8982H47.4739" transform="translate(-2.4474 -11.9196)"/><path class="cls-1" d="M88.7342,24.3873H3.4474" transform="translate(-2.4474 -11.9196)"/><path class="cls-1" d="M10.766,20.8721a2.017,2.017,0,1,0-2.0169-2.0169A2.0169,2.0169,0,0,0,10.766,20.8721Z" transform="translate(-2.4474 -11.9196)"/><path class="cls-1" d="M18.8336,20.8721a2.017,2.017,0,1,0-2.0169-2.0169A2.0169,2.0169,0,0,0,18.8336,20.8721Z" transform="translate(-2.4474 -11.9196)"/><path class="cls-1" d="M26.8437,20.8721a2.017,2.017,0,1,0-2.0169-2.0169A2.0169,2.0169,0,0,0,26.8437,20.8721Z" transform="translate(-2.4474 -11.9196)"/><path class="cls-1" d="M68.3922,90.715A29.1589,29.1589,0,1,0,39.2333,61.5562,29.1585,29.1585,0,0,0,68.3922,90.715Z" transform="translate(-2.4474 -11.9196)"/><path class="cls-2" d="M68.3922,74.6949c11.1074,0,20.1115-13.1387,20.1115-13.1387S79.5,48.4174,68.3922,48.4174,48.2806,61.5562,48.2806,61.5562,57.2847,74.6949,68.3922,74.6949Z" transform="translate(-2.4474 -11.9196)"/><path class="cls-2" d="M68.3922,67.8374a6.2813,6.2813,0,1,0-6.2813-6.2812A6.2811,6.2811,0,0,0,68.3922,67.8374Z" transform="translate(-2.4474 -11.9196)"/><path class="cls-2" d="M68.3922,58.2715a3.2832,3.2832,0,0,1,3.2847,3.2847" transform="translate(-2.4474 -11.9196)"/></svg>