<svg id="gender" xmlns="http://www.w3.org/2000/svg" xmlns:xlink="http://www.w3.org/1999/xlink" viewBox="0 0 81.112 60.088"><defs><style>.cls-1,.cls-3,.cls-4{fill:none;}.cls-2{clip-path:url(#clip-path);}.cls-3{stroke:#ff8c00;stroke-linejoin:round;}.cls-3,.cls-4{stroke-linecap:round;stroke-width:1.7px;}.cls-4{stroke:#47474a;stroke-miterlimit:10;}</style><clipPath id="clip-path" transform="translate(-2.3057 -19.5703)"><rect class="cls-1" x="2.3321" y="19.5964" width="81.0587" height="60.0355"/></clipPath></defs><g class="cls-2"><path class="cls-3" d="M18.2534,58.58,14.19,62.0872s-8.6733,4.3149-10.03,5.1241c-1.3548.8091-1.0827,3.5072-1.0827,4.5856s-.02,7.1114-.02,7.1114m19.4208-12.774,2.439,2.1568,2.4405-2.1568M14.89,62.0872l3.7953,7.8222,3.7938-3.7751-4.0645-6.7438m16.5316,2.6967-3.7952,7.8222-3.7924-3.7751,4.0659-6.7438m0-.8105,4.0631,3.5072s8.6733,4.3149,10.03,5.1241c1.3548.8091,1.0812,3.5072,1.0812,4.5856s.0217,7.1114.0217,7.1114M31.424,55.2088v4.3164m-13.01,0V55.2088m-1.01-25.3916c5.0271,11.257,19.4787,4.6883,19.4787,10.63M33.7385,60.46c3.4581.3127,7.5414-1.2506,9.4275-2.19-2.8284-5.94-3.0716-18.4481-3.0716-21.8077V35.1569a15.1807,15.1807,0,0,0-30.3536,0v4.9779S9.5483,53.8945,7.35,58.27a9.8341,9.8341,0,0,0,7.54,2.8153m21.993-20.6381v4.3772A11.92,11.92,0,0,1,24.9437,56.7069c-6.5875,0-11.273-3.6693-11.7434-11.8881a10.1826,10.1826,0,0,1,.7049-5.0445c.7281-2.0829,1.6125-2.7661,2.2407-4.9547" transform="translate(-2.3057 -19.5703)"/><path class="cls-4" d="M63.6464,61.2581H61.9312m9.4042-3.3567s7.773,2.1842,9.4738,5.098l1.8585,6.5151M68.42,55.474l2.9152,2.4274s-1.4576,5.098-4.6174,7.0405L63.561,61.3C66.718,59.6007,68.42,55.474,68.42,55.474ZM54.0859,57.9014s-7.7744,2.1842-9.4752,5.098m12.39-7.5254-2.9152,2.4274s1.4576,5.098,4.616,7.0405L61.86,61.3C58.7019,59.6007,57.0011,55.474,57.0011,55.474ZM72.0635,42.79A15.3894,15.3894,0,0,0,72.55,35.506c-.2432-.7281-1.2145-2.9123-2.9153-2.4274C66.4762,29.68,56.9533,27.833,52.8714,35.9924a12.2053,12.2053,0,0,0-.2432,7.04m1.9976,1.4562s-.0536,1.7427,0,3.1439a8.8224,8.8224,0,0,0,.909,3.6274,30.8487,30.8487,0,0,0,2.9036,2.9007,4.8146,4.8146,0,0,0,3.4479,1.4518h.7266m6.049-13.7944a6.1208,6.1208,0,0,0,1.944,2.6706s.084,2.2175,0,3.1439a8.8432,8.8432,0,0,1-.9076,3.6274,31.0194,31.0194,0,0,1-2.9036,2.9007,4.8179,4.8179,0,0,1-3.4493,1.4518h-.7267m6.0432-17.4348A12.3579,12.3579,0,0,1,63.561,41.09c-1.459.2432-5.5872.7281-7.5312-.2417a6.5379,6.5379,0,0,1-1.4576,2.1842m2.42,9.8588v2.7661m11.2541-2.7661v2.7661" transform="translate(-2.3057 -19.5703)"/></g></svg>
