<?xml version="1.0" encoding="utf-8"?>
<!-- Generator: Adobe Illustrator 22.1.0, SVG Export Plug-In . SVG Version: 6.00 Build 0)  -->
<svg version="1.1" id="Layer_1" xmlns="http://www.w3.org/2000/svg" xmlns:xlink="http://www.w3.org/1999/xlink" x="0px" y="0px"
	 width="202.9px" height="163.1px" viewBox="0 0 202.9 163.1" style="enable-background:new 0 0 202.9 163.1;" xml:space="preserve"
	>
<style type="text/css">
	.st0{fill:#FEDDB7;}
	.st1{fill:none;stroke:#1A1A1A;stroke-width:3;stroke-linecap:round;stroke-linejoin:round;stroke-miterlimit:10;}
	.st2{fill:#FF791A;}
</style>
<rect x="17.1" y="17.2" class="st0" width="169" height="59.8"/>
<rect x="17.1" y="82.6" class="st0" width="52.5" height="25.8"/>
<rect x="75.2" y="82.6" class="st0" width="52.5" height="25.8"/>
<rect x="133.4" y="82.6" class="st0" width="52.5" height="25.8"/>
<rect x="10.8" y="11.1" class="st1" width="181.3" height="103.1"/>
<path class="st1" d="M191.6,137.9H11.3c-5.4,0-9.8-4.4-9.8-9.8V11.3c0-5.4,4.4-9.8,9.8-9.8h180.3c5.4,0,9.8,4.4,9.8,9.8V128
	C201.5,133.5,197.1,137.9,191.6,137.9z"/>
<path class="st1" d="M70.2,161.6h15.1c5.4,0,9.8-4.4,9.8-9.8v-13.9h12.5v13.9c0,5.4,4.4,9.8,9.8,9.8h15.1"/>
<circle class="st2" cx="101.6" cy="126" r="4.7"/>
</svg>
