<svg xmlns="http://www.w3.org/2000/svg" viewBox="0 0 202.9017 163.1"><defs><style>.cls-1,.cls-3,.cls-5{fill:none;stroke-width:3px;}.cls-1{stroke:#1a1a1a;stroke-linejoin:round;}.cls-1,.cls-5{stroke-linecap:round;}.cls-2{fill:#ff791a;}.cls-3,.cls-5{stroke:#000;stroke-miterlimit:10;}.cls-4{fill:#feddb7;}</style></defs><g id="Layer_1" data-name="Layer 1"><rect class="cls-1" x="10.8" y="11.1" width="181.3" height="103.1"/><path class="cls-1" d="M191.6,137.9H11.3a9.8159,9.8159,0,0,1-9.8-9.8V11.3a9.8159,9.8159,0,0,1,9.8-9.8H191.6a9.8159,9.8159,0,0,1,9.8,9.8V128A9.7125,9.7125,0,0,1,191.6,137.9Z"/><path class="cls-1" d="M70.2,161.6H85.3a9.8159,9.8159,0,0,0,9.8-9.8V137.9h12.5v13.9a9.8159,9.8159,0,0,0,9.8,9.8h15.1"/><circle class="cls-2" cx="101.6" cy="126" r="4.7"/></g><g id="Ebene_3" data-name="Ebene 3"><path class="cls-3" d="M67.5562,25.0978h75.786v70.8A4.502,4.502,0,0,1,138.84,100.4H61.7321A4.5019,4.5019,0,0,1,57.23,95.8981V36.2473H67.4961Z"/><path class="cls-3" d="M57.23,36.2473H67.535a0,0,0,0,1,0,0V95.2441A5.1559,5.1559,0,0,1,62.3792,100.4h0a5.149,5.149,0,0,1-5.149-5.149V36.2473a0,0,0,0,1,0,0Z"/><rect class="cls-4" x="75.0238" y="33.0447" width="30.0969" height="22.4896"/><rect class="cls-4" x="105.5422" y="70.5048" width="30.0969" height="22.3635"/><line class="cls-5" x1="111.5512" y1="45.1486" x2="134.7391" y2="45.1486"/><line class="cls-5" x1="111.5512" y1="54.3415" x2="134.7391" y2="54.3415"/><line class="cls-5" x1="76.2121" y1="72.7274" x2="99.4" y2="72.7274"/><line class="cls-5" x1="76.2121" y1="81.9203" x2="99.4" y2="81.9203"/><line class="cls-5" x1="76.2121" y1="91.1133" x2="99.4" y2="91.1133"/><line class="cls-5" x1="76.2121" y1="63.5345" x2="134.7391" y2="63.5345"/><rect class="cls-2" x="110.21" y="32.2973" width="25.8703" height="6.1014"/></g></svg>