<?xml version="1.0" encoding="utf-8"?>
<!-- Generator: Adobe Illustrator 22.1.0, SVG Export Plug-In . SVG Version: 6.00 Build 0)  -->
<svg version="1.1" id="Layer_1" xmlns="http://www.w3.org/2000/svg" xmlns:xlink="http://www.w3.org/1999/xlink" x="0px" y="0px"
	 width="203px" height="163.1px" viewBox="0 0 203 163.1" style="enable-background:new 0 0 203 163.1;" xml:space="preserve">
<style type="text/css">
	.st0{fill:none;stroke:#1A1A1A;stroke-width:3;stroke-linecap:round;stroke-linejoin:round;stroke-miterlimit:10;}
	.st1{fill:#FF791A;}
	.st2{fill:#FEDDB7;}
	.st3{fill:none;stroke:#FF791A;stroke-width:3;stroke-linecap:round;stroke-linejoin:round;stroke-miterlimit:10;}
</style>
<g>
	<rect x="10.8" y="11.1" class="st0" width="181.3" height="103.1"/>
	<path class="st0" d="M191.6,137.9H11.3c-5.4,0-9.8-4.4-9.8-9.8V11.3c0-5.4,4.4-9.8,9.8-9.8h180.3c5.4,0,9.8,4.4,9.8,9.8V128
		C201.5,133.5,197.1,137.9,191.6,137.9z"/>
	<path class="st0" d="M70.2,161.6h15.1c5.4,0,9.8-4.4,9.8-9.8v-13.9h12.5v13.9c0,5.4,4.4,9.8,9.8,9.8h15.1"/>
	<circle class="st1" cx="101.6" cy="126" r="4.7"/>
</g>
<g>
	<path class="st2" d="M96,80.2l6.3,8c0.6,0.7,1.1,1.6,1.4,2.4c0.5,1.2,0.7,2.3,0.7,3.5c4.5-4.5,7.9-10.1,10-16.2L96,80.2z"/>
	<path class="st2" d="M87.1,100.2L75.7,85.8l-4.4,1.8c-3.2,1.3-6.8-0.2-8.1-3.4L56,67c-1.3-3.2,0.2-6.8,3.4-8.1l14.9-6.2l25.8-22.3
		c-7.2-5.6-16.4-9-26.3-9c-23.6,0-42.8,19.1-42.8,42.8c0,23.6,19.1,42.8,42.8,42.8c6.2,0,12.1-1.3,17.5-3.7
		C89.7,102.6,88.2,101.6,87.1,100.2z"/>
</g>
<g>
	<g>
		<path class="st0" d="M101,29.8L74.3,52.8l-14.9,6.2c-3.2,1.3-4.7,5-3.4,8.1l7.1,17.2c1.3,3.2,5,4.7,8.1,3.4l14.9-6.2l34.4-4.3"/>
	</g>
	<line class="st0" x1="74.3" y1="52.8" x2="86.2" y2="81.4"/>
	<path class="st0" d="M125,55.6c2.8-1.2,4.7-3.9,4.7-7.1c0-4.2-3.4-7.7-7.7-7.7c-1,0-2,0.2-2.9,0.6"/>
	<path class="st0" d="M101.1,30c-1.3-3.1,0.2-6.7,3.3-8c3.1-1.3,6.7,0.2,8,3.3l19.7,47.4c1.3,3.1-0.2,6.7-3.3,8
		c-3.1,1.3-6.7-0.2-8-3.3L101.1,30z"/>
	<path class="st0" d="M75.7,85.8l11.4,14.4c2.7,3.4,7.2,4.6,11.2,3c4.9-2,7.3-7.6,5.3-12.5c-0.3-0.9-0.8-1.7-1.4-2.4l-6.3-8.1"/>
	<line class="st0" x1="102.3" y1="88.2" x2="83.7" y2="95.9"/>
	<path class="st3" d="M133.3,60.2c3.1-3,5-7.1,5-11.7c0-9-7.3-16.2-16.2-16.2c-0.1,0-0.2,0-0.4,0"/>
</g>
</svg>
