<?xml version="1.0" encoding="utf-8"?>
<!-- Generator: Adobe Illustrator 22.1.0, SVG Export Plug-In . SVG Version: 6.00 Build 0)  -->
<svg version="1.1" id="Layer_1" xmlns="http://www.w3.org/2000/svg" xmlns:xlink="http://www.w3.org/1999/xlink" x="0px" y="0px"
	 width="166.4px" height="173.2px" viewBox="0 0 166.4 173.2" style="enable-background:new 0 0 166.4 173.2;" xml:space="preserve"
	>
<style type="text/css">
	.st0{fill:#FEDDB7;}
	.st1{fill:#FF791A;}
	.st2{fill:none;stroke:#1A1A1A;stroke-width:3;stroke-linecap:round;stroke-linejoin:round;stroke-miterlimit:10;}
</style>
<g>
	<path class="st0" d="M94,12.8c-13.5,0-24.4,10.9-24.4,24.4S80.5,61.6,94,61.6s24.5-10.8,24.5-24.3S107.5,12.8,94,12.8z"/>
	<path class="st0" d="M26.6,61.7c7.6,0,13.7-6.1,13.7-13.7s-6.1-13.7-13.7-13.7S12.9,40.4,12.9,48C12.9,55.5,19,61.7,26.6,61.7z"/>
	<path class="st1" d="M77.3,117.8l-13.7-7.9c-0.4-0.2-0.9-0.4-1.3-0.4c-1.4,0-2.4,1.1-2.4,2.5v15.8c0,1.4,1,2.5,2.4,2.5
		c0.5,0,0.9-0.1,1.3-0.4l13.7-7.9c0.8-0.5,1.3-1.3,1.3-2.2S78.1,118.2,77.3,117.8z"/>
	<path class="st2" d="M75.1,67.7h37.8c10.1-6.3,16.9-17.6,16.9-30.4c0-19.8-16-35.8-35.8-35.8s-35.7,16-35.7,35.8
		C58.3,50.1,65,61.3,75.1,67.7z"/>
	<polygon class="st2" points="129.8,154.2 156.1,171.7 156.1,67.7 129.8,85.2 	"/>
	<path class="st2" d="M156.1,171.7c4.9,0,8.8-3.9,8.8-8.8V76.4c0-4.9-3.9-8.8-8.8-8.8"/>
	<path class="st2" d="M11.9,68.3c1.4-0.4,2.9-0.7,4.4-0.7h25.8c5.8-4.6,9.5-11.7,9.5-19.7c0-13.9-11.2-25.1-25.1-25.1
		s-25,11.3-25,25.1C1.5,56.3,5.6,63.8,11.9,68.3z"/>
	<path class="st2" d="M115,67.7H16.4c-8.2,0-14.9,6.6-14.9,14.8v74.3c0,8.2,6.7,14.9,14.9,14.9H115c8.2,0,14.9-6.7,14.9-14.9V82.5
		C129.8,74.3,123.2,67.7,115,67.7z M65.7,155.6c-19.6,0-35.6-16-35.6-35.6s16-35.6,35.6-35.6s35.6,16,35.6,35.6
		S85.3,155.6,65.7,155.6z"/>
</g>
</svg>
