<?xml version="1.0" encoding="utf-8"?>
<!-- Generator: Adobe Illustrator 22.1.0, SVG Export Plug-In . SVG Version: 6.00 Build 0)  -->
<svg version="1.1" id="Layer_1" xmlns="http://www.w3.org/2000/svg" xmlns:xlink="http://www.w3.org/1999/xlink" x="0px" y="0px"
	 width="167.2px" height="187.7px" viewBox="0 0 167.2 187.7" style="enable-background:new 0 0 167.2 187.7;" xml:space="preserve"
	>
<style type="text/css">
	.st0{fill:#FEDDB7;}
	.st1{fill:none;stroke:#FF791A;stroke-width:3;stroke-linecap:round;stroke-linejoin:round;stroke-miterlimit:10;}
	.st2{fill:none;stroke:#1A1A1A;stroke-width:3;stroke-linecap:round;stroke-linejoin:round;stroke-miterlimit:10;}
</style>
<g>
	<g>
		<path class="st0" d="M79.5,152.3H24.1c-7.8,0-14.1-6.3-14.1-14.1v-82c0-1.3,0.2-2.5,0.5-3.6C4.5,54.1,0,59.6,0,66.2v82
			c0,7.8,6.3,14.1,14.1,14.1h55.4l24.6,24.6c1.1,1.1,2.9,1.1,4,0c0.5-0.5,0.8-1.2,0.8-2v-13.2L79.5,152.3z"/>
		<path class="st0" d="M131.5,152.3h-22.6v10h12.6c6.5,0,12-4.5,13.6-10.5C134,152.1,132.8,152.3,131.5,152.3z"/>
	</g>
	<g>
		<circle class="st1" cx="159.3" cy="101.4" r="4.9"/>
		<path class="st2" d="M165.7,37.8h-21v80.5h21"/>
		<path class="st2" d="M138,38.1c-7.6-6.2-13.7-14.3-15.8-27.5c-0.8-4.9-2.5-9.1-8.6-9.1c-7.1,0-10,6.1-10,12.2v4.4
			c0,10.3,0.9,15,4.7,24.5l-15,0c-0.5-0.1-1-0.1-1.6-0.1h-21c-5,0-9.1,4.1-9.1,9.1v0.8c0,2.7,1.2,5.1,3.1,6.8v2.5
			c-4.2,0.9-7.4,4.7-7.4,9.3v0c0,4.8,3.5,8.7,8.1,9.4c0.1,0.6,0.2,1.2,0.3,1.8c-2.4,1.7-4.1,4.6-4.1,7.8v0c0,5.2,4.2,9.4,9.3,9.5
			c0.1,0.2,0.1,0.3,0.2,0.5c-3.5,1.2-6.1,4.5-6.1,8.4v1.4c0,4.9,3.9,8.8,8.8,8.8H88h5h36.6c2.3,0,4.7-0.6,6.8-1.6l7.6-3.8l0.8-70.7
			C142.1,41.7,140.2,39.8,138,38.1z"/>
		<path class="st2" d="M91.7,61.4h-21c-5,0-9.1-4.1-9.1-9.1v-0.8c0-5,4.1-9.1,9.1-9.1h21c5,0,9.1,4.1,9.1,9.1v0.8
			C100.8,57.3,96.7,61.4,91.7,61.4z"/>
		<path class="st2" d="M94.7,80.4h-28c-5.2,0-9.5-4.2-9.5-9.5v0c0-5.2,4.2-9.5,9.5-9.5h28c5.2,0,9.5,4.2,9.5,9.5v0
			C104.2,76.1,99.9,80.4,94.7,80.4z"/>
		<path class="st2" d="M94.7,99.3H71.1c-5.2,0-9.5-4.2-9.5-9.5v0c0-5.2,4.2-9.5,9.5-9.5h23.6c5.2,0,9.5,4.2,9.5,9.5v0
			C104.2,95.1,99.9,99.3,94.7,99.3z"/>
		<path class="st2" d="M93,118.3H73.9c-4.9,0-8.8-3.9-8.8-8.8v-1.4c0-4.9,3.9-8.8,8.8-8.8H93c4.9,0,8.8,3.9,8.8,8.8v1.4
			C101.8,114.4,97.8,118.3,93,118.3z"/>
	</g>
	<path class="st2" d="M103.6,18.1c0,10.3,0.9,15,4.7,24.5c0,0,5.2,10.6,9.5,12.3"/>
	<path class="st2" d="M45.4,42H24.1C16.3,42,10,48.4,10,56.2v82c0,7.8,6.3,14.1,14.1,14.1h55.4l24.6,24.6c1.1,1.1,2.9,1.1,4,0
		c0.5-0.5,0.8-1.2,0.8-2v-22.6h22.6c7.8,0,14.1-6.3,14.1-14.1"/>
</g>
</svg>
